<svg width="274" height="226" viewBox="0 0 274 226" fill="none" xmlns="http://www.w3.org/2000/svg">
<path d="M40.6101 181.116C5.15283 87.2189 7.07659 64.3943 8.65214 48.9243C60.9211 33.2016 128.557 12.5292 146.19 15.6739C163.823 18.8185 230.957 62.7395 241.665 89.3004C247.902 129.288 262.815 210.833 272.565 217.118C282.315 223.403 119.445 185.206 40.6101 181.116Z" fill="#5F4444"/>
<path d="M11.2259 76.5944C5.35542 82.9519 3.03882 53.3679 6.95887 48.305C10.8789 43.242 46.357 34.6651 46.357 34.6651L87.1809 24.7957L121.201 16.5712L144.497 15.0546C198.705 22.2831 227.209 66.7037 241.171 88.5293C241.57 88.7381 241.685 89.0579 241.664 89.3006L241.246 88.6463C241.221 88.6074 241.196 88.5684 241.171 88.5293C240.707 88.2864 239.859 88.1937 238.396 88.5476C234.994 89.37 226.476 77.5404 211.666 95.0097C196.856 112.479 189.465 64.8829 176.653 90.6142C163.84 116.345 156.791 87.1854 150.419 79.9808C144.048 72.7763 130.803 60.5462 118.979 83.9809C107.155 107.416 95.9501 82.3466 90.7857 75.879C85.6213 69.4115 76.7666 54.0624 65.7968 76.7762C54.827 99.4899 42.1484 76.8348 36.984 70.3673C31.8196 63.8997 18.564 68.6476 11.2259 76.5944Z" fill="#B04F61"/>
</svg>
