<svg width="305" height="305" viewBox="0 0 305 305" fill="none" xmlns="http://www.w3.org/2000/svg">
<path d="M241.464 44.4837H63.54V107.63H241.464V44.4837Z" fill="#CCD1D9"/>
<path d="M260.524 279.59C260.524 293.626 249.132 305 235.095 305H69.8947C55.8583 305 44.4746 293.626 44.4746 279.59V95.3125C44.4746 81.2761 55.8577 69.902 69.8947 69.902H235.095C249.132 69.902 260.524 81.2761 260.524 95.3125V279.59Z" fill="#E6E9ED"/>
<path d="M152.502 19.0625C82.5627 19.0625 63.5371 44.4825 63.5371 44.4825V57.1875H241.462V44.4825C241.462 44.4825 222.436 19.0625 152.502 19.0625Z" fill="#ED5564"/>
<path d="M165.212 12.7145C165.212 19.7327 159.52 25.42 152.502 25.42C145.475 25.42 139.787 19.7327 139.787 12.7145C139.787 5.69629 145.475 0 152.502 0C159.52 0 165.212 5.69629 165.212 12.7145Z" fill="#FFCE54"/>
<path d="M131.755 281.647C134.361 277.859 134.603 274.591 135.049 268.066C135.506 261.533 133.737 255.315 130.944 249.702C129.222 246.249 125.583 237.77 120.166 234.856C114.74 231.942 108.14 227.931 98.1249 228.08C88.1191 228.229 71.8297 235.834 65.8546 239.901C59.8789 243.968 57.5425 248.222 57.0582 255.064C56.5834 261.896 56.4065 261.663 59.9159 272.665C63.4342 283.657 68.8612 290.043 73.0027 292.333C77.1543 294.623 77.778 294.762 84.4334 295.386C91.0882 296.009 98.879 296.903 103.738 296.54C108.596 296.177 114.935 296.289 119.161 293.115C123.387 289.931 129.204 285.351 131.755 281.647Z" fill="#EAAD7A"/>
<path d="M91.9258 249.6C89.4505 252.085 89.4505 256.106 91.9258 258.591C94.4111 261.067 98.4322 261.067 100.918 258.591C103.393 256.106 103.393 252.085 100.918 249.6C98.4322 247.124 94.4111 247.124 91.9258 249.6Z" fill="#7F4545"/>
<path d="M96.5984 270.487C94.113 272.963 94.113 276.993 96.5984 279.469C99.0742 281.954 103.105 281.954 105.581 279.469C108.066 276.993 108.066 272.963 105.581 270.487C103.105 268.002 99.0742 268.002 96.5984 270.487Z" fill="#7F4545"/>
<path d="M72.4075 254.654C69.9228 257.139 69.9228 261.16 72.4075 263.635C74.8929 266.121 78.914 266.121 81.3993 263.635C83.8752 261.16 83.8752 257.139 81.3993 254.654C78.914 252.169 74.8929 252.169 72.4075 254.654Z" fill="#7F4545"/>
<path d="M130.302 292.193C134.174 295.106 137.712 295.795 144.767 297.163C151.831 298.522 158.775 297.824 165.156 296.111C169.084 295.059 178.689 293.002 182.375 288.516C186.08 284.029 191.087 278.641 191.925 269.546C192.744 260.462 186.061 244.61 182.207 238.607C178.372 232.603 173.961 229.866 166.571 228.433C159.185 227.009 159.446 226.879 147.131 228.461C134.817 230.034 127.334 234.018 124.439 237.443C121.534 240.869 121.321 241.408 119.989 247.347C118.667 253.276 116.918 260.211 116.834 264.66C116.759 269.109 116.014 274.833 119.058 279.124C122.103 283.415 126.515 289.344 130.302 292.193Z" fill="#EAAD7A"/>
<path d="M161.866 270.989C159.697 268.234 155.704 267.741 152.94 269.91C150.175 272.069 149.691 276.062 151.86 278.827C154.02 281.591 158.013 282.075 160.777 279.916C163.536 277.747 164.021 273.754 161.866 270.989Z" fill="#7F4545"/>
<path d="M148.108 258.433C145.949 255.668 141.956 255.185 139.191 257.344C136.427 259.513 135.943 263.506 138.102 266.27C140.271 269.034 144.265 269.518 147.029 267.349C149.783 265.19 150.277 261.198 148.108 258.433Z" fill="#7F4545"/>
<path d="M164.504 248.725C162.345 245.96 158.356 245.476 155.592 247.636C152.827 249.805 152.343 253.798 154.503 256.562C156.672 259.327 160.665 259.81 163.425 257.641C166.198 255.482 166.683 251.489 164.504 248.725Z" fill="#7F4545"/>
<path d="M172.211 275.42C173.905 279.627 176.586 281.805 181.966 286.142C187.364 290.48 193.843 293.03 200.433 294.473C204.491 295.367 214.078 297.973 219.942 295.869C225.787 293.775 233.327 291.504 239.359 284.234C245.39 276.965 248.797 260.612 248.927 253.826C249.076 247.04 246.824 242.749 241.183 238.207C235.542 233.655 235.859 233.674 224.149 229.439C212.459 225.194 203.58 225.157 199.037 226.73C194.513 228.303 193.992 228.656 189.375 233.05C184.74 237.443 179.173 242.479 176.511 246.183C173.831 249.888 169.847 254.365 169.996 259.354C170.163 264.334 170.555 271.315 172.211 275.42Z" fill="#EAAD7A"/>
<path d="M226.048 264.455C225.619 260.974 222.437 258.499 218.955 258.936C215.474 259.364 212.999 262.538 213.427 266.019C213.874 269.5 217.038 271.976 220.519 271.548C224 271.111 226.476 267.936 226.048 264.455Z" fill="#7F4545"/>
<path d="M205.887 265.832C205.458 262.351 202.295 259.885 198.795 260.313C195.313 260.75 192.856 263.915 193.284 267.405C193.713 270.887 196.896 273.353 200.377 272.925C203.858 272.497 206.334 269.314 205.887 265.832Z" fill="#7F4545"/>
<path d="M223.46 247.282C223.013 243.8 219.849 241.325 216.367 241.762C212.886 242.191 210.411 245.364 210.839 248.854C211.267 252.336 214.45 254.802 217.931 254.374C221.412 253.937 223.888 250.763 223.46 247.282Z" fill="#7F4545"/>
<path d="M98.9446 260.928C102.994 263.068 106.55 263.171 113.651 263.357C120.763 263.543 127.614 261.803 133.849 259.206C137.675 257.614 147.067 254.198 150.436 249.413C153.805 244.629 158.432 238.784 158.627 230.118C158.832 221.462 151.124 207.602 146.899 202.557C142.673 197.522 138.122 195.632 130.675 195.427C123.239 195.232 123.49 195.073 111.361 198.462C99.2425 201.85 92.0753 206.745 89.4232 210.413C86.7704 214.08 86.5935 214.62 85.6719 220.401C84.7599 226.181 83.494 232.957 83.7174 237.155C83.9312 241.344 83.578 246.835 86.9009 250.391C90.2137 253.956 94.998 258.833 98.9446 260.928Z" fill="#F4BE8E"/>
<path d="M140.867 231.71C138.391 229.215 134.37 229.206 131.875 231.673C129.39 234.149 129.371 238.17 131.838 240.665C134.314 243.15 138.335 243.168 140.83 240.702C143.315 238.226 143.333 234.204 140.867 231.71Z" fill="#7F4545"/>
<path d="M117.653 230.416C115.186 227.921 111.156 227.912 108.671 230.379C106.176 232.855 106.158 236.876 108.634 239.371C111.101 241.856 115.131 241.875 117.616 239.399C120.11 236.932 120.129 232.911 117.653 230.416Z" fill="#7F4545"/>
<path d="M119.533 209.418C117.066 206.923 113.045 206.904 110.551 209.381C108.056 211.848 108.047 215.878 110.514 218.363C112.989 220.858 117.011 220.876 119.496 218.4C121.99 215.933 122.009 211.903 119.533 209.418Z" fill="#7F4545"/>
<path d="M221.413 227.671C221.282 223.194 221.078 222.636 218.043 217.134C214.99 211.642 211.602 205.099 208.624 201.534C205.663 197.978 202.332 192.998 197.101 191.472C191.869 189.945 184.478 187.963 179.676 188.028C174.762 188.093 171.616 189.703 165.324 192.942C159.055 196.182 154.261 200.985 150.593 206.234C148.331 209.464 142.467 216.948 142.71 222.756C142.961 228.554 142.84 235.88 148.406 243.558C153.963 251.238 169.828 259.671 176.828 262.063C183.827 264.455 189.04 263.924 195.611 260.537C202.183 257.148 202.071 257.409 210.336 248.641C218.583 239.864 221.542 232.147 221.413 227.671Z" fill="#F4BE8E"/>
<path d="M175.097 239.808C178.522 240.553 181.91 238.366 182.636 234.94C183.38 231.505 181.202 228.126 177.777 227.391C174.334 226.646 170.964 228.834 170.219 232.259C169.474 235.694 171.671 239.073 175.097 239.808Z" fill="#7F4545"/>
<path d="M181.444 219.396C184.888 220.131 188.258 217.953 189.003 214.518C189.747 211.093 187.55 207.714 184.125 206.969C180.7 206.234 177.311 208.412 176.566 211.847C175.841 215.272 178.019 218.651 181.444 219.396Z" fill="#7F4545"/>
<path d="M196.356 239.808C199.781 240.553 203.17 238.366 203.914 234.94C204.641 231.505 202.462 228.126 199.037 227.391C195.611 226.646 192.223 228.834 191.478 232.259C190.752 235.694 192.93 239.073 196.356 239.808Z" fill="#7F4545"/>
<path d="M190.753 195.177C190.604 191.351 190.418 190.876 187.364 186.186C184.329 181.494 180.942 175.919 177.963 172.875C175.003 169.831 171.671 165.587 166.441 164.284C161.205 162.981 153.823 161.287 149.011 161.342C144.087 161.398 140.941 162.776 134.668 165.54C128.395 168.304 123.601 172.4 119.924 176.886C117.672 179.642 111.798 186.027 112.049 190.978C112.301 195.93 112.18 202.185 117.737 208.738C123.303 215.281 139.173 222.486 146.172 224.524C153.171 226.562 158.374 226.116 164.951 223.221C171.521 220.326 171.41 220.55 179.657 213.066C187.923 205.582 190.883 198.993 190.753 195.177Z" fill="#FFD2A6"/>
<path d="M137.349 202.354C140.783 203.098 144.162 200.911 144.898 197.485C145.642 194.05 143.455 190.671 140.029 189.927C136.594 189.192 133.215 191.37 132.48 194.805C131.736 198.239 133.923 201.618 137.349 202.354Z" fill="#7F4545"/>
<path d="M155.983 187.973C159.418 188.707 162.792 186.53 163.537 183.095C164.282 179.66 162.085 176.281 158.664 175.546C155.229 174.811 151.85 176.989 151.115 180.424C150.37 183.849 152.558 187.228 155.983 187.973Z" fill="#7F4545"/>
<path d="M162.773 208.71C166.199 209.445 169.587 207.267 170.312 203.832C171.057 200.407 168.879 197.028 165.454 196.284C162.015 195.549 158.636 197.727 157.891 201.162C157.156 204.587 159.334 207.975 162.773 208.71Z" fill="#7F4545"/>
<path d="M245.948 46.3442C244.7 45.1063 243.081 44.4825 241.462 44.4825H62.3644V44.5945C61.1545 44.8179 59.991 45.4041 59.0414 46.3448C56.5656 48.8301 56.5656 52.8506 59.0414 55.3265C59.991 56.276 61.1545 56.8527 62.3644 57.0856V57.1881H241.462C243.081 57.1881 244.701 56.5739 245.948 55.3265C248.424 52.8501 248.424 48.8295 245.948 46.3442Z" fill="#DA4453"/>
<path d="M68.033 68.041C70.5184 65.5556 70.5184 61.5345 68.033 59.0491C66.7951 57.8112 65.1664 57.1875 63.5371 57.1875V69.902C65.1658 69.902 66.7951 69.2783 68.033 68.041Z" fill="#CCD1D9"/>
<path d="M236.956 59.0491C234.481 61.5345 234.481 65.5556 236.956 68.041C238.204 69.2789 239.823 69.9026 241.461 69.9026V57.1875C239.824 57.1875 238.204 57.8112 236.956 59.0491Z" fill="#CCD1D9"/>
</svg>
