<svg width="442" height="442" viewBox="0 0 442 442" fill="none" xmlns="http://www.w3.org/2000/svg">
<path d="M147.333 174.958C147.333 206.707 159.946 237.155 182.395 259.605C204.845 282.055 235.293 294.667 267.042 294.667C298.79 294.667 329.239 282.055 351.688 259.605C374.138 237.155 386.75 206.707 386.75 174.958C386.75 143.21 374.138 112.761 351.688 90.3118C329.239 67.8621 298.79 55.25 267.042 55.25C235.293 55.25 204.845 67.8621 182.395 90.3118C159.946 112.761 147.333 143.21 147.333 174.958Z" fill="#D87B00"/>
<path d="M55.25 267.042C55.25 298.79 67.8621 329.239 90.3118 351.688C112.761 374.138 143.21 386.75 174.958 386.75C206.707 386.75 237.155 374.138 259.605 351.688C282.055 329.239 294.667 298.79 294.667 267.042C294.667 235.293 282.055 204.845 259.605 182.395C237.155 159.945 206.707 147.333 174.958 147.333C143.21 147.333 112.761 159.945 90.3118 182.395C67.8621 204.845 55.25 235.293 55.25 267.042Z" fill="#FFB300"/>
<path d="M138.125 262.437C138.125 268.543 140.55 274.398 144.868 278.716C149.185 283.033 155.04 285.458 161.146 285.458C167.251 285.458 173.107 283.033 177.424 278.716C181.741 274.398 184.167 268.543 184.167 262.437C184.167 256.332 181.741 250.477 177.424 246.159C173.107 241.842 167.251 239.417 161.146 239.417C155.04 239.417 149.185 241.842 144.868 246.159C140.55 250.477 138.125 256.332 138.125 262.437Z" fill="#683529"/>
<path d="M165.75 197.979C165.75 201.642 167.205 205.156 169.796 207.746C172.386 210.336 175.899 211.792 179.562 211.792C183.226 211.792 186.739 210.336 189.329 207.746C191.92 205.156 193.375 201.642 193.375 197.979C193.375 194.316 191.92 190.803 189.329 188.212C186.739 185.622 183.226 184.167 179.562 184.167C175.899 184.167 172.386 185.622 169.796 188.212C167.205 190.803 165.75 194.316 165.75 197.979Z" fill="#683529"/>
<path d="M193.375 313.083C193.375 315.502 193.851 317.897 194.776 320.132C195.701 322.367 197.058 324.397 198.768 326.108C200.478 327.818 202.509 329.175 204.743 330.101C206.978 331.026 209.373 331.503 211.792 331.503C214.21 331.503 216.605 331.026 218.84 330.101C221.075 329.175 223.105 327.818 224.815 326.108C226.525 324.397 227.882 322.367 228.807 320.132C229.733 317.897 230.209 315.502 230.208 313.083C230.209 310.665 229.733 308.269 228.807 306.035C227.882 303.8 226.525 301.769 224.815 300.059C223.105 298.349 221.075 296.992 218.84 296.066C216.605 295.14 214.21 294.664 211.792 294.664C209.373 294.664 206.978 295.14 204.743 296.066C202.509 296.992 200.478 298.349 198.768 300.059C197.058 301.769 195.701 303.8 194.776 306.035C193.851 308.269 193.375 310.665 193.375 313.083Z" fill="#683529"/>
<path d="M92.0835 280.854C92.0835 284.517 93.5387 288.031 96.1291 290.621C98.7194 293.211 102.233 294.667 105.896 294.667C109.559 294.667 113.073 293.211 115.663 290.621C118.253 288.031 119.709 284.517 119.709 280.854C119.709 277.191 118.253 273.678 115.663 271.087C113.073 268.497 109.559 267.042 105.896 267.042C102.233 267.042 98.7194 268.497 96.1291 271.087C93.5387 273.678 92.0835 277.191 92.0835 280.854Z" fill="#683529"/>
<path d="M221.009 253.22C221.009 256.883 222.465 260.397 225.055 262.987C227.645 265.577 231.158 267.032 234.822 267.032C238.485 267.032 241.998 265.577 244.589 262.987C247.179 260.397 248.634 256.883 248.634 253.22C248.634 249.557 247.179 246.043 244.589 243.453C241.998 240.863 238.485 239.407 234.822 239.407C231.158 239.407 227.645 240.863 225.055 243.453C222.465 246.043 221.009 249.557 221.009 253.22Z" fill="#683529"/>
<path d="M138.125 331.5C138.125 332.709 138.363 333.907 138.826 335.024C139.289 336.141 139.967 337.156 140.822 338.011C141.677 338.866 142.692 339.545 143.809 340.007C144.927 340.47 146.124 340.708 147.333 340.708C148.543 340.708 149.74 340.47 150.857 340.007C151.974 339.545 152.99 338.866 153.845 338.011C154.7 337.156 155.378 336.141 155.841 335.024C156.303 333.907 156.542 332.709 156.542 331.5C156.542 330.291 156.303 329.093 155.841 327.976C155.378 326.859 154.7 325.844 153.845 324.989C152.99 324.134 151.974 323.455 150.857 322.993C149.74 322.53 148.543 322.292 147.333 322.292C146.124 322.292 144.927 322.53 143.809 322.993C142.692 323.455 141.677 324.134 140.822 324.989C139.967 325.844 139.289 326.859 138.826 327.976C138.363 329.093 138.125 330.291 138.125 331.5Z" fill="#683529"/>
<path d="M221 110.5C221 112.919 221.476 115.314 222.401 117.549C223.326 119.783 224.683 121.814 226.393 123.524C228.103 125.235 230.134 126.592 232.368 127.517C234.603 128.443 236.998 128.919 239.417 128.919C241.835 128.919 244.23 128.443 246.465 127.517C248.7 126.592 250.73 125.235 252.44 123.524C254.15 121.814 255.507 119.783 256.432 117.549C257.358 115.314 257.834 112.919 257.833 110.5C257.834 108.081 257.358 105.686 256.432 103.451C255.507 101.217 254.15 99.1861 252.44 97.4756C250.73 95.7652 248.7 94.4084 246.465 93.4827C244.23 92.557 241.835 92.0805 239.417 92.0805C236.998 92.0805 234.603 92.557 232.368 93.4827C230.134 94.4084 228.103 95.7652 226.393 97.4756C224.683 99.1861 223.326 101.217 222.401 103.451C221.476 105.686 221 108.081 221 110.5Z" fill="#4C2114"/>
<path d="M276.241 151.928C276.241 155.592 277.696 159.105 280.286 161.695C282.877 164.286 286.39 165.741 290.053 165.741C293.717 165.741 297.23 164.286 299.82 161.695C302.41 159.105 303.866 155.592 303.866 151.928C303.866 148.265 302.41 144.752 299.82 142.161C297.23 139.571 293.717 138.116 290.053 138.116C286.39 138.116 282.877 139.571 280.286 142.161C277.696 144.752 276.241 148.265 276.241 151.928Z" fill="#4C2114"/>
<path d="M285.449 96.6875C285.449 100.351 286.904 103.864 289.495 106.454C292.085 109.045 295.598 110.5 299.262 110.5C302.925 110.5 306.438 109.045 309.029 106.454C311.619 103.864 313.074 100.351 313.074 96.6875C313.074 93.0242 311.619 89.5109 309.029 86.9206C306.438 84.3302 302.925 82.875 299.262 82.875C295.598 82.875 292.085 84.3302 289.495 86.9206C286.904 89.5109 285.449 93.0242 285.449 96.6875Z" fill="#4C2114"/>
<path d="M322.292 193.375C322.292 195.817 323.262 198.159 324.989 199.886C326.715 201.613 329.058 202.583 331.5 202.583C333.942 202.583 336.284 201.613 338.011 199.886C339.738 198.159 340.708 195.817 340.708 193.375C340.708 190.933 339.738 188.591 338.011 186.864C336.284 185.137 333.942 184.167 331.5 184.167C329.058 184.167 326.715 185.137 324.989 186.864C323.262 188.591 322.292 190.933 322.292 193.375Z" fill="#4C2114"/>
</svg>
