<svg width="441" height="441" viewBox="0 0 441 441" fill="none" xmlns="http://www.w3.org/2000/svg">
<path d="M223.98 124.217C218.229 120.862 212.169 118.066 205.885 115.866L205.72 115.818C203.701 115.163 201.585 114.522 199.449 113.943C198.976 113.777 198.493 113.641 198.002 113.537C196.773 113.183 195.527 112.896 194.267 112.675C192.639 112.262 190.987 111.946 189.32 111.731C188.026 111.468 186.72 111.27 185.406 111.139C183.249 110.843 181.086 110.622 178.874 110.45C174.514 110.162 170.141 110.162 165.782 110.45C161.77 110.678 157.779 111.173 153.833 111.931C151.408 112.372 149.01 112.889 147.315 113.344C146.584 113.443 145.864 113.612 145.165 113.847C142.912 114.439 140.734 115.122 138.695 115.845C136.538 116.596 134.45 117.34 132.348 118.243C130.129 119.201 127.924 120.166 125.671 121.33C123.983 122.253 122.295 123.163 120.517 124.169C118.739 125.175 116.886 126.353 115.198 127.47C113.702 128.455 112.193 129.502 110.781 130.564C109.993 131.108 109.238 131.7 108.52 132.334C106.769 133.614 105.102 135.006 103.532 136.503C102.471 137.378 101.464 138.343 100.458 139.301L99.48 140.231C97.9227 141.788 96.3585 143.421 94.9804 145.013C93.4576 146.694 92.0037 148.459 90.846 149.988C89.8055 151.237 88.8303 152.539 87.9244 153.888C87.23 154.786 86.5836 155.72 85.9881 156.686V156.727C85.9192 156.824 85.8503 156.927 85.7814 157.037C74.7548 173.843 68.8886 193.509 68.9063 213.609C68.9063 215.437 69.6323 217.19 70.9245 218.482C72.2168 219.774 73.9694 220.5 75.7969 220.5H172.266C174.093 220.5 175.846 219.774 177.138 218.482C178.43 217.19 179.156 215.437 179.156 213.609C179.123 202.438 181.228 191.363 185.358 180.982C192.794 162.108 206.393 146.302 223.945 136.131C224.988 135.525 225.853 134.656 226.455 133.61C227.056 132.565 227.373 131.38 227.373 130.174C227.373 128.968 227.056 127.783 226.455 126.738C225.853 125.693 224.988 124.823 223.945 124.217H223.98Z" fill="#FFFFAB"/>
<path d="M307.026 74.3705C293.146 53.1405 271.948 37.7521 247.463 31.1318C247.318 31.0905 247.091 31.0216 246.808 30.9596C246.582 30.8869 246.352 30.8271 246.119 30.7804H246.044C229.294 26.5256 211.747 26.5256 194.998 30.7804L194.557 30.8838L194.391 30.932C193.978 31.0216 193.633 31.1181 193.351 31.1939C171.614 37.1104 152.405 49.9668 138.647 67.8064C124.89 85.6461 117.338 107.492 117.141 130.019C117.13 131.234 117.44 132.43 118.04 133.486C118.641 134.542 119.51 135.421 120.559 136.033C121.608 136.645 122.801 136.969 124.016 136.972C125.231 136.975 126.425 136.656 127.477 136.048C141.13 128.308 156.559 124.244 172.254 124.256C187.949 124.268 203.372 128.355 217.013 136.117C218.066 136.73 219.262 137.053 220.479 137.053C221.697 137.053 222.893 136.73 223.945 136.117C237.587 128.357 253.01 124.27 268.705 124.258C284.399 124.246 299.828 128.309 313.482 136.048C314.534 136.656 315.728 136.975 316.943 136.972C318.158 136.969 319.35 136.645 320.4 136.033C321.449 135.421 322.318 134.542 322.918 133.486C323.519 132.43 323.829 131.234 323.818 130.019C323.656 110.246 317.828 90.9333 307.026 74.3705Z" fill="#FFFFB5"/>
<path d="M307.026 74.3705C293.193 53.1916 272.071 37.8238 247.663 31.1801C247.393 31.1088 247.119 31.0513 246.843 31.0078C246.622 30.932 246.395 30.8631 246.154 30.8011C229.312 26.5012 211.66 26.5012 194.819 30.8011C194.591 30.8631 194.364 30.932 194.13 31.0078C193.895 31.0836 193.571 31.1112 193.296 31.1801C168.889 37.823 147.769 53.1912 133.94 74.3705C133.113 75.6381 132.726 77.1429 132.839 78.6524C132.953 80.1619 133.56 81.592 134.567 82.7219C141.335 90.275 150.642 95.0794 160.719 96.2227C170.796 97.366 180.942 94.7685 189.23 88.9235C193.075 93.459 197.862 97.1029 203.257 99.6021C208.652 102.101 214.527 103.396 220.472 103.396C226.418 103.396 232.293 102.101 237.688 99.6021C243.083 97.1029 247.87 93.459 251.715 88.9235C259.993 94.7785 270.134 97.3874 280.209 96.2542C290.285 95.121 299.593 90.3246 306.364 82.7771C307.39 81.6469 308.011 80.2082 308.131 78.6868C308.251 77.1653 307.862 75.6472 307.026 74.3705Z" fill="#F478AF"/>
<path d="M223.98 124.217C218.229 120.862 212.169 118.066 205.885 115.866C203.742 115.135 201.613 114.488 199.477 113.881C199.12 113.784 198.756 113.717 198.388 113.682C198.04 113.546 197.683 113.433 197.32 113.344C196.217 113.082 195.142 112.834 194.639 112.772C192.9 112.311 191.132 111.965 189.347 111.738C188.054 111.474 186.747 111.277 185.434 111.146C183.277 110.849 181.113 110.629 178.901 110.457C174.492 110.16 170.067 110.16 165.657 110.457C161.691 110.723 157.743 111.215 153.833 111.931C151.408 112.372 149.01 112.889 146.639 113.475C146.255 113.572 145.879 113.701 145.516 113.861C144.999 114.026 144.138 114.26 143.201 114.515C141.513 114.977 139.666 115.501 138.694 115.845C136.538 116.596 134.45 117.34 132.348 118.243C130.129 119.201 127.924 120.166 125.671 121.33C123.983 122.253 122.295 123.163 120.517 124.169C118.739 125.175 116.886 126.353 115.197 127.47C113.702 128.455 112.193 129.502 110.78 130.564C109.993 131.108 109.238 131.7 108.52 132.334C106.768 133.614 105.102 135.006 103.532 136.503C102.47 137.378 101.464 138.343 100.458 139.301L99.4799 140.231C97.9226 141.788 96.3584 143.421 94.9803 145.013C93.4575 146.695 92.0035 148.459 90.8459 149.988C89.8054 151.237 88.8302 152.539 87.9243 153.888C87.2298 154.786 86.5835 155.72 85.988 156.686V156.727C85.7529 157.068 85.5389 157.422 85.3472 157.788C84.7541 159.015 84.5377 160.389 84.7254 161.738C84.913 163.087 85.4963 164.35 86.4015 165.368C93.1696 172.921 102.476 177.726 112.553 178.869C122.63 180.012 132.777 177.415 141.065 171.57C144.913 176.091 149.694 179.726 155.08 182.224C160.466 184.723 166.328 186.027 172.266 186.047C175.022 186.064 177.772 185.775 180.465 185.186C181.563 184.938 182.584 184.426 183.438 183.693C184.292 182.96 184.953 182.03 185.365 180.982C192.801 162.108 206.4 146.302 223.952 136.131C224.995 135.525 225.86 134.656 226.461 133.61C227.063 132.565 227.379 131.38 227.379 130.174C227.379 128.968 227.063 127.783 226.461 126.738C225.86 125.693 224.995 124.823 223.952 124.217H223.98ZM199.346 114.019C200 114.349 200.598 114.782 201.117 115.301C200.59 114.804 199.987 114.395 199.332 114.088L199.346 114.019Z" fill="#F478AF"/>
<path d="M320.414 124.141C304.702 115.092 286.886 110.332 268.754 110.339C250.621 110.347 232.81 115.121 217.105 124.184C201.4 133.247 188.353 146.279 179.274 161.975C170.195 177.67 165.402 195.477 165.375 213.609C165.375 215.437 166.101 217.19 167.393 218.482C168.685 219.774 170.438 220.5 172.266 220.5H365.203C367.031 220.5 368.783 219.774 370.076 218.482C371.368 217.19 372.094 215.437 372.094 213.609C372.06 195.479 367.269 177.674 358.2 161.975C349.132 146.275 336.102 133.23 320.414 124.141Z" fill="#FFFFAB"/>
<path d="M320.414 124.141C302.667 113.99 282.309 109.327 261.913 110.739C277.655 111.689 292.963 116.276 306.633 124.141C322.321 133.23 335.35 146.275 344.419 161.975C353.488 177.674 358.278 195.479 358.312 213.609C358.312 215.437 357.586 217.19 356.294 218.482C355.002 219.774 353.249 220.5 351.422 220.5H365.203C367.031 220.5 368.783 219.774 370.075 218.482C371.368 217.19 372.094 215.437 372.094 213.609C372.06 195.479 367.269 177.674 358.2 161.975C349.132 146.275 336.102 133.23 320.414 124.141Z" fill="#FFFFAC"/>
<path d="M355.26 157.058C341.427 135.879 320.305 120.511 295.897 113.868C295.627 113.796 295.353 113.739 295.077 113.695C294.857 113.619 294.629 113.551 294.388 113.489C277.547 109.189 259.895 109.189 243.053 113.489C242.826 113.551 242.598 113.619 242.364 113.695C242.088 113.739 241.814 113.796 241.544 113.868C217.135 120.508 196.011 135.877 182.181 157.058C181.354 158.326 180.967 159.83 181.08 161.34C181.194 162.849 181.801 164.28 182.808 165.409C189.577 172.961 198.886 177.761 208.964 178.897C219.041 180.033 229.185 177.425 237.465 171.57C241.309 176.107 246.095 179.753 251.491 182.254C256.887 184.755 262.763 186.05 268.71 186.05C274.657 186.05 280.533 184.755 285.929 182.254C291.325 179.753 296.112 176.107 299.956 171.57C308.234 177.425 318.375 180.034 328.451 178.9C338.527 177.767 347.835 172.971 354.605 165.423C355.62 164.295 356.234 162.864 356.353 161.352C356.471 159.839 356.087 158.33 355.26 157.058Z" fill="#F478AF"/>
<path d="M341.479 157.058C327.646 135.879 306.524 120.511 282.116 113.868C281.846 113.796 281.572 113.739 281.296 113.695C281.075 113.619 280.848 113.551 280.607 113.489C263.765 109.189 246.113 109.189 229.272 113.489C229.044 113.551 228.817 113.619 228.583 113.695C228.307 113.739 228.033 113.796 227.763 113.868C203.353 120.508 182.23 135.877 168.4 157.058C167.573 158.326 167.186 159.83 167.299 161.34C167.412 162.849 168.02 164.28 169.027 165.409C175.796 172.961 185.105 177.761 195.182 178.897C205.26 180.033 215.403 177.425 223.683 171.57C227.528 176.107 232.314 179.753 237.71 182.254C243.106 184.755 248.982 186.05 254.929 186.05C260.876 186.05 266.752 184.755 272.148 182.254C277.544 179.753 282.33 176.107 286.175 171.57C294.453 177.425 304.594 180.034 314.669 178.9C324.745 177.767 334.053 172.971 340.824 165.423C341.839 164.295 342.453 162.864 342.571 161.352C342.69 159.839 342.306 158.33 341.479 157.058Z" fill="#F478AF"/>
<path d="M355.26 157.058C341.427 135.879 320.305 120.511 295.897 113.868C295.627 113.796 295.353 113.739 295.077 113.695C294.857 113.62 294.629 113.551 294.388 113.489C283.764 110.791 272.781 109.786 261.844 110.512C268.179 110.939 274.464 111.935 280.621 113.489C280.848 113.551 281.075 113.62 281.31 113.695C281.586 113.739 281.86 113.796 282.13 113.868C306.538 120.511 327.66 135.879 341.492 157.058C342.321 158.326 342.709 159.833 342.596 161.343C342.483 162.854 341.874 164.286 340.865 165.416C334.611 172.367 326.18 176.984 316.955 178.509C323.833 179.731 330.909 179.17 337.508 176.878C344.107 174.586 350.008 170.639 354.647 165.416C355.654 164.284 356.259 162.852 356.37 161.341C356.481 159.83 356.091 158.325 355.26 157.058Z" fill="#F693BF"/>
<path d="M307.026 74.3705C293.193 53.1917 272.071 37.8238 247.663 31.1801C247.393 31.1088 247.119 31.0514 246.843 31.0078C246.622 30.932 246.395 30.8631 246.154 30.8011C235.53 28.1031 224.547 27.0985 213.609 27.8244C219.945 28.2517 226.229 29.248 232.386 30.8011C232.614 30.8631 232.841 30.932 233.075 31.0078C233.351 31.0514 233.625 31.1088 233.895 31.1801C258.303 37.8238 279.425 53.1917 293.258 74.3705C294.087 75.6388 294.475 77.145 294.362 78.656C294.248 80.167 293.64 81.5984 292.631 82.7289C286.377 89.6792 277.945 94.2961 268.721 95.821C275.598 97.0439 282.675 96.4824 289.274 94.1903C295.873 91.8981 301.773 87.952 306.412 82.7289C307.419 81.5968 308.025 80.1646 308.136 78.6536C308.247 77.1427 307.856 75.6374 307.026 74.3705Z" fill="#F693BF"/>
<path d="M186.047 68.9062C189.852 68.9062 192.938 65.8212 192.938 62.0156C192.938 58.21 189.852 55.125 186.047 55.125C182.241 55.125 179.156 58.21 179.156 62.0156C179.156 65.8212 182.241 68.9062 186.047 68.9062Z" fill="#D16796"/>
<path d="M220.5 75.6039C224.306 75.6039 227.391 72.5189 227.391 68.7133C227.391 64.9077 224.306 61.8227 220.5 61.8227C216.694 61.8227 213.609 64.9077 213.609 68.7133C213.609 72.5189 216.694 75.6039 220.5 75.6039Z" fill="#D16796"/>
<path d="M254.953 68.9062C258.759 68.9062 261.844 65.8212 261.844 62.0156C261.844 58.21 258.759 55.125 254.953 55.125C251.148 55.125 248.062 58.21 248.062 62.0156C248.062 65.8212 251.148 68.9062 254.953 68.9062Z" fill="#D16796"/>
<path d="M234.281 151.594C238.087 151.594 241.172 148.509 241.172 144.703C241.172 140.898 238.087 137.812 234.281 137.812C230.476 137.812 227.391 140.898 227.391 144.703C227.391 148.509 230.476 151.594 234.281 151.594Z" fill="#D16796"/>
<path d="M268.734 158.291C272.54 158.291 275.625 155.206 275.625 151.401C275.625 147.595 272.54 144.51 268.734 144.51C264.929 144.51 261.844 147.595 261.844 151.401C261.844 155.206 264.929 158.291 268.734 158.291Z" fill="#D16796"/>
<path d="M303.188 151.594C306.993 151.594 310.078 148.509 310.078 144.703C310.078 140.898 306.993 137.812 303.188 137.812C299.382 137.812 296.297 140.898 296.297 144.703C296.297 148.509 299.382 151.594 303.188 151.594Z" fill="#D16796"/>
<path d="M137.812 151.594C141.618 151.594 144.703 148.509 144.703 144.703C144.703 140.898 141.618 137.812 137.812 137.812C134.007 137.812 130.922 140.898 130.922 144.703C130.922 148.509 134.007 151.594 137.812 151.594Z" fill="#D16796"/>
<path d="M172.266 158.291C176.071 158.291 179.156 155.206 179.156 151.401C179.156 147.595 176.071 144.51 172.266 144.51C168.46 144.51 165.375 147.595 165.375 151.401C165.375 155.206 168.46 158.291 172.266 158.291Z" fill="#D16796"/>
<path d="M358.244 255.78L336.952 434.936C336.75 436.605 335.945 438.143 334.689 439.26C333.432 440.376 331.811 440.995 330.13 441H110.87C109.189 440.995 107.568 440.376 106.311 439.26C105.055 438.143 104.25 436.605 104.048 434.936L99.8451 399.656L98.1914 385.875L96.6066 372.094L94.9528 358.312L82.7564 255.78C82.6193 254.818 82.6965 253.837 82.9823 252.908C83.2682 251.979 83.7558 251.124 84.4101 250.405C85.0503 249.664 85.8441 249.07 86.7364 248.665C87.6288 248.261 88.5984 248.055 89.5781 248.063H351.422C352.402 248.055 353.371 248.261 354.264 248.665C355.156 249.07 355.95 249.664 356.59 250.405C357.244 251.124 357.732 251.979 358.018 252.908C358.304 253.837 358.381 254.818 358.244 255.78Z" fill="#AA7B50"/>
<path d="M356.59 250.405C355.95 249.664 355.156 249.07 354.264 248.665C353.371 248.261 352.402 248.055 351.422 248.063H337.641C338.62 248.055 339.59 248.261 340.482 248.665C341.375 249.07 342.168 249.664 342.809 250.405C343.463 251.124 343.951 251.979 344.236 252.908C344.522 253.837 344.599 254.818 344.462 255.78L323.17 434.936C322.969 436.605 322.164 438.143 320.907 439.26C319.651 440.376 318.03 440.995 316.349 441H330.13C331.811 440.995 333.432 440.376 334.689 439.26C335.945 438.143 336.75 436.605 336.952 434.936L358.244 255.78C358.381 254.818 358.304 253.837 358.018 252.908C357.732 251.979 357.244 251.124 356.59 250.405Z" fill="#BB9573"/>
<path d="M378.984 206.719H62.0156C58.21 206.719 55.125 209.804 55.125 213.609V254.953C55.125 258.759 58.21 261.844 62.0156 261.844H378.984C382.79 261.844 385.875 258.759 385.875 254.953V213.609C385.875 209.804 382.79 206.719 378.984 206.719Z" fill="#C73B40"/>
<path d="M378.984 206.719H365.203C367.031 206.719 368.783 207.445 370.076 208.737C371.368 210.029 372.094 211.782 372.094 213.609V254.953C372.094 256.781 371.368 258.533 370.076 259.826C368.783 261.118 367.031 261.844 365.203 261.844H378.984C380.812 261.844 382.565 261.118 383.857 259.826C385.149 258.533 385.875 256.781 385.875 254.953V213.609C385.875 211.782 385.149 210.029 383.857 208.737C382.565 207.445 380.812 206.719 378.984 206.719Z" fill="#D26266"/>
<path d="M186.047 392.766C186.047 394.593 185.321 396.346 184.029 397.638C182.736 398.93 180.984 399.656 179.156 399.656H99.8452L98.1914 385.875H179.156C180.984 385.875 182.736 386.601 184.029 387.893C185.321 389.185 186.047 390.938 186.047 392.766Z" fill="#9E724A"/>
<path d="M158.484 365.203C158.484 367.031 157.758 368.783 156.466 370.076C155.174 371.368 153.421 372.094 151.594 372.094H96.6066L94.9529 358.312H151.594C153.421 358.312 155.174 359.038 156.466 360.331C157.758 361.623 158.484 363.376 158.484 365.203Z" fill="#9E724A"/>
<path d="M220.5 41.3438C231.917 41.3438 241.172 32.0886 241.172 20.6719C241.172 9.25511 231.917 0 220.5 0C209.083 0 199.828 9.25511 199.828 20.6719C199.828 32.0886 209.083 41.3438 220.5 41.3438Z" fill="#C73B40"/>
<path d="M220.5 0C219.344 0.0186504 218.191 0.13622 217.055 0.351422C221.878 1.13839 226.265 3.61515 229.431 7.33904C232.596 11.0629 234.335 15.7912 234.335 20.6788C234.335 25.5663 232.596 30.2946 229.431 34.0185C226.265 37.7424 221.878 40.2191 217.055 41.0061C218.191 41.2167 219.344 41.3296 220.5 41.3438C225.983 41.3438 231.24 39.1658 235.117 35.2891C238.994 31.4124 241.172 26.1544 241.172 20.6719C241.172 15.1894 238.994 9.93138 235.117 6.05465C231.24 2.17792 225.983 0 220.5 0Z" fill="#D26266"/>
</svg>
