<svg width="136" height="126" viewBox="0 0 136 126" fill="none" xmlns="http://www.w3.org/2000/svg">
<path d="M69.0731 35.4914C67.2995 34.5328 65.4309 33.7338 63.4929 33.1053L63.4419 33.0915C62.8193 32.9045 62.1669 32.7214 61.5081 32.556C61.3622 32.5085 61.2132 32.4697 61.0619 32.4399C60.683 32.3389 60.2985 32.2568 59.9101 32.1938C59.4079 32.0755 58.8984 31.9855 58.3844 31.924C57.9854 31.8486 57.5826 31.7921 57.1774 31.7547C56.5123 31.6701 55.845 31.6071 55.1629 31.5579C53.8185 31.4755 52.4698 31.4755 51.1254 31.5579C49.8883 31.6229 48.6574 31.7643 47.4406 31.9811C46.6926 32.1071 45.9531 32.2548 45.4304 32.3847C45.205 32.4132 44.983 32.4613 44.7674 32.5284C44.0725 32.6978 43.401 32.8927 42.772 33.0994C42.1069 33.314 41.463 33.5266 40.8149 33.7845C40.1306 34.0582 39.4506 34.3338 38.7558 34.6665C38.2351 34.9303 37.7145 35.1902 37.1663 35.4776C36.618 35.7651 36.0464 36.1017 35.5258 36.4207C35.0646 36.7022 34.5993 37.0015 34.1636 37.3046C33.9207 37.4603 33.6879 37.6293 33.4666 37.8106C32.9263 38.1762 32.4124 38.574 31.9281 39.0017C31.6009 39.2517 31.2906 39.5274 30.9804 39.801L30.6786 40.0668C30.1984 40.5117 29.716 40.9783 29.291 41.4331C28.8214 41.9135 28.373 42.4175 28.016 42.8545C27.6951 43.2113 27.3944 43.5833 27.115 43.9689C26.9009 44.2253 26.7015 44.4921 26.5179 44.7682V44.78C26.4966 44.8075 26.4754 44.8371 26.4541 44.8686C23.0536 49.6702 21.2446 55.2891 21.25 61.032C21.25 61.5542 21.4739 62.0549 21.8724 62.4241C22.2709 62.7933 22.8114 63.0008 23.375 63.0008H53.125C53.6886 63.0008 54.2291 62.7933 54.6276 62.4241C55.0261 62.0549 55.25 61.5542 55.25 61.032C55.2398 57.8401 55.8889 54.6758 57.1625 51.71C59.4558 46.3174 63.6495 41.8014 69.0625 38.8954C69.384 38.7222 69.6509 38.4739 69.8363 38.1752C70.0218 37.8765 70.1194 37.538 70.1194 37.1934C70.1194 36.8488 70.0218 36.5103 69.8363 36.2116C69.6509 35.913 69.384 35.6646 69.0625 35.4914H69.0731Z" fill="#FFFFAB"/>
<path d="M94.6837 21.2489C90.4034 15.1832 83.8662 10.7865 76.3152 8.89497C76.2706 8.88316 76.2005 8.86347 76.1133 8.84575C76.0436 8.82498 75.9726 8.8079 75.9008 8.79456H75.8775C70.7122 7.5789 65.3008 7.5789 60.1355 8.79456L59.9995 8.82409L59.9485 8.83787C59.821 8.86347 59.7147 8.89103 59.6276 8.91269C52.924 10.6031 47.0001 14.2764 42.7575 19.3734C38.5149 24.4705 36.186 30.7122 36.1251 37.1485C36.1217 37.4956 36.2174 37.8373 36.4026 38.1391C36.5877 38.4408 36.8557 38.6919 37.1793 38.8668C37.5029 39.0417 37.8707 39.1342 38.2453 39.135C38.6199 39.1357 38.9881 39.0447 39.3126 38.8712C43.5231 36.6595 48.2813 35.4985 53.1215 35.502C57.9617 35.5054 62.718 36.6731 66.9248 38.8908C67.2494 39.0658 67.6182 39.158 67.9937 39.158C68.3692 39.158 68.738 39.0658 69.0626 38.8908C73.2696 36.6735 78.0258 35.506 82.8659 35.5026C87.706 35.4991 92.4642 36.6598 96.6748 38.8712C96.9993 39.0447 97.3675 39.1357 97.7421 39.135C98.1168 39.1342 98.4845 39.0417 98.8081 38.8668C99.1318 38.6919 99.3997 38.4408 99.5848 38.1391C99.77 37.8373 99.8657 37.4956 99.8623 37.1485C99.8123 31.4989 98.015 25.9811 94.6837 21.2489Z" fill="#FFFFB5"/>
<path d="M94.6835 21.2487C90.4177 15.1976 83.9038 10.8068 76.3767 8.90859C76.2933 8.88823 76.2089 8.87181 76.1238 8.85937C76.0558 8.83771 75.9857 8.81802 75.9113 8.80031C70.7175 7.57177 65.2738 7.57177 60.08 8.80031C60.0099 8.81802 59.9398 8.83771 59.8675 8.85937C59.7953 8.88102 59.6954 8.8889 59.6104 8.90859C52.0837 10.8066 45.5704 15.1975 41.3057 21.2487C41.0505 21.6109 40.9312 22.0408 40.9662 22.4721C41.0011 22.9034 41.1884 23.312 41.499 23.6348C43.5863 25.7929 46.4563 27.1656 49.564 27.4922C52.6717 27.8188 55.8007 27.0767 58.3567 25.4067C59.5424 26.7026 61.0184 27.7437 62.6823 28.4577C64.3461 29.1718 66.1578 29.5417 67.9914 29.5417C69.8251 29.5417 71.6367 29.1718 73.3006 28.4577C74.9644 27.7437 76.4404 26.7026 77.6262 25.4067C80.179 27.0796 83.3064 27.825 86.4137 27.5012C89.521 27.1774 92.3915 25.807 94.4795 23.6506C94.7958 23.3277 94.9875 22.9166 95.0244 22.4819C95.0613 22.0472 94.9414 21.6135 94.6835 21.2487Z" fill="#F478AF"/>
<path d="M69.0731 35.4912C67.2995 34.5326 65.4308 33.7336 63.4928 33.1051C62.8319 32.8964 62.1753 32.7113 61.5166 32.5381C61.4066 32.5103 61.2943 32.4912 61.1808 32.481C61.0734 32.4422 60.9634 32.41 60.8514 32.3845C60.5114 32.3097 60.1799 32.2388 60.0248 32.2211C59.4885 32.0892 58.9433 31.9906 58.3928 31.9258C57.9938 31.8504 57.591 31.7939 57.1858 31.7565C56.5207 31.6718 55.8534 31.6088 55.1713 31.5596C53.8114 31.4749 52.4469 31.4749 51.0871 31.5596C49.8639 31.6357 48.6464 31.7763 47.4406 31.9809C46.6926 32.1069 45.9531 32.2546 45.2221 32.4219C45.1035 32.4498 44.9877 32.4866 44.8757 32.5321C44.7163 32.5794 44.4507 32.6463 44.1617 32.7192C43.6411 32.8511 43.0716 33.0007 42.7719 33.0991C42.1068 33.3137 41.4629 33.5264 40.8148 33.7843C40.1306 34.0579 39.4506 34.3336 38.7557 34.6663C38.2351 34.9301 37.7144 35.19 37.1662 35.4774C36.6179 35.7648 36.0463 36.1015 35.5257 36.4204C35.0646 36.702 34.5992 37.0012 34.1636 37.3044C33.9206 37.4601 33.6878 37.629 33.4666 37.8104C32.9263 38.1759 32.4123 38.5738 31.9281 39.0015C31.6008 39.2515 31.2906 39.5271 30.9803 39.8008L30.6786 40.0666C30.1983 40.5115 29.7159 40.9781 29.2909 41.4329C28.8213 41.9132 28.3729 42.4172 28.0159 42.8543C27.695 43.2111 27.3943 43.583 27.1149 43.9686C26.9008 44.2251 26.7015 44.4919 26.5178 44.7679V44.7797C26.4453 44.877 26.3793 44.9782 26.3202 45.0829C26.1373 45.4333 26.0706 45.826 26.1284 46.2114C26.1863 46.5969 26.3662 46.9578 26.6453 47.2486C28.7325 49.4066 31.6025 50.7793 34.7103 51.1059C37.818 51.4326 40.9469 50.6904 43.5029 49.0204C44.6897 50.3122 46.1642 51.3507 47.8251 52.0647C49.486 52.7787 51.294 53.1512 53.1249 53.1568C53.9751 53.1616 54.8232 53.0791 55.6537 52.9107C55.9922 52.84 56.3069 52.6936 56.5703 52.4843C56.8337 52.2749 57.0377 52.009 57.1646 51.7097C59.4579 46.3171 63.6516 41.8011 69.0646 38.8952C69.3861 38.722 69.6529 38.4736 69.8384 38.1749C70.0238 37.8763 70.1215 37.5377 70.1215 37.1932C70.1215 36.8486 70.0238 36.5101 69.8384 36.2114C69.6529 35.9127 69.3861 35.6644 69.0646 35.4912H69.0731ZM61.4762 32.5774C61.6781 32.6718 61.8625 32.7954 62.0223 32.9436C61.8599 32.8018 61.6741 32.6848 61.4719 32.5971L61.4762 32.5774Z" fill="#F478AF"/>
<path d="M98.8125 35.4689C93.9669 32.8832 88.4728 31.5233 82.8809 31.5254C77.2891 31.5275 71.7962 32.8917 66.9529 35.4811C62.1096 38.0704 58.0863 41.794 55.2863 46.2784C52.4864 50.7629 51.0082 55.8505 51 61.0311C51 61.5533 51.2239 62.054 51.6224 62.4233C52.0209 62.7925 52.5614 62.9999 53.125 62.9999H112.625C113.189 62.9999 113.729 62.7925 114.128 62.4233C114.526 62.054 114.75 61.5533 114.75 61.0311C114.739 55.851 113.262 50.764 110.465 46.2784C107.669 41.7928 103.651 38.0655 98.8125 35.4689Z" fill="#FFFFAB"/>
<path d="M98.8125 35.4682C93.3394 32.5679 87.0613 31.2354 80.7712 31.639C85.6261 31.9102 90.3468 33.221 94.5625 35.4682C99.4006 38.0648 103.419 41.7921 106.215 46.2777C109.012 50.7633 110.489 55.8503 110.5 61.0305C110.5 61.5526 110.276 62.0534 109.878 62.4226C109.479 62.7918 108.939 62.9992 108.375 62.9992H112.625C113.189 62.9992 113.729 62.7918 114.128 62.4226C114.526 62.0534 114.75 61.5526 114.75 61.0305C114.739 55.8503 113.262 50.7633 110.465 46.2777C107.669 41.7921 103.651 38.0648 98.8125 35.4682Z" fill="#FFFFAC"/>
<path d="M109.559 44.8737C105.293 38.8226 98.7789 34.4318 91.2517 32.5336C91.1684 32.5132 91.084 32.4968 90.9989 32.4844C90.9309 32.4627 90.8607 32.443 90.7864 32.4253C85.5926 31.1968 80.1489 31.1968 74.9551 32.4253C74.885 32.443 74.8149 32.4627 74.7426 32.4844C74.6575 32.4968 74.5731 32.5132 74.4897 32.5336C66.9621 34.431 60.448 38.822 56.1829 44.8737C55.9277 45.2359 55.8084 45.6658 55.8434 46.0971C55.8783 46.5284 56.0656 46.937 56.3762 47.2598C58.4638 49.4174 61.3344 50.7889 64.4422 51.1134C67.5501 51.4379 70.6782 50.6929 73.2317 49.0199C74.4173 50.3164 75.8934 51.3581 77.5574 52.0725C79.2215 52.787 81.0335 53.1571 82.8675 53.1571C84.7016 53.1571 86.5136 52.787 88.1777 52.0725C89.8417 51.3581 91.3178 50.3164 92.5034 49.0199C95.0562 50.6928 98.1836 51.4382 101.291 51.1144C104.398 50.7906 107.269 49.4202 109.357 47.2638C109.67 46.9416 109.859 46.5326 109.896 46.1005C109.932 45.6683 109.814 45.2371 109.559 44.8737Z" fill="#F478AF"/>
<path d="M105.309 44.8737C101.043 38.8226 94.5289 34.4318 87.0017 32.5336C86.9184 32.5132 86.834 32.4968 86.7489 32.4844C86.6809 32.4627 86.6107 32.443 86.5364 32.4253C81.3426 31.1968 75.8989 31.1968 70.7051 32.4253C70.635 32.443 70.5649 32.4627 70.4926 32.4844C70.4075 32.4968 70.3231 32.5132 70.2397 32.5336C62.7121 34.431 56.198 38.822 51.9329 44.8737C51.6777 45.2359 51.5584 45.6658 51.5934 46.0971C51.6283 46.5284 51.8156 46.937 52.1262 47.2598C54.2138 49.4174 57.0844 50.7889 60.1922 51.1134C63.3001 51.4379 66.4282 50.6929 68.9817 49.0199C70.1673 50.3164 71.6434 51.3581 73.3074 52.0725C74.9715 52.787 76.7835 53.1571 78.6175 53.1571C80.4516 53.1571 82.2636 52.787 83.9277 52.0725C85.5917 51.3581 87.0678 50.3164 88.2534 49.0199C90.8062 50.6928 93.9336 51.4382 97.0409 51.1144C100.148 50.7906 103.019 49.4202 105.107 47.2638C105.42 46.9416 105.609 46.5326 105.646 46.1005C105.682 45.6683 105.564 45.2371 105.309 44.8737Z" fill="#F478AF"/>
<path d="M109.559 44.874C105.293 38.8229 98.7789 34.4321 91.2518 32.5339C91.1684 32.5135 91.084 32.4971 90.9989 32.4847C90.9309 32.463 90.8607 32.4433 90.7864 32.4256C87.51 31.6547 84.1229 31.3677 80.75 31.5751C82.7038 31.6972 84.6418 31.9819 86.5406 32.4256C86.6107 32.4433 86.6809 32.463 86.7531 32.4847C86.8383 32.4971 86.9227 32.5135 87.006 32.5339C94.5332 34.4321 101.047 38.8229 105.313 44.874C105.569 45.2364 105.688 45.6667 105.653 46.0984C105.618 46.5301 105.431 46.9391 105.119 47.2621C103.191 49.2479 100.591 50.567 97.7458 51.0027C99.8668 51.3521 102.049 51.1917 104.084 50.5368C106.119 49.8819 107.939 48.7544 109.369 47.2621C109.68 46.9387 109.867 46.5295 109.901 46.0978C109.935 45.6661 109.815 45.236 109.559 44.874Z" fill="#F693BF"/>
<path d="M94.6836 21.249C90.4178 15.1979 83.9039 10.8071 76.3768 8.90889C76.2934 8.88854 76.209 8.87211 76.1239 8.85967C76.0559 8.83802 75.9857 8.81833 75.9114 8.80061C72.635 8.02974 69.2479 7.74271 65.875 7.95011C67.8288 8.07222 69.7668 8.35687 71.6656 8.80061C71.7357 8.81833 71.8059 8.83802 71.8781 8.85967C71.9633 8.87211 72.0477 8.88854 72.131 8.90889C79.6582 10.8071 86.172 15.1979 90.4379 21.249C90.6935 21.6114 90.8131 22.0417 90.7782 22.4734C90.7432 22.9051 90.5556 23.3141 90.2445 23.6371C88.3158 25.6229 85.7156 26.942 82.8708 27.3777C84.9918 27.7271 87.1741 27.5667 89.2092 26.9118C91.2442 26.2569 93.0639 25.1294 94.4945 23.6371C94.805 23.3137 94.9918 22.9045 95.026 22.4728C95.0602 22.0411 94.9398 21.611 94.6836 21.249Z" fill="#F693BF"/>
<path d="M57.375 19.6875C58.5486 19.6875 59.5 18.8061 59.5 17.7188C59.5 16.6314 58.5486 15.75 57.375 15.75C56.2014 15.75 55.25 16.6314 55.25 17.7188C55.25 18.8061 56.2014 19.6875 57.375 19.6875Z" fill="#D16796"/>
<path d="M68 21.6016C69.1736 21.6016 70.125 20.7201 70.125 19.6328C70.125 18.5455 69.1736 17.6641 68 17.6641C66.8264 17.6641 65.875 18.5455 65.875 19.6328C65.875 20.7201 66.8264 21.6016 68 21.6016Z" fill="#D16796"/>
<path d="M78.625 19.6875C79.7986 19.6875 80.75 18.8061 80.75 17.7188C80.75 16.6314 79.7986 15.75 78.625 15.75C77.4514 15.75 76.5 16.6314 76.5 17.7188C76.5 18.8061 77.4514 19.6875 78.625 19.6875Z" fill="#D16796"/>
<path d="M72.25 43.3125C73.4236 43.3125 74.375 42.4311 74.375 41.3438C74.375 40.2564 73.4236 39.375 72.25 39.375C71.0764 39.375 70.125 40.2564 70.125 41.3438C70.125 42.4311 71.0764 43.3125 72.25 43.3125Z" fill="#D16796"/>
<path d="M82.875 45.2266C84.0486 45.2266 85 44.3451 85 43.2578C85 42.1705 84.0486 41.2891 82.875 41.2891C81.7014 41.2891 80.75 42.1705 80.75 43.2578C80.75 44.3451 81.7014 45.2266 82.875 45.2266Z" fill="#D16796"/>
<path d="M93.5 43.3125C94.6736 43.3125 95.625 42.4311 95.625 41.3438C95.625 40.2564 94.6736 39.375 93.5 39.375C92.3264 39.375 91.375 40.2564 91.375 41.3438C91.375 42.4311 92.3264 43.3125 93.5 43.3125Z" fill="#D16796"/>
<path d="M42.5 43.3125C43.6736 43.3125 44.625 42.4311 44.625 41.3438C44.625 40.2564 43.6736 39.375 42.5 39.375C41.3264 39.375 40.375 40.2564 40.375 41.3438C40.375 42.4311 41.3264 43.3125 42.5 43.3125Z" fill="#D16796"/>
<path d="M53.125 45.2266C54.2986 45.2266 55.25 44.3451 55.25 43.2578C55.25 42.1705 54.2986 41.2891 53.125 41.2891C51.9514 41.2891 51 42.1705 51 43.2578C51 44.3451 51.9514 45.2266 53.125 45.2266Z" fill="#D16796"/>
<path d="M110.479 73.0801L103.913 124.268C103.85 124.744 103.602 125.184 103.215 125.503C102.827 125.822 102.327 125.999 101.809 126H34.1913C33.6729 125.999 33.1729 125.822 32.7854 125.503C32.398 125.184 32.1498 124.744 32.0876 124.268L30.7913 114.188L30.2813 110.25L29.7926 106.313L29.2826 102.375L25.5213 73.0801C25.479 72.8051 25.5028 72.5249 25.591 72.2594C25.6792 71.994 25.8295 71.7498 26.0313 71.5444C26.2287 71.3325 26.4735 71.1629 26.7487 71.0473C27.0239 70.9317 27.3229 70.873 27.6251 70.8751H108.375C108.677 70.873 108.976 70.9317 109.251 71.0473C109.527 71.1629 109.771 71.3325 109.969 71.5444C110.171 71.7498 110.321 71.994 110.409 72.2594C110.497 72.5249 110.521 72.8051 110.479 73.0801Z" fill="#AA7B50"/>
<path d="M109.969 71.5444C109.771 71.3325 109.527 71.1629 109.251 71.0473C108.976 70.9317 108.677 70.873 108.375 70.8751H104.125C104.427 70.873 104.726 70.9317 105.001 71.0473C105.277 71.1629 105.521 71.3325 105.719 71.5444C105.921 71.7498 106.071 71.994 106.159 72.2594C106.247 72.5249 106.271 72.8051 106.229 73.0801L99.6626 124.268C99.6004 124.744 99.3522 125.184 98.9647 125.503C98.5773 125.822 98.0772 125.999 97.5588 126H101.809C102.327 125.999 102.827 125.822 103.215 125.503C103.602 125.184 103.85 124.744 103.913 124.268L110.479 73.0801C110.521 72.8051 110.497 72.5249 110.409 72.2594C110.321 71.994 110.171 71.7498 109.969 71.5444Z" fill="#BB9573"/>
<path d="M116.875 59.0625H19.125C17.9514 59.0625 17 59.9439 17 61.0312V72.8438C17 73.9311 17.9514 74.8125 19.125 74.8125H116.875C118.049 74.8125 119 73.9311 119 72.8438V61.0312C119 59.9439 118.049 59.0625 116.875 59.0625Z" fill="#C73B40"/>
<path d="M116.875 59.0625H112.625C113.189 59.0625 113.729 59.2699 114.128 59.6391C114.526 60.0083 114.75 60.5091 114.75 61.0312V72.8438C114.75 73.3659 114.526 73.8667 114.128 74.2359C113.729 74.6051 113.189 74.8125 112.625 74.8125H116.875C117.439 74.8125 117.979 74.6051 118.378 74.2359C118.776 73.8667 119 73.3659 119 72.8438V61.0312C119 60.5091 118.776 60.0083 118.378 59.6391C117.979 59.2699 117.439 59.0625 116.875 59.0625Z" fill="#D26266"/>
<path d="M57.375 112.219C57.375 112.741 57.1511 113.242 56.7526 113.611C56.3541 113.98 55.8136 114.188 55.25 114.188H30.7912L30.2812 110.25H55.25C55.8136 110.25 56.3541 110.457 56.7526 110.827C57.1511 111.196 57.375 111.697 57.375 112.219Z" fill="#9E724A"/>
<path d="M48.875 104.344C48.875 104.866 48.6511 105.367 48.2526 105.736C47.8541 106.105 47.3136 106.312 46.75 106.312H29.7925L29.2825 102.375H46.75C47.3136 102.375 47.8541 102.582 48.2526 102.952C48.6511 103.321 48.875 103.822 48.875 104.344Z" fill="#9E724A"/>
<path d="M68 11.8125C71.5208 11.8125 74.375 9.16818 74.375 5.90625C74.375 2.64432 71.5208 0 68 0C64.4792 0 61.625 2.64432 61.625 5.90625C61.625 9.16818 64.4792 11.8125 68 11.8125Z" fill="#C73B40"/>
<path d="M68 0C67.6434 0.00532868 67.2879 0.03892 66.9375 0.100406C68.4251 0.325253 69.7779 1.0329 70.7542 2.09687C71.7304 3.16083 72.2664 4.51177 72.2664 5.90822C72.2664 7.30467 71.7304 8.6556 70.7542 9.71957C69.7779 10.7835 68.4251 11.4912 66.9375 11.716C67.288 11.7762 67.6435 11.8085 68 11.8125C69.6908 11.8125 71.3123 11.1902 72.5078 10.0826C73.7033 8.97496 74.375 7.47268 74.375 5.90625C74.375 4.33982 73.7033 2.83754 72.5078 1.7299C71.3123 0.622264 69.6908 0 68 0Z" fill="#D26266"/>
</svg>
