<svg width="415" height="415" viewBox="0 0 415 415" fill="none" xmlns="http://www.w3.org/2000/svg">
<path d="M244.757 312.658C237.014 322.904 223.607 327.086 211.412 323.057L115.351 291.324C103.508 287.412 95.3209 276.58 94.7886 264.119L91.8408 195.102C90.9453 174.137 111.298 158.754 131.223 165.336L271.378 211.635C290.897 218.083 298.296 241.807 285.903 258.207L244.757 312.658Z" fill="#5F4444"/>
<path d="M101.446 171.904C84.8601 187.701 92.0538 193.996 97.724 195.169C97.724 195.169 128.644 205.199 189.638 231.252C250.633 257.305 288.355 252.87 288.355 252.87C301.712 238.93 289.217 210.542 281.474 203.063C312.164 157.445 255.307 142.807 249.202 120.108C244.318 101.949 272.503 98.2336 287.205 98.646C253.341 79.3914 218.66 118.893 206.563 115.092C194.466 111.29 161.723 110.363 145.913 119.063C133.265 126.023 133.778 146.773 135.616 156.279C133.541 153.56 118.032 156.108 101.446 171.904Z" fill="#B04F61"/>
</svg>
