<svg width="202" height="114" viewBox="0 0 202 114" fill="none" xmlns="http://www.w3.org/2000/svg">
<g clip-path="url(#clip0_537_1529)">
<path d="M101 0C81.0241 0 61.4968 5.92355 44.8874 17.0216C28.2781 28.1196 15.3327 43.8936 7.68821 62.349C0.0437614 80.8043 -1.95637 101.112 1.94073 120.704C5.83784 140.296 15.4572 158.293 29.5823 172.418C43.7074 186.543 61.7038 196.162 81.2959 200.059C100.888 203.956 121.196 201.956 139.651 194.312C158.106 186.667 173.88 173.722 184.978 157.113C196.076 140.503 202 120.976 202 101C201.97 74.2224 191.319 48.5501 172.385 29.6154C153.45 10.6808 127.778 0.0300741 101 0ZM101 132.562C94.7576 132.562 88.6553 130.711 83.4648 127.243C78.2744 123.775 74.229 118.846 71.8401 113.078C69.4512 107.311 68.8261 100.965 70.044 94.8424C71.2618 88.7199 74.2679 83.096 78.682 78.6819C83.0961 74.2678 88.72 71.2618 94.8425 70.0439C100.965 68.8261 107.311 69.4511 113.078 71.84C118.846 74.2289 123.775 78.2744 127.243 83.4648C130.711 88.6552 132.563 94.7575 132.563 101C132.553 109.368 129.225 117.391 123.308 123.308C117.391 129.225 109.368 132.553 101 132.562Z" fill="#FCCB7E"/>
<path d="M192.531 101C192.521 94.0803 190.764 87.2753 187.423 81.2156C184.082 75.1558 179.266 70.0375 173.42 66.3349C173.534 65.2686 173.592 64.1972 173.594 63.125C173.583 53.9203 169.922 45.0958 163.413 38.5871C156.904 32.0784 148.08 28.4171 138.875 28.4062C137.802 28.4088 136.729 28.4667 135.662 28.5798C131.968 22.7273 126.851 17.9055 120.79 14.5639C114.729 11.2224 107.921 9.46991 101 9.46991C94.079 9.46991 87.2706 11.2224 81.2097 14.5639C75.1487 17.9055 70.0326 22.7273 66.3381 28.5798C65.2708 28.4667 64.1984 28.4088 63.1251 28.4062C53.9204 28.4171 45.0959 32.0784 38.5872 38.5871C32.0785 45.0958 28.4172 53.9203 28.4063 63.125C28.4086 64.1972 28.4666 65.2686 28.5799 66.3349C22.7267 70.0291 17.9042 75.1454 14.5622 81.2067C11.2202 87.268 9.46753 94.0768 9.46753 100.998C9.46753 107.92 11.2202 114.729 14.5622 120.79C17.9042 126.851 22.7267 131.968 28.5799 135.662C28.4667 136.729 28.4087 137.802 28.4063 138.875C28.4172 148.08 32.0785 156.904 38.5872 163.413C45.0959 169.921 53.9204 173.583 63.1251 173.594C64.1984 173.591 65.2708 173.533 66.3381 173.42C70.0326 179.273 75.1487 184.094 81.2097 187.436C87.2706 190.778 94.079 192.53 101 192.53C107.921 192.53 114.729 190.778 120.79 187.436C126.851 184.094 131.968 179.273 135.662 173.42C136.729 173.533 137.802 173.591 138.875 173.594C148.08 173.583 156.904 169.921 163.413 163.413C169.922 156.904 173.583 148.08 173.594 138.875C173.591 137.802 173.533 136.729 173.42 135.662C179.266 131.96 184.082 126.842 187.423 120.783C190.763 114.724 192.521 107.919 192.531 101ZM132.563 101C132.563 107.242 130.711 113.345 127.243 118.535C123.775 123.726 118.846 127.771 113.079 130.16C107.311 132.549 100.965 133.174 94.8425 131.956C88.72 130.738 83.0961 127.732 78.682 123.318C74.2679 118.904 71.2619 113.28 70.044 107.158C68.8262 101.035 69.4512 94.6888 71.8401 88.9215C74.229 83.1542 78.2745 78.2248 83.4649 74.7567C88.6553 71.2886 94.7576 69.4375 101 69.4375C109.368 69.4467 117.391 72.7749 123.308 78.6921C129.225 84.6092 132.553 92.6319 132.563 101Z" fill="#F478AF"/>
<path d="M186.219 101C186.208 94.0803 184.451 87.2753 181.111 81.2156C177.77 75.1558 172.953 70.0375 167.108 66.3349C167.221 65.2686 167.279 64.1972 167.281 63.125C167.27 53.9203 163.609 45.0958 157.1 38.5871C150.592 32.0784 141.767 28.4171 132.563 28.4062C131.489 28.4088 130.417 28.4667 129.349 28.5798C125.655 22.7273 120.539 17.9055 114.478 14.5639C108.417 11.2224 101.609 9.46991 94.6876 9.46991C87.7665 9.46991 80.9581 11.2224 74.8972 14.5639C68.8362 17.9055 63.7201 22.7273 60.0256 28.5798C58.9583 28.4667 57.8859 28.4088 56.8126 28.4062C47.6079 28.4171 38.7834 32.0784 32.2747 38.5871C25.766 45.0958 22.1047 53.9203 22.0938 63.125C22.0961 64.1972 22.1541 65.2686 22.2674 66.3349C16.4142 70.0291 11.5917 75.1454 8.24974 81.2067C4.90774 87.268 3.15503 94.0768 3.15503 100.998C3.15503 107.92 4.90774 114.729 8.24974 120.79C11.5917 126.851 16.4142 131.968 22.2674 135.662C22.1542 136.729 22.0962 137.802 22.0938 138.875C22.1047 148.08 25.766 156.904 32.2747 163.413C38.7834 169.921 47.6079 173.583 56.8126 173.594C57.8859 173.591 58.9583 173.533 60.0256 173.42C63.7201 179.273 68.8362 184.094 74.8972 187.436C80.9581 190.778 87.7665 192.53 94.6876 192.53C101.609 192.53 108.417 190.778 114.478 187.436C120.539 184.094 125.655 179.273 129.349 173.42C130.417 173.533 131.489 173.591 132.563 173.594C141.767 173.583 150.592 169.921 157.1 163.413C163.609 156.904 167.27 148.08 167.281 138.875C167.279 137.802 167.221 136.729 167.108 135.662C172.953 131.96 177.769 126.842 181.11 120.783C184.451 114.724 186.208 107.919 186.219 101ZM126.25 101C126.25 107.242 124.399 113.345 120.931 118.535C117.463 123.726 112.533 127.771 106.766 130.16C100.999 132.549 94.6526 133.174 88.53 131.956C82.4075 130.738 76.7836 127.732 72.3695 123.318C67.9554 118.904 64.9494 113.28 63.7315 107.158C62.5137 101.035 63.1387 94.6888 65.5276 88.9215C67.9165 83.1542 71.962 78.2248 77.1524 74.7567C82.3428 71.2886 88.4451 69.4375 94.6876 69.4375C103.056 69.4467 111.078 72.7749 116.995 78.6921C122.913 84.6092 126.241 92.6319 126.25 101Z" fill="#F478AF"/>
<path d="M192.531 101C192.521 94.0804 190.764 87.2753 187.423 81.2156C184.082 75.1559 179.266 70.0375 173.42 66.3349C173.534 65.2687 173.591 64.1972 173.594 63.125C173.583 53.9203 169.922 45.0958 163.413 38.5871C156.904 32.0785 148.08 28.4171 138.875 28.4062C137.903 28.4062 136.883 28.4662 135.813 28.5704C144.415 29.388 152.404 33.3804 158.222 39.769C164.04 46.1576 167.27 54.4843 167.281 63.125C167.279 64.1972 167.221 65.2687 167.108 66.3349C172.961 70.0292 177.783 75.1455 181.125 81.2067C184.467 87.268 186.22 94.0768 186.22 100.998C186.22 107.92 184.467 114.729 181.125 120.79C177.783 126.851 172.961 131.968 167.108 135.662C167.221 136.729 167.279 137.802 167.281 138.875C167.27 147.516 164.04 155.842 158.222 162.231C152.404 168.62 144.415 172.612 135.813 173.43C136.883 173.534 137.903 173.594 138.875 173.594C148.08 173.583 156.904 169.922 163.413 163.413C169.922 156.904 173.583 148.08 173.594 138.875C173.591 137.802 173.533 136.729 173.42 135.662C179.266 131.96 184.082 126.842 187.423 120.783C190.763 114.724 192.521 107.919 192.531 101Z" fill="#F693BF"/>
<path d="M129.349 28.5798C130.417 28.4667 131.489 28.4088 132.562 28.4062C133.604 28.4062 134.633 28.4725 135.652 28.5641C131.95 22.7225 126.833 17.9099 120.775 14.5719C114.718 11.234 107.916 9.47874 101 9.46875C99.9363 9.46875 98.8948 9.58869 97.8438 9.67075C104.203 10.1591 110.361 12.1221 115.83 15.4043C121.299 18.6865 125.927 23.1976 129.349 28.5798Z" fill="#F693BF"/>
<path d="M101 0C99.9427 0 98.8948 0.0473437 97.8438 0.0789062C124.075 0.882467 148.962 11.8674 167.232 30.7061C185.503 49.5448 195.721 74.7568 195.721 101C195.721 127.243 185.503 152.455 167.232 171.294C148.962 190.133 124.075 201.117 97.8438 201.921C98.8948 201.953 99.9427 202 101 202C127.787 202 153.477 191.359 172.418 172.418C191.359 153.477 202 127.787 202 101C202 74.2131 191.359 48.5234 172.418 29.5822C153.477 10.641 127.787 0 101 0Z" fill="#FDD598"/>
<path d="M104.156 28.4062H97.8437C97.0067 28.4062 96.2039 28.0737 95.6119 27.4818C95.02 26.8899 94.6875 26.0871 94.6875 25.25C94.6875 24.4129 95.02 23.6101 95.6119 23.0182C96.2039 22.4263 97.0067 22.0937 97.8437 22.0938H104.156C104.993 22.0938 105.796 22.4263 106.388 23.0182C106.98 23.6101 107.312 24.4129 107.312 25.25C107.312 26.0871 106.98 26.8899 106.388 27.4818C105.796 28.0737 104.993 28.4062 104.156 28.4062Z" fill="#D16796"/>
<path d="M85.2187 41.0312H78.9062C78.0692 41.0312 77.2664 40.6987 76.6744 40.1068C76.0825 39.5149 75.75 38.7121 75.75 37.875C75.75 37.0379 76.0825 36.2351 76.6744 35.6432C77.2664 35.0513 78.0692 34.7188 78.9062 34.7188H85.2187C86.0558 34.7188 86.8586 35.0513 87.4506 35.6432C88.0425 36.2351 88.375 37.0379 88.375 37.875C88.375 38.7121 88.0425 39.5149 87.4506 40.1068C86.8586 40.6987 86.0558 41.0312 85.2187 41.0312Z" fill="#D16796"/>
<path d="M123.094 41.0312H116.781C115.944 41.0312 115.141 40.6987 114.549 40.1068C113.958 39.5149 113.625 38.7121 113.625 37.875C113.625 37.0379 113.958 36.2351 114.549 35.6432C115.141 35.0513 115.944 34.7188 116.781 34.7188H123.094C123.931 34.7188 124.734 35.0513 125.326 35.6432C125.917 36.2351 126.25 37.0379 126.25 37.875C126.25 38.7121 125.917 39.5149 125.326 40.1068C124.734 40.6987 123.931 41.0312 123.094 41.0312Z" fill="#D16796"/>
<path d="M56.8125 53.6562H50.5C49.6629 53.6562 48.8601 53.3237 48.2682 52.7318C47.6763 52.1399 47.3438 51.3371 47.3438 50.5C47.3438 49.6629 47.6763 48.8601 48.2682 48.2682C48.8601 47.6763 49.6629 47.3438 50.5 47.3438H56.8125C57.6496 47.3438 58.4524 47.6763 59.0443 48.2682C59.6362 48.8601 59.9687 49.6629 59.9687 50.5C59.9687 51.3371 59.6362 52.1399 59.0443 52.7318C58.4524 53.3237 57.6496 53.6562 56.8125 53.6562Z" fill="#D16796"/>
<path d="M75.75 66.2812H69.4375C68.6004 66.2812 67.7976 65.9487 67.2057 65.3568C66.6138 64.7649 66.2812 63.9621 66.2812 63.125C66.2812 62.2879 66.6138 61.4851 67.2057 60.8932C67.7976 60.3013 68.6004 59.9688 69.4375 59.9688H75.75C76.5871 59.9688 77.3899 60.3013 77.9818 60.8932C78.5737 61.4851 78.9062 62.2879 78.9062 63.125C78.9062 63.9621 78.5737 64.7649 77.9818 65.3568C77.3899 65.9487 76.5871 66.2812 75.75 66.2812Z" fill="#D16796"/>
<path d="M151.5 53.6562H145.187C144.35 53.6562 143.548 53.3237 142.956 52.7318C142.364 52.1399 142.031 51.3371 142.031 50.5C142.031 49.6629 142.364 48.8601 142.956 48.2682C143.548 47.6763 144.35 47.3438 145.187 47.3438H151.5C152.337 47.3438 153.14 47.6763 153.732 48.2682C154.324 48.8601 154.656 49.6629 154.656 50.5C154.656 51.3371 154.324 52.1399 153.732 52.7318C153.14 53.3237 152.337 53.6562 151.5 53.6562Z" fill="#D16796"/>
<path d="M132.562 66.2812H126.25C125.413 66.2812 124.61 65.9487 124.018 65.3568C123.426 64.7649 123.094 63.9621 123.094 63.125C123.094 62.2879 123.426 61.4851 124.018 60.8932C124.61 60.3013 125.413 59.9688 126.25 59.9688H132.562C133.4 59.9688 134.202 60.3013 134.794 60.8932C135.386 61.4851 135.719 62.2879 135.719 63.125C135.719 63.9621 135.386 64.7649 134.794 65.3568C134.202 65.9487 133.4 66.2812 132.562 66.2812Z" fill="#D16796"/>
<path d="M104.156 53.6562H97.8437C97.0067 53.6562 96.2039 53.3237 95.6119 52.7318C95.02 52.1399 94.6875 51.3371 94.6875 50.5C94.6875 49.6629 95.02 48.8601 95.6119 48.2682C96.2039 47.6763 97.0067 47.3438 97.8437 47.3438H104.156C104.993 47.3438 105.796 47.6763 106.388 48.2682C106.98 48.8601 107.312 49.6629 107.312 50.5C107.312 51.3371 106.98 52.1399 106.388 52.7318C105.796 53.3237 104.993 53.6562 104.156 53.6562Z" fill="#D16796"/>
<path d="M56.8125 78.9062H50.5C49.6629 78.9062 48.8601 78.5737 48.2682 77.9818C47.6763 77.3899 47.3438 76.5871 47.3438 75.75C47.3438 74.9129 47.6763 74.1101 48.2682 73.5182C48.8601 72.9263 49.6629 72.5938 50.5 72.5938H56.8125C57.6496 72.5938 58.4524 72.9263 59.0443 73.5182C59.6362 74.1101 59.9687 74.9129 59.9687 75.75C59.9687 76.5871 59.6362 77.3899 59.0443 77.9818C58.4524 78.5737 57.6496 78.9062 56.8125 78.9062Z" fill="#D16796"/>
<path d="M37.875 91.5312H31.5625C30.7254 91.5312 29.9226 91.1987 29.3307 90.6068C28.7388 90.0149 28.4062 89.2121 28.4062 88.375C28.4062 87.5379 28.7388 86.7351 29.3307 86.1432C29.9226 85.5513 30.7254 85.2188 31.5625 85.2188H37.875C38.7121 85.2188 39.5149 85.5513 40.1068 86.1432C40.6987 86.7351 41.0312 87.5379 41.0312 88.375C41.0312 89.2121 40.6987 90.0149 40.1068 90.6068C39.5149 91.1987 38.7121 91.5312 37.875 91.5312Z" fill="#D16796"/>
<path d="M56.8125 104.156H50.5C49.6629 104.156 48.8601 103.824 48.2682 103.232C47.6763 102.64 47.3438 101.837 47.3438 101C47.3438 100.163 47.6763 99.3601 48.2682 98.7682C48.8601 98.1763 49.6629 97.8438 50.5 97.8438H56.8125C57.6496 97.8438 58.4524 98.1763 59.0443 98.7682C59.6362 99.3601 59.9687 100.163 59.9687 101C59.9687 101.837 59.6362 102.64 59.0443 103.232C58.4524 103.824 57.6496 104.156 56.8125 104.156Z" fill="#D16796"/>
<path d="M151.5 78.9062H145.187C144.35 78.9062 143.548 78.5737 142.956 77.9818C142.364 77.3899 142.031 76.5871 142.031 75.75C142.031 74.9129 142.364 74.1101 142.956 73.5182C143.548 72.9263 144.35 72.5938 145.187 72.5938H151.5C152.337 72.5938 153.14 72.9263 153.732 73.5182C154.324 74.1101 154.656 74.9129 154.656 75.75C154.656 76.5871 154.324 77.3899 153.732 77.9818C153.14 78.5737 152.337 78.9062 151.5 78.9062Z" fill="#D16796"/>
<path d="M170.437 91.5312H164.125C163.288 91.5312 162.485 91.1987 161.893 90.6068C161.301 90.0149 160.969 89.2121 160.969 88.375C160.969 87.5379 161.301 86.7351 161.893 86.1432C162.485 85.5513 163.288 85.2188 164.125 85.2188H170.437C171.275 85.2188 172.077 85.5513 172.669 86.1432C173.261 86.7351 173.594 87.5379 173.594 88.375C173.594 89.2121 173.261 90.0149 172.669 90.6068C172.077 91.1987 171.275 91.5312 170.437 91.5312Z" fill="#D16796"/>
<path d="M37.875 116.781H31.5625C30.7254 116.781 29.9226 116.449 29.3307 115.857C28.7388 115.265 28.4062 114.462 28.4062 113.625C28.4062 112.788 28.7388 111.985 29.3307 111.393C29.9226 110.801 30.7254 110.469 31.5625 110.469H37.875C38.7121 110.469 39.5149 110.801 40.1068 111.393C40.6987 111.985 41.0312 112.788 41.0312 113.625C41.0312 114.462 40.6987 115.265 40.1068 115.857C39.5149 116.449 38.7121 116.781 37.875 116.781Z" fill="#D16796"/>
<path d="M170.437 116.781H164.125C163.288 116.781 162.485 116.449 161.893 115.857C161.301 115.265 160.969 114.462 160.969 113.625C160.969 112.788 161.301 111.985 161.893 111.393C162.485 110.801 163.288 110.469 164.125 110.469H170.437C171.275 110.469 172.077 110.801 172.669 111.393C173.261 111.985 173.594 112.788 173.594 113.625C173.594 114.462 173.261 115.265 172.669 115.857C172.077 116.449 171.275 116.781 170.437 116.781Z" fill="#D16796"/>
<path d="M151.5 104.156H145.187C144.35 104.156 143.548 103.824 142.956 103.232C142.364 102.64 142.031 101.837 142.031 101C142.031 100.163 142.364 99.3601 142.956 98.7682C143.548 98.1763 144.35 97.8438 145.187 97.8438H151.5C152.337 97.8438 153.14 98.1763 153.732 98.7682C154.324 99.3601 154.656 100.163 154.656 101C154.656 101.837 154.324 102.64 153.732 103.232C153.14 103.824 152.337 104.156 151.5 104.156Z" fill="#D16796"/>
</g>
<defs>
<clipPath id="clip0_537_1529">
<rect width="202" height="114" fill="white"/>
</clipPath>
</defs>
</svg>
