<?xml version="1.0" encoding="UTF-8"?>
<svg version="1.1" xmlns="http://www.w3.org/2000/svg" width="512" height="512">
<path d="M0 0 C1.08796875 -0.04898438 2.1759375 -0.09796875 3.296875 -0.1484375 C7.20207064 0.54375326 7.96460417 2.26900077 10.25 5.375 C9.08319702 5.70540283 9.08319702 5.70540283 7.89282227 6.04248047 C-23.09736416 14.89032085 -52.20621869 25.72690251 -78.75 44.375 C-73.98065123 42.84678543 -69.27021678 41.21895437 -64.60546875 39.39453125 C23.09027969 5.11191189 118.31359436 8.81668668 204.25 46.375 C178.0084757 28.77927593 150.14993309 17.32466128 120.25 7.375 C124.27096186 1.59152924 124.27096186 1.59152924 128.53515625 0.6484375 C166.90648527 1.68013818 201.54813241 18.60264475 228.07421875 45.953125 C263.5845229 85.47985493 276.02369254 145.16595646 283.25 196.375 C283.44480957 197.73818359 283.44480957 197.73818359 283.64355469 199.12890625 C286.90707406 222.49460794 284.87983057 242.63329779 270.375 261.875 C262.55951719 270.93247815 252.74834943 276.88813182 242.25 282.375 C241.27716064 282.88595215 241.27716064 282.88595215 240.28466797 283.40722656 C223.93169036 291.86415442 206.49517515 297.04838208 188.25 299.375 C187.38101074 299.50406738 186.51202148 299.63313477 185.61669922 299.76611328 C169.79928068 302.01064586 169.79928068 302.01064586 164.33984375 298.5078125 C162.41703289 296.15577163 160.85047676 293.79906201 159.35449219 291.15917969 C157.19864304 287.67665414 154.43693566 284.6346244 151.8125 281.5 C150.78492276 280.25922389 149.76492862 279.01211474 148.75390625 277.7578125 C148.31892822 277.22559082 147.8839502 276.69336914 147.43579102 276.14501953 C145.99858468 273.99971463 145.14067977 271.79156503 144.25 269.375 C145.26030273 268.99130249 145.26030273 268.99130249 146.29101562 268.59985352 C168.47117329 260.11598101 188.83057346 251.09832218 205.25 233.375 C204.45722656 233.81328125 203.66445313 234.2515625 202.84765625 234.703125 C165.55672595 255.0770544 126.27852966 270.30970809 83.25 271.375 C82.56405762 271.39546387 81.87811523 271.41592773 81.17138672 271.43701172 C29.27876639 272.82647998 -22.85545124 258.47547506 -69.88427734 237.20654297 C-72.1480447 236.19759353 -74.43859498 235.26899032 -76.75 234.375 C-62.93811791 253.13121343 -38.92433519 262.89171322 -17.75 270.375 C-17.75 274.58419326 -20.07841201 276.68835279 -22.625 279.8125 C-23.36351196 280.73542847 -23.36351196 280.73542847 -24.11694336 281.67700195 C-28.2560875 286.828275 -32.4867534 291.90373722 -36.75390625 296.94921875 C-38.84140057 299.40338042 -38.84140057 299.40338042 -40.75 302.375 C-42.62402344 302.69213867 -42.62402344 302.69213867 -44.859375 302.60546875 C-45.66697266 302.57759277 -46.47457031 302.5497168 -47.30664062 302.52099609 C-48.11294922 302.47281738 -48.91925781 302.42463867 -49.75 302.375 C-50.43771484 302.33584473 -51.12542969 302.29668945 -51.83398438 302.25634766 C-82.68673896 300.04286649 -116.84182376 289.52530364 -138.5 266.5 C-150.42050044 252.72940426 -155.51551323 236.48267716 -154.75 218.375 C-154.32954018 213.29772863 -153.74942852 208.24312726 -153.125 203.1875 C-153.03730347 202.47113373 -152.94960693 201.75476746 -152.85925293 201.01669312 C-145.39010747 140.74913237 -130.08797952 68.9704294 -79.6875 29.375 C-56.87802816 12.08072498 -28.79131737 0.89542375 0 0 Z M-35.21484375 149.3125 C-41.66157986 157.97376378 -43.55526547 167.64486443 -42.33984375 178.296875 C-40.1799375 189.56843872 -34.45160133 198.51028337 -25.15625 205.2578125 C-15.49116214 211.28393656 -5.99490656 213.14479357 5.2890625 210.72265625 C16.06311768 207.18694518 24.29000591 200.06652698 29.46875 190.0078125 C33.93420969 180.2794896 35.14551521 169.90492644 31.625 159.5625 C26.83418742 148.21758966 19.51172834 139.6835351 7.9375 134.875 C-9.11939775 129.48607885 -24.21664416 136.08459708 -35.21484375 149.3125 Z M104.5 146.2890625 C96.4600665 156.37917905 94.28999199 166.66503475 95.25 179.375 C97.57884846 189.7550103 103.36550718 199.37666336 112.25 205.375 C122.325922 211.12154593 131.87709438 213.448002 143.484375 210.57421875 C154.91358037 206.26605973 162.87458899 198.31043853 168.17578125 187.484375 C172.41600063 177.59722839 171.96100708 167.22807036 168.05859375 157.36328125 C162.58774407 145.48244421 155.27957107 139.34149434 143.25 134.375 C128.87417223 129.72483086 114.28580135 135.58584228 104.5 146.2890625 Z " fill="#E7C9BF" transform="translate(190.75,104.625)"/>
</svg>
