<svg width="463" height="463" viewBox="0 0 463 463" fill="none" xmlns="http://www.w3.org/2000/svg">
<g clip-path="url(#clip0_537_1930)">
<path d="M231.5 0C185.714 0 140.956 13.5772 102.886 39.0148C64.8156 64.4523 35.1437 100.608 17.622 142.909C0.100305 185.21 -4.48417 231.757 4.44831 276.663C13.3808 321.57 35.429 362.819 67.8049 395.195C100.181 427.571 141.43 449.619 186.337 458.552C231.243 467.484 277.79 462.9 320.091 445.378C362.392 427.856 398.548 398.184 423.985 360.115C449.423 322.045 463 277.286 463 231.5C462.931 170.124 438.519 111.281 395.119 67.8809C351.719 24.4812 292.877 0.0689323 231.5 0ZM231.5 303.844C217.192 303.844 203.205 299.601 191.308 291.652C179.411 283.702 170.139 272.404 164.663 259.185C159.188 245.966 157.755 231.42 160.546 217.386C163.338 203.353 170.228 190.463 180.345 180.345C190.463 170.228 203.353 163.338 217.387 160.546C231.42 157.755 245.966 159.188 259.185 164.663C272.404 170.139 283.702 179.411 291.652 191.308C299.601 203.205 303.844 217.192 303.844 231.5C303.823 250.68 296.194 269.069 282.632 282.631C269.069 296.194 250.68 303.823 231.5 303.844Z" fill="#FCCB7E"/>
<path d="M441.297 231.5C441.273 215.64 437.246 200.042 429.588 186.153C421.931 172.263 410.892 160.532 397.493 152.045C397.753 149.601 397.885 147.145 397.891 144.688C397.866 123.59 389.474 103.363 374.555 88.4448C359.637 73.5264 339.41 65.1343 318.313 65.1094C315.852 65.1152 313.394 65.248 310.948 65.5073C302.48 52.0928 290.753 41.0408 276.861 33.3817C262.969 25.7226 247.364 21.7059 231.5 21.7059C215.636 21.7059 200.031 25.7226 186.139 33.3817C172.247 41.0408 160.52 52.0928 152.052 65.5073C149.606 65.248 147.148 65.1152 144.688 65.1094C123.59 65.1343 103.363 73.5264 88.4448 88.4448C73.5264 103.363 65.1343 123.59 65.1095 144.688C65.1147 147.145 65.2475 149.601 65.5073 152.045C52.0913 160.512 41.0378 172.239 33.3777 186.132C25.7176 200.025 21.7002 215.632 21.7002 231.496C21.7002 247.361 25.7176 262.968 33.3777 276.861C41.0378 290.753 52.0913 302.48 65.5073 310.948C65.2477 313.394 65.1149 315.852 65.1095 318.312C65.1343 339.41 73.5264 359.637 88.4448 374.555C103.363 389.474 123.59 397.866 144.688 397.891C147.148 397.885 149.606 397.752 152.052 397.493C160.52 410.907 172.247 421.959 186.139 429.618C200.031 437.277 215.636 441.294 231.5 441.294C247.364 441.294 262.969 437.277 276.861 429.618C290.753 421.959 302.48 410.907 310.948 397.493C313.394 397.752 315.852 397.885 318.313 397.891C339.41 397.866 359.637 389.474 374.555 374.555C389.474 359.637 397.866 339.41 397.891 318.312C397.885 315.852 397.752 313.394 397.493 310.948C410.891 302.462 421.93 290.732 429.588 276.844C437.245 262.956 441.272 247.359 441.297 231.5ZM303.844 231.5C303.844 245.808 299.601 259.795 291.652 271.692C283.702 283.589 272.404 292.861 259.185 298.337C245.966 303.812 231.42 305.245 217.387 302.454C203.353 299.662 190.463 292.772 180.345 282.655C170.228 272.537 163.338 259.647 160.546 245.614C157.755 231.58 159.188 217.034 164.663 203.815C170.139 190.596 179.411 179.298 191.308 171.348C203.205 163.399 217.192 159.156 231.5 159.156C250.68 159.177 269.069 166.806 282.632 180.369C296.194 193.931 303.823 212.32 303.844 231.5Z" fill="#F478AF"/>
<path d="M426.828 231.5C426.804 215.64 422.777 200.042 415.12 186.153C407.462 172.263 396.423 160.532 383.024 152.045C383.284 149.601 383.417 147.145 383.422 144.688C383.397 123.59 375.005 103.363 360.087 88.4448C345.168 73.5264 324.942 65.1343 303.844 65.1094C301.384 65.1152 298.926 65.248 296.479 65.5073C288.011 52.0928 276.285 41.0408 262.392 33.3817C248.5 25.7226 232.895 21.7059 217.031 21.7059C201.168 21.7059 185.562 25.7226 171.67 33.3817C157.778 41.0408 146.051 52.0928 137.583 65.5073C135.137 65.248 132.679 65.1152 130.219 65.1094C109.121 65.1343 88.8945 73.5264 73.9761 88.4448C59.0577 103.363 50.6656 123.59 50.6407 144.688C50.646 147.145 50.7788 149.601 51.0386 152.045C37.6225 160.512 26.5691 172.239 18.9089 186.132C11.2488 200.025 7.23145 215.632 7.23145 231.496C7.23145 247.361 11.2488 262.968 18.9089 276.861C26.5691 290.753 37.6225 302.48 51.0386 310.948C50.7789 313.394 50.6461 315.852 50.6407 318.312C50.6656 339.41 59.0577 359.637 73.9761 374.555C88.8945 389.474 109.121 397.866 130.219 397.891C132.679 397.885 135.137 397.752 137.583 397.493C146.051 410.907 157.778 421.959 171.67 429.618C185.562 437.277 201.168 441.294 217.031 441.294C232.895 441.294 248.5 437.277 262.392 429.618C276.285 421.959 288.011 410.907 296.479 397.493C298.926 397.752 301.384 397.885 303.844 397.891C324.942 397.866 345.168 389.474 360.087 374.555C375.005 359.637 383.397 339.41 383.422 318.312C383.416 315.852 383.284 313.394 383.024 310.948C396.422 302.462 407.462 290.732 415.119 276.844C422.776 262.956 426.804 247.359 426.828 231.5ZM289.375 231.5C289.375 245.808 285.132 259.795 277.183 271.692C269.234 283.589 257.935 292.861 244.716 298.337C231.497 303.812 216.951 305.245 202.918 302.454C188.884 299.662 175.994 292.772 165.877 282.655C155.759 272.537 148.869 259.647 146.078 245.614C143.286 231.58 144.719 217.034 150.194 203.815C155.67 190.596 164.942 179.298 176.839 171.348C188.736 163.399 202.723 159.156 217.031 159.156C236.212 159.177 254.6 166.806 268.163 180.369C281.725 193.931 289.354 212.32 289.375 231.5Z" fill="#F478AF"/>
<path d="M441.297 231.5C441.273 215.64 437.246 200.042 429.588 186.153C421.931 172.263 410.891 160.532 397.493 152.045C397.752 149.601 397.885 147.145 397.89 144.688C397.866 123.59 389.473 103.363 374.555 88.4448C359.637 73.5264 339.41 65.1343 318.312 65.1094C316.084 65.1094 313.747 65.2468 311.295 65.4856C331.011 67.3596 349.323 76.5106 362.658 91.1538C375.993 105.797 383.395 124.882 383.422 144.688C383.416 147.145 383.284 149.601 383.024 152.045C396.44 160.512 407.493 172.239 415.153 186.132C422.814 200.025 426.831 215.632 426.831 231.496C426.831 247.361 422.814 262.968 415.153 276.861C407.493 290.753 396.44 302.48 383.024 310.948C383.283 313.394 383.416 315.852 383.422 318.312C383.395 338.118 375.993 357.203 362.658 371.846C349.323 386.489 331.011 395.64 311.295 397.514C313.747 397.753 316.084 397.891 318.312 397.891C339.41 397.866 359.637 389.474 374.555 374.555C389.473 359.637 397.866 339.41 397.89 318.312C397.885 315.852 397.752 313.394 397.493 310.948C410.891 302.462 421.93 290.732 429.587 276.844C437.245 262.956 441.272 247.359 441.297 231.5Z" fill="#F693BF"/>
<path d="M296.479 65.5073C298.926 65.248 301.384 65.1152 303.844 65.1094C306.231 65.1094 308.59 65.2613 310.926 65.4711C302.439 52.0818 290.711 41.0508 276.827 33.4C262.943 25.7492 247.352 21.726 231.5 21.7031C229.062 21.7031 226.675 21.978 224.266 22.1661C238.842 23.2854 252.957 27.7849 265.491 35.3079C278.026 42.831 288.636 53.1707 296.479 65.5073Z" fill="#F693BF"/>
<path d="M303.844 397.891C301.384 397.885 298.926 397.752 296.479 397.493C288.636 409.829 278.026 420.169 265.491 427.692C252.957 435.215 238.842 439.715 224.266 440.834C226.675 441.022 229.062 441.297 231.5 441.297C247.352 441.274 262.943 437.251 276.827 429.6C290.711 421.949 302.439 410.918 310.926 397.529C308.59 397.739 306.231 397.891 303.844 397.891Z" fill="#F693BF"/>
<path d="M231.5 0C229.076 0 226.675 0.108516 224.266 0.180859C284.389 2.02268 341.433 27.2011 383.31 70.3808C425.187 113.561 448.607 171.349 448.607 231.5C448.607 291.651 425.187 349.439 383.31 392.619C341.433 435.799 284.389 460.977 224.266 462.819C226.675 462.891 229.076 463 231.5 463C292.898 463 351.781 438.61 395.195 395.195C438.61 351.781 463 292.898 463 231.5C463 170.102 438.61 111.219 395.195 67.8048C351.781 24.3901 292.898 0 231.5 0Z" fill="#FDD598"/>
<path d="M238.734 65.1094H224.266C222.347 65.1094 220.507 64.3472 219.15 62.9905C217.793 61.6338 217.031 59.7937 217.031 57.875C217.031 55.9563 217.793 54.1162 219.15 52.7595C220.507 51.4028 222.347 50.6406 224.266 50.6406H238.734C240.653 50.6406 242.493 51.4028 243.85 52.7595C245.207 54.1162 245.969 55.9563 245.969 57.875C245.969 59.7937 245.207 61.6338 243.85 62.9905C242.493 64.3472 240.653 65.1094 238.734 65.1094Z" fill="#D16796"/>
<path d="M195.328 94.0469H180.859C178.941 94.0469 177.101 93.2847 175.744 91.928C174.387 90.5713 173.625 88.7312 173.625 86.8125C173.625 84.8938 174.387 83.0537 175.744 81.697C177.101 80.3403 178.941 79.5781 180.859 79.5781H195.328C197.247 79.5781 199.087 80.3403 200.444 81.697C201.8 83.0537 202.562 84.8938 202.562 86.8125C202.562 88.7312 201.8 90.5713 200.444 91.928C199.087 93.2847 197.247 94.0469 195.328 94.0469Z" fill="#D16796"/>
<path d="M282.141 94.0469H267.672C265.753 94.0469 263.913 93.2847 262.556 91.928C261.2 90.5713 260.438 88.7312 260.438 86.8125C260.438 84.8938 261.2 83.0537 262.556 81.697C263.913 80.3403 265.753 79.5781 267.672 79.5781H282.141C284.059 79.5781 285.899 80.3403 287.256 81.697C288.613 83.0537 289.375 84.8938 289.375 86.8125C289.375 88.7312 288.613 90.5713 287.256 91.928C285.899 93.2847 284.059 94.0469 282.141 94.0469Z" fill="#D16796"/>
<path d="M130.219 122.984H115.75C113.831 122.984 111.991 122.222 110.635 120.865C109.278 119.509 108.516 117.669 108.516 115.75C108.516 113.831 109.278 111.991 110.635 110.635C111.991 109.278 113.831 108.516 115.75 108.516H130.219C132.137 108.516 133.978 109.278 135.334 110.635C136.691 111.991 137.453 113.831 137.453 115.75C137.453 117.669 136.691 119.509 135.334 120.865C133.978 122.222 132.137 122.984 130.219 122.984Z" fill="#D16796"/>
<path d="M173.625 151.922H159.156C157.238 151.922 155.397 151.16 154.041 149.803C152.684 148.446 151.922 146.606 151.922 144.688C151.922 142.769 152.684 140.929 154.041 139.572C155.397 138.215 157.238 137.453 159.156 137.453H173.625C175.544 137.453 177.384 138.215 178.74 139.572C180.097 140.929 180.859 142.769 180.859 144.688C180.859 146.606 180.097 148.446 178.74 149.803C177.384 151.16 175.544 151.922 173.625 151.922Z" fill="#D16796"/>
<path d="M347.25 122.984H332.781C330.863 122.984 329.022 122.222 327.666 120.865C326.309 119.509 325.547 117.669 325.547 115.75C325.547 113.831 326.309 111.991 327.666 110.635C329.022 109.278 330.863 108.516 332.781 108.516H347.25C349.169 108.516 351.009 109.278 352.365 110.635C353.722 111.991 354.484 113.831 354.484 115.75C354.484 117.669 353.722 119.509 352.365 120.865C351.009 122.222 349.169 122.984 347.25 122.984Z" fill="#D16796"/>
<path d="M303.844 151.922H289.375C287.456 151.922 285.616 151.16 284.26 149.803C282.903 148.446 282.141 146.606 282.141 144.688C282.141 142.769 282.903 140.929 284.26 139.572C285.616 138.215 287.456 137.453 289.375 137.453H303.844C305.762 137.453 307.603 138.215 308.959 139.572C310.316 140.929 311.078 142.769 311.078 144.688C311.078 146.606 310.316 148.446 308.959 149.803C307.603 151.16 305.762 151.922 303.844 151.922Z" fill="#D16796"/>
<path d="M238.734 122.984H224.266C222.347 122.984 220.507 122.222 219.15 120.865C217.793 119.509 217.031 117.669 217.031 115.75C217.031 113.831 217.793 111.991 219.15 110.635C220.507 109.278 222.347 108.516 224.266 108.516H238.734C240.653 108.516 242.493 109.278 243.85 110.635C245.207 111.991 245.969 113.831 245.969 115.75C245.969 117.669 245.207 119.509 243.85 120.865C242.493 122.222 240.653 122.984 238.734 122.984Z" fill="#D16796"/>
<path d="M130.219 180.859H115.75C113.831 180.859 111.991 180.097 110.635 178.74C109.278 177.384 108.516 175.544 108.516 173.625C108.516 171.706 109.278 169.866 110.635 168.51C111.991 167.153 113.831 166.391 115.75 166.391H130.219C132.137 166.391 133.978 167.153 135.334 168.51C136.691 169.866 137.453 171.706 137.453 173.625C137.453 175.544 136.691 177.384 135.334 178.74C133.978 180.097 132.137 180.859 130.219 180.859Z" fill="#D16796"/>
<path d="M86.8125 209.797H72.3438C70.4251 209.797 68.585 209.035 67.2283 207.678C65.8716 206.321 65.1094 204.481 65.1094 202.562C65.1094 200.644 65.8716 198.804 67.2283 197.447C68.585 196.09 70.4251 195.328 72.3438 195.328H86.8125C88.7312 195.328 90.5713 196.09 91.928 197.447C93.2847 198.804 94.0469 200.644 94.0469 202.562C94.0469 204.481 93.2847 206.321 91.928 207.678C90.5713 209.035 88.7312 209.797 86.8125 209.797Z" fill="#D16796"/>
<path d="M130.219 238.734H115.75C113.831 238.734 111.991 237.972 110.635 236.615C109.278 235.259 108.516 233.419 108.516 231.5C108.516 229.581 109.278 227.741 110.635 226.385C111.991 225.028 113.831 224.266 115.75 224.266H130.219C132.137 224.266 133.978 225.028 135.334 226.385C136.691 227.741 137.453 229.581 137.453 231.5C137.453 233.419 136.691 235.259 135.334 236.615C133.978 237.972 132.137 238.734 130.219 238.734Z" fill="#D16796"/>
<path d="M347.25 180.859H332.781C330.863 180.859 329.022 180.097 327.666 178.74C326.309 177.384 325.547 175.544 325.547 173.625C325.547 171.706 326.309 169.866 327.666 168.51C329.022 167.153 330.863 166.391 332.781 166.391H347.25C349.169 166.391 351.009 167.153 352.365 168.51C353.722 169.866 354.484 171.706 354.484 173.625C354.484 175.544 353.722 177.384 352.365 178.74C351.009 180.097 349.169 180.859 347.25 180.859Z" fill="#D16796"/>
<path d="M390.656 209.797H376.188C374.269 209.797 372.429 209.035 371.072 207.678C369.715 206.321 368.953 204.481 368.953 202.562C368.953 200.644 369.715 198.804 371.072 197.447C372.429 196.09 374.269 195.328 376.188 195.328H390.656C392.575 195.328 394.415 196.09 395.772 197.447C397.128 198.804 397.891 200.644 397.891 202.562C397.891 204.481 397.128 206.321 395.772 207.678C394.415 209.035 392.575 209.797 390.656 209.797Z" fill="#D16796"/>
<path d="M238.734 412.359H224.266C222.347 412.359 220.507 411.597 219.15 410.24C217.793 408.884 217.031 407.044 217.031 405.125C217.031 403.206 217.793 401.366 219.15 400.01C220.507 398.653 222.347 397.891 224.266 397.891H238.734C240.653 397.891 242.493 398.653 243.85 400.01C245.207 401.366 245.969 403.206 245.969 405.125C245.969 407.044 245.207 408.884 243.85 410.24C242.493 411.597 240.653 412.359 238.734 412.359Z" fill="#D16796"/>
<path d="M195.328 383.422H180.859C178.941 383.422 177.101 382.66 175.744 381.303C174.387 379.946 173.625 378.106 173.625 376.188C173.625 374.269 174.387 372.429 175.744 371.072C177.101 369.715 178.941 368.953 180.859 368.953H195.328C197.247 368.953 199.087 369.715 200.444 371.072C201.8 372.429 202.562 374.269 202.562 376.188C202.562 378.106 201.8 379.946 200.444 381.303C199.087 382.66 197.247 383.422 195.328 383.422Z" fill="#D16796"/>
<path d="M282.141 383.422H267.672C265.753 383.422 263.913 382.66 262.556 381.303C261.2 379.946 260.438 378.106 260.438 376.188C260.438 374.269 261.2 372.429 262.556 371.072C263.913 369.715 265.753 368.953 267.672 368.953H282.141C284.059 368.953 285.899 369.715 287.256 371.072C288.613 372.429 289.375 374.269 289.375 376.188C289.375 378.106 288.613 379.946 287.256 381.303C285.899 382.66 284.059 383.422 282.141 383.422Z" fill="#D16796"/>
<path d="M130.219 354.484H115.75C113.831 354.484 111.991 353.722 110.635 352.365C109.278 351.009 108.516 349.169 108.516 347.25C108.516 345.331 109.278 343.491 110.635 342.135C111.991 340.778 113.831 340.016 115.75 340.016H130.219C132.137 340.016 133.978 340.778 135.334 342.135C136.691 343.491 137.453 345.331 137.453 347.25C137.453 349.169 136.691 351.009 135.334 352.365C133.978 353.722 132.137 354.484 130.219 354.484Z" fill="#D16796"/>
<path d="M173.625 325.547H159.156C157.238 325.547 155.397 324.785 154.041 323.428C152.684 322.071 151.922 320.231 151.922 318.312C151.922 316.394 152.684 314.554 154.041 313.197C155.397 311.84 157.238 311.078 159.156 311.078H173.625C175.544 311.078 177.384 311.84 178.74 313.197C180.097 314.554 180.859 316.394 180.859 318.312C180.859 320.231 180.097 322.071 178.74 323.428C177.384 324.785 175.544 325.547 173.625 325.547Z" fill="#D16796"/>
<path d="M347.25 354.484H332.781C330.863 354.484 329.022 353.722 327.666 352.365C326.309 351.009 325.547 349.169 325.547 347.25C325.547 345.331 326.309 343.491 327.666 342.135C329.022 340.778 330.863 340.016 332.781 340.016H347.25C349.169 340.016 351.009 340.778 352.365 342.135C353.722 343.491 354.484 345.331 354.484 347.25C354.484 349.169 353.722 351.009 352.365 352.365C351.009 353.722 349.169 354.484 347.25 354.484Z" fill="#D16796"/>
<path d="M303.844 325.547H289.375C287.456 325.547 285.616 324.785 284.26 323.428C282.903 322.071 282.141 320.231 282.141 318.312C282.141 316.394 282.903 314.554 284.26 313.197C285.616 311.84 287.456 311.078 289.375 311.078H303.844C305.762 311.078 307.603 311.84 308.959 313.197C310.316 314.554 311.078 316.394 311.078 318.312C311.078 320.231 310.316 322.071 308.959 323.428C307.603 324.785 305.762 325.547 303.844 325.547Z" fill="#D16796"/>
<path d="M238.734 354.484H224.266C222.347 354.484 220.507 353.722 219.15 352.365C217.793 351.009 217.031 349.169 217.031 347.25C217.031 345.331 217.793 343.491 219.15 342.135C220.507 340.778 222.347 340.016 224.266 340.016H238.734C240.653 340.016 242.493 340.778 243.85 342.135C245.207 343.491 245.969 345.331 245.969 347.25C245.969 349.169 245.207 351.009 243.85 352.365C242.493 353.722 240.653 354.484 238.734 354.484Z" fill="#D16796"/>
<path d="M130.219 296.609H115.75C113.831 296.609 111.991 295.847 110.635 294.49C109.278 293.134 108.516 291.294 108.516 289.375C108.516 287.456 109.278 285.616 110.635 284.26C111.991 282.903 113.831 282.141 115.75 282.141H130.219C132.137 282.141 133.978 282.903 135.334 284.26C136.691 285.616 137.453 287.456 137.453 289.375C137.453 291.294 136.691 293.134 135.334 294.49C133.978 295.847 132.137 296.609 130.219 296.609Z" fill="#D16796"/>
<path d="M86.8125 267.672H72.3438C70.4251 267.672 68.585 266.91 67.2283 265.553C65.8716 264.196 65.1094 262.356 65.1094 260.438C65.1094 258.519 65.8716 256.679 67.2283 255.322C68.585 253.965 70.4251 253.203 72.3438 253.203H86.8125C88.7312 253.203 90.5713 253.965 91.928 255.322C93.2847 256.679 94.0469 258.519 94.0469 260.438C94.0469 262.356 93.2847 264.196 91.928 265.553C90.5713 266.91 88.7312 267.672 86.8125 267.672Z" fill="#D16796"/>
<path d="M347.25 296.609H332.781C330.863 296.609 329.022 295.847 327.666 294.49C326.309 293.134 325.547 291.294 325.547 289.375C325.547 287.456 326.309 285.616 327.666 284.26C329.022 282.903 330.863 282.141 332.781 282.141H347.25C349.169 282.141 351.009 282.903 352.365 284.26C353.722 285.616 354.484 287.456 354.484 289.375C354.484 291.294 353.722 293.134 352.365 294.49C351.009 295.847 349.169 296.609 347.25 296.609Z" fill="#D16796"/>
<path d="M390.656 267.672H376.188C374.269 267.672 372.429 266.91 371.072 265.553C369.715 264.196 368.953 262.356 368.953 260.438C368.953 258.519 369.715 256.679 371.072 255.322C372.429 253.965 374.269 253.203 376.188 253.203H390.656C392.575 253.203 394.415 253.965 395.772 255.322C397.128 256.679 397.891 258.519 397.891 260.438C397.891 262.356 397.128 264.196 395.772 265.553C394.415 266.91 392.575 267.672 390.656 267.672Z" fill="#D16796"/>
<path d="M347.25 238.734H332.781C330.863 238.734 329.022 237.972 327.666 236.615C326.309 235.259 325.547 233.419 325.547 231.5C325.547 229.581 326.309 227.741 327.666 226.385C329.022 225.028 330.863 224.266 332.781 224.266H347.25C349.169 224.266 351.009 225.028 352.365 226.385C353.722 227.741 354.484 229.581 354.484 231.5C354.484 233.419 353.722 235.259 352.365 236.615C351.009 237.972 349.169 238.734 347.25 238.734Z" fill="#D16796"/>
</g>
<defs>
<clipPath id="clip0_537_1930">
<rect width="463" height="463" fill="white"/>
</clipPath>
</defs>
</svg>
