<svg width="578" height="578" viewBox="0 0 578 578" fill="none" xmlns="http://www.w3.org/2000/svg">
<g clip-path="url(#clip0_537_2016)">
<mask id="mask0_537_2016" style="mask-type:luminance" maskUnits="userSpaceOnUse" x="0" y="0" width="578" height="578">
<path d="M0 0H578V578H0V0Z" fill="white"/>
</mask>
<g mask="url(#mask0_537_2016)">
<path d="M552.703 373.4C536.793 468.785 435.248 532.365 290.398 532.365C145.548 532.365 44.0176 468.785 28.1226 373.4C24.3656 350.904 30.4955 249.891 44.1546 230.33C83.0783 174.614 96.9959 387.987 290.398 387.987C501.033 387.987 497.885 174.614 536.793 230.33C550.467 249.891 556.445 350.904 552.703 373.4Z" fill="#FFAC33"/>
<path d="M290.404 309.825C242.126 309.825 202.974 299.147 202.974 285.975C202.974 272.802 242.126 262.14 290.404 262.14C338.667 262.14 377.834 272.802 377.834 285.975C377.834 299.147 338.667 309.825 290.404 309.825ZM290.404 106.384C148.474 106.384 33.4219 176.109 33.4219 262.14C33.4219 348.155 148.474 417.88 290.404 417.88C432.318 417.88 547.386 348.155 547.386 262.14C547.386 176.109 432.318 106.384 290.404 106.384Z" fill="#8A4B38"/>
<path d="M41.3681 237.628C31.4356 253.523 27.3744 321.195 48.6539 352.878C81.1132 401.232 96.993 376.713 120.843 384.014C156.36 394.874 158.991 422.938 187.085 436.992C218.875 452.887 237.356 448.263 282.455 436.992C346.05 421.097 386.449 453.541 425.51 436.992C457.543 423.409 475.872 374.066 493.744 368.119C550.449 349.212 562.42 259.759 520.226 223.056C506.993 250.876 442.089 350.886 400.367 355.525C358.614 360.164 233.447 370.735 180.468 343.6C127.475 316.449 73.8273 282.666 67.1955 273.403C60.579 264.125 41.3681 237.628 41.3681 237.628Z" fill="#8A4B38"/>
<path d="M290.404 226.368C233.334 226.368 187.079 245.046 187.079 268.09C187.079 277.064 194.121 285.324 206.016 292.123C204.099 290.145 202.974 288.107 202.974 285.978C202.974 272.805 242.126 262.143 290.404 262.143C338.667 262.143 377.834 272.805 377.834 285.978C377.834 288.107 376.708 290.145 374.777 292.123C386.686 285.324 393.729 277.064 393.729 268.09C393.729 245.046 347.458 226.368 290.404 226.368Z" fill="#F4900C"/>
<path d="M82.4394 291.288C76.7355 291.288 71.2293 288.2 68.3697 282.815C64.2628 275.058 67.2289 265.43 75.0015 261.338L110.107 242.781C117.85 238.644 127.478 241.625 131.585 249.398C135.691 257.155 132.725 266.783 124.953 270.875L89.8469 289.432C87.4893 290.694 84.9492 291.288 82.4394 291.288Z" fill="#F4ABBA"/>
<path d="M263.25 409.837C257.014 409.837 251.097 406.156 248.557 400.011L237.301 372.845C233.939 364.738 237.803 355.444 245.91 352.083C254.033 348.736 263.311 352.569 266.672 360.707L277.928 387.873C281.29 395.98 277.442 405.274 269.319 408.635C267.342 409.457 265.273 409.837 263.25 409.837Z" fill="#F4ABBA"/>
<path d="M443.408 346.248C440.655 346.248 437.871 345.533 435.347 344.027C427.787 339.586 425.277 329.82 429.749 322.276L446.952 293.133C451.409 285.588 461.22 283.079 468.718 287.535C476.278 292.007 478.788 301.742 474.316 309.301L457.098 338.43C454.147 343.449 448.838 346.248 443.408 346.248Z" fill="#55ACEE"/>
<path d="M469.893 228.158C461.375 228.158 454.332 220.842 454.028 212.248C453.724 203.486 460.584 195.835 469.345 195.516L487.871 194.725C496.8 194.619 504.01 201.22 504.314 209.996C504.618 218.758 497.758 226.652 488.997 226.971L470.471 228.158H469.893Z" fill="#F4ABBA"/>
<path d="M316.257 165.437C309.504 165.437 303.252 161.102 301.092 154.334C298.461 145.953 303.1 137.024 311.466 134.377L324.03 130.407C332.472 127.746 341.324 132.4 343.971 140.766C346.633 149.147 341.978 158.075 333.628 160.722L321.048 164.692C319.451 165.194 317.839 165.437 316.257 165.437Z" fill="#F4ABBA"/>
<path d="M228.121 191.26C225.733 191.26 223.315 190.713 221.033 189.587L209.108 183.625C201.259 179.7 198.065 170.148 201.99 162.299C205.914 154.451 215.466 151.257 223.33 155.181L235.24 161.143C243.088 165.068 246.283 174.605 242.358 182.469C239.575 188.036 233.962 191.26 228.121 191.26Z" fill="#88C9F9"/>
<path d="M366.567 393.245C364.195 393.245 361.776 392.713 359.495 391.587L347.57 385.64C339.706 381.716 336.511 372.179 340.421 364.33C344.33 356.451 353.867 353.272 361.746 357.181L373.671 363.129C381.519 367.038 384.714 376.575 380.82 384.438C378.036 390.021 372.408 393.245 366.567 393.245Z" fill="#88C9F9"/>
<path d="M158.589 358.176C156.49 358.176 154.376 357.78 152.323 356.883C144.261 353.43 140.535 344.076 143.987 336.014L149.95 322.112C153.418 314.065 162.772 310.263 170.834 313.776C178.895 317.244 182.637 326.584 179.169 334.645L173.207 348.548C170.621 354.571 164.75 358.176 158.589 358.176Z" fill="#55ACEE"/>
<path d="M395.741 207.823C389.612 207.823 383.771 204.264 381.17 198.301C377.656 190.255 381.322 180.885 389.353 177.356L399.939 172.717C408.016 169.188 417.371 172.869 420.869 180.916C424.398 188.962 420.732 198.332 412.686 201.845L402.099 206.484C400.016 207.397 397.871 207.823 395.741 207.823Z" fill="#55ACEE"/>
<path d="M137.423 207.161C136.236 207.161 135.035 207.024 133.848 206.751L125.239 204.773C116.675 202.796 111.337 194.263 113.314 185.714C115.276 177.151 123.824 171.827 132.357 173.789L140.967 175.767C149.53 177.744 154.869 186.277 152.907 194.826C151.203 202.187 144.663 207.161 137.423 207.161Z" fill="#55ACEE"/>
</g>
</g>
<defs>
<clipPath id="clip0_537_2016">
<rect width="578" height="578" fill="white"/>
</clipPath>
</defs>
</svg>
