<svg width="312" height="312" viewBox="0 0 312 312" fill="none" xmlns="http://www.w3.org/2000/svg">
<path d="M177.143 107.25C186.959 102.526 194.91 94.6514 199.727 84.8814C204.545 75.1114 205.951 64.0094 203.722 53.3467C201.493 42.6841 195.757 33.0751 187.43 26.0529C179.102 19.0308 168.662 15.0001 157.776 14.604C146.89 14.2078 136.185 17.4691 127.369 23.8674C118.553 30.2657 112.134 39.4324 109.136 49.9049C106.138 60.3773 106.734 71.5522 110.829 81.6465C114.923 91.7408 122.281 100.173 131.727 105.597C132.746 106.182 133.794 106.733 134.857 107.25H53.625C48.4533 107.25 43.4934 109.304 39.8364 112.961C36.1795 116.618 34.125 121.578 34.125 126.75C34.125 131.922 36.1795 136.882 39.8364 140.539C43.4934 144.196 48.4533 146.25 53.625 146.25H107.25V199.875L83.9329 269.831C83.231 271.929 82.8737 274.127 82.875 276.339V276.783C82.875 282.244 85.0445 287.482 88.9063 291.344C92.768 295.205 98.0057 297.375 103.467 297.375C107.453 297.376 111.347 296.173 114.637 293.922C117.927 291.672 120.46 288.479 121.904 284.763L149.36 214.168C149.88 212.83 150.792 211.679 151.977 210.869C153.162 210.058 154.564 209.624 156 209.625C157.436 209.624 158.838 210.058 160.023 210.869C161.208 211.679 162.12 212.83 162.64 214.168L190.096 284.763C191.54 288.479 194.073 291.672 197.363 293.922C200.653 296.173 204.547 297.376 208.533 297.375H209.342C214.589 297.375 219.621 295.291 223.331 291.581C227.041 287.871 229.125 282.839 229.125 277.592V276.208C229.125 274.082 228.783 271.97 228.111 269.953L204.75 199.875V146.25H258.375C263.547 146.25 268.507 144.196 272.164 140.539C275.821 136.882 277.875 131.922 277.875 126.75C277.875 121.578 275.821 116.618 272.164 112.961C268.507 109.304 263.547 107.25 258.375 107.25H177.143Z" fill="#A65C2E"/>
<path d="M258.375 107.25H205.008C177.938 159.286 143.549 190.832 100.264 220.837L83.9329 269.831C83.231 271.929 82.8737 274.127 82.875 276.339V276.783C82.875 282.244 85.0445 287.482 88.9063 291.344C92.768 295.205 98.0057 297.375 103.467 297.375C107.453 297.376 111.347 296.173 114.637 293.922C117.927 291.672 120.46 288.479 121.904 284.763L149.36 214.168C149.88 212.83 150.792 211.68 151.977 210.868C153.162 210.057 154.564 209.623 156 209.623C157.436 209.623 158.838 210.057 160.023 210.868C161.208 211.68 162.12 212.83 162.64 214.168L190.096 284.763C191.54 288.479 194.073 291.672 197.363 293.922C200.653 296.173 204.547 297.376 208.533 297.375H209.342C214.589 297.375 219.621 295.291 223.331 291.581C227.041 287.871 229.125 282.839 229.125 277.592V276.208C229.125 274.082 228.783 271.97 228.111 269.953L204.75 199.875V146.25H258.375C263.547 146.25 268.507 144.196 272.164 140.539C275.821 136.882 277.875 131.922 277.875 126.75C277.875 121.578 275.821 116.618 272.164 112.961C268.507 109.304 263.547 107.25 258.375 107.25Z" fill="#9C5528"/>
<path d="M131.625 107.25V136.5L156 121.875L131.625 107.25Z" fill="#D13E37"/>
<path d="M180.375 107.25V136.5L156 121.875L180.375 107.25Z" fill="#D13E37"/>
<path d="M68.25 107.25H58.5V146.25H68.25V107.25Z" fill="#663318"/>
<path d="M87.75 107.25H78V146.25H87.75V107.25Z" fill="#663318"/>
<path d="M234 107.25H224.25V146.25H234V107.25Z" fill="#663318"/>
<path d="M253.5 107.25H243.75V146.25H253.5V107.25Z" fill="#663318"/>
<path d="M84.1572 269.158L122.114 284.222L125.648 275.135L87.2431 259.891L84.1572 269.158Z" fill="#663318"/>
<path d="M90.3389 250.614L129.319 265.697L132.854 256.61L93.4247 241.352L90.3389 250.614Z" fill="#663318"/>
<path d="M189.252 282.433L227.438 267.93L224.352 258.677L185.791 273.317L189.252 282.433Z" fill="#663318"/>
<path d="M182.14 264.274L221.159 249.098L218.073 239.84L178.61 255.192L182.14 264.274Z" fill="#663318"/>
<path d="M131.625 68.25C137.01 68.25 141.375 63.8848 141.375 58.5C141.375 53.1152 137.01 48.75 131.625 48.75C126.24 48.75 121.875 53.1152 121.875 58.5C121.875 63.8848 126.24 68.25 131.625 68.25Z" fill="#663318"/>
<path d="M180.375 68.25C185.76 68.25 190.125 63.8848 190.125 58.5C190.125 53.1152 185.76 48.75 180.375 48.75C174.99 48.75 170.625 53.1152 170.625 58.5C170.625 63.8848 174.99 68.25 180.375 68.25Z" fill="#663318"/>
<path d="M156 97.5C150.828 97.5 145.868 95.4455 142.211 91.7886C138.554 88.1316 136.5 83.1717 136.5 78H146.25C146.25 80.5859 147.277 83.0658 149.106 84.8943C150.934 86.7228 153.414 87.75 156 87.75C158.586 87.75 161.066 86.7228 162.894 84.8943C164.723 83.0658 165.75 80.5859 165.75 78H175.5C175.5 83.1717 173.446 88.1316 169.789 91.7886C166.132 95.4455 161.172 97.5 156 97.5Z" fill="#663318"/>
<path d="M160.875 146.25H151.125V156H160.875V146.25Z" fill="#FDB62F"/>
<path d="M160.875 165.75H151.125V175.5H160.875V165.75Z" fill="#FDB62F"/>
<path d="M160.875 185.25H151.125V195H160.875V185.25Z" fill="#FDB62F"/>
</svg>
