<svg width="514" height="514" viewBox="0 0 514 514" fill="none" xmlns="http://www.w3.org/2000/svg">
<path d="M285.555 408.701C285.555 408.701 437.771 369.794 476.249 224.447C481.903 203.101 454.576 185.611 421.023 185.611H85.6523C68.8759 185.611 32.2534 192.65 41.791 226.931C81.5403 369.794 228.444 408.701 228.444 408.701V425.449C228.444 425.449 162.281 460.33 148.66 468.425C133.997 476.821 144.834 490.213 150.716 492.541C160.482 496.381 184.84 508.96 252.317 508.96C321.521 508.96 359.357 495.339 367.724 492.541C370.951 491.47 384.815 478.648 364.897 466.855C329.431 445.866 285.555 425.449 285.555 425.449V408.701Z" fill="#55ACEE"/>
<path d="M475.322 217.708C475.322 241.866 377.733 261.455 257.314 261.455C136.924 261.455 39.321 241.88 39.321 217.708C39.321 193.535 136.924 173.96 257.314 173.96C377.733 173.96 475.322 193.535 475.322 217.708Z" fill="#3B88C3"/>
<path d="M370.965 98.6309C370.965 121.661 326.233 166.379 259.142 166.379C197.39 166.379 147.333 136.567 147.333 98.6309C147.333 36.8795 197.376 1.72762 259.142 1.72762C320.922 1.74189 370.965 36.8795 370.965 98.6309Z" fill="#F4ABBA"/>
<path d="M475.321 202.987C475.321 226.017 430.603 263.282 363.526 263.282C301.761 263.282 251.703 283.171 251.703 202.987C251.703 173.333 263.483 144.894 284.451 123.926C305.419 102.958 333.858 91.1779 363.512 91.1779C393.166 91.1779 421.605 102.958 442.573 123.926C463.542 144.894 475.321 173.333 475.321 202.987Z" fill="#FFE8B6"/>
<path d="M266.595 202.987C266.595 276.975 221.877 264.539 154.785 264.539C93.034 264.539 42.9761 240.938 42.9761 202.987C42.9761 173.334 54.7559 144.894 75.7242 123.926C96.6926 102.958 125.132 91.1779 154.785 91.1779C184.439 91.1779 212.878 102.958 233.846 123.926C254.815 144.894 266.595 173.334 266.595 202.987Z" fill="#8A4B38"/>
<path d="M440.284 301.233C452.752 283.667 462.754 264.475 470.01 244.193C277.474 311.755 97.7884 263.825 49.144 248.99C55.7664 266.327 64.3762 282.838 74.8012 298.191C236.854 344.608 382.502 315.382 440.284 301.233Z" fill="#3B88C3"/>
<path d="M40.506 216.694C60.4378 225.261 261.64 288.74 475.95 217.936C475.95 227.245 470.081 253.302 466.626 263.268C461.044 279.43 246.734 332.23 54.1698 266.994C48.573 264.524 31.8108 212.967 40.506 216.694Z" fill="#55ACEE"/>
</svg>
