<svg width="463" height="463" viewBox="0 0 463 463" fill="none" xmlns="http://www.w3.org/2000/svg">
<path d="M322.366 436.387C322.366 450.586 281.977 462.096 232.155 462.096C182.332 462.096 141.943 450.586 141.943 436.387C141.943 424.903 185.566 391.316 214.696 378.895V231.606H249.613V378.895C278.742 391.316 322.366 424.903 322.366 436.387Z" fill="#D1CFC3"/>
<path d="M430.775 175.16C430.775 175.16 428.068 344.398 230.059 344.398C32.051 344.398 33.534 175.16 33.534 175.16C33.534 174.841 33.5774 174.537 33.5955 174.225C34.8597 202.3 123.248 224.962 232.154 224.962C341.065 224.962 429.453 202.3 430.714 174.223C430.732 174.536 430.775 174.841 430.775 175.16Z" fill="#E5E4DF"/>
<path d="M232.153 122.273C122.461 122.273 33.5332 145.26 33.5332 173.618C33.5332 173.82 33.5847 174.023 33.5947 174.225C34.8589 202.301 123.248 224.962 232.153 224.962C341.063 224.962 429.452 202.3 430.713 174.223C430.724 174.02 430.772 173.82 430.772 173.618C430.772 145.26 341.85 122.273 232.153 122.273Z" fill="#D1CFC3"/>
<path d="M226.676 184.665C226.676 199.138 223.16 212.788 216.938 224.813C143.943 223.383 81.9979 211.751 52.3334 195.42C51.8953 191.852 51.6754 188.26 51.675 184.665C51.675 136.339 90.8501 97.164 139.176 97.164C187.501 97.164 226.676 136.339 226.676 184.665Z" fill="#77431D"/>
<path d="M398.755 195.541C398.755 197.592 398.684 199.625 398.558 201.645C363.123 215.683 301.84 224.962 232.152 224.962C224.39 224.962 216.736 224.843 209.206 224.619C206.256 215.209 204.76 205.403 204.769 195.542C204.769 141.974 248.194 98.5485 301.762 98.5485C355.33 98.5476 398.755 141.973 398.755 195.541Z" fill="#FFE1AB"/>
<path d="M372.375 128.752C372.375 143.85 360.135 156.09 345.037 156.09C342.39 156.09 339.835 155.706 337.414 155.005C337.837 165.758 331.852 176.204 321.458 180.954C310.978 185.743 299.054 183.351 291.202 175.847C287.72 186.941 277.359 194.989 265.115 194.989C252.171 194.989 241.337 185.99 238.506 173.91C233.493 179.734 226.072 183.428 217.784 183.428C202.686 183.428 190.447 171.188 190.447 156.09C190.447 155.727 190.46 155.368 190.474 155.009C178.772 158.418 165.805 153.644 159.314 142.67C151.628 129.675 155.931 112.91 168.926 105.223C171.914 103.453 175.213 102.271 178.646 101.74C177.959 97.2862 177.614 92.7865 177.615 88.2802C177.615 39.9546 216.79 0.77951 265.115 0.77951C313.441 0.77951 352.616 39.9546 352.616 88.2802C352.616 93.016 352.234 97.6614 351.51 102.194C363.484 105.101 372.375 115.886 372.375 128.752Z" fill="#FFA9BA"/>
</svg>
