<svg width="529" height="486" viewBox="0 0 529 486" fill="none" xmlns="http://www.w3.org/2000/svg">
<path fill-rule="evenodd" clip-rule="evenodd" d="M311.168 78.1929C309.994 79.947 309.639 82.0581 310.193 84.0553C310.746 86.0524 312.152 87.7535 314.102 88.771L347.776 106.48C351.661 108.53 356.621 107.353 358.943 103.837L393.46 51.6983C395.816 48.1292 394.601 43.4818 390.741 41.2873L358.117 22.789C354.232 20.5868 349.14 21.6878 346.743 25.2569L311.168 78.1929Z" fill="#633001"/>
<path fill-rule="evenodd" clip-rule="evenodd" d="M346.264 25.9707L373.267 41.2873C377.127 43.4818 378.343 48.1292 375.987 51.6983L341.8 103.343L347.776 106.48C351.661 108.53 356.62 107.353 358.943 103.837L393.46 51.6983C395.816 48.1292 394.601 43.4818 390.741 41.2873L358.116 22.789C354.232 20.5868 349.14 21.6878 346.743 25.2569L346.264 25.9707Z" fill="#4A2401"/>
<path fill-rule="evenodd" clip-rule="evenodd" d="M297.058 89.3252C299.373 88.9911 301.439 87.7609 302.72 85.9232C303.514 84.7842 303.944 83.5009 304.01 82.1947V82.1719C304.076 80.9721 303.82 79.7647 303.257 78.6408C289.388 51.1363 260.128 33.6934 224.99 33.6934C176.86 33.6934 137.788 69.5891 137.788 113.815C137.788 134.637 146.45 153.621 160.659 167.875C162.221 169.447 164.436 170.343 166.751 170.343H250.44C253.3 170.343 255.945 168.991 257.458 166.766C258.97 164.541 259.119 161.762 257.863 159.408C254.383 152.893 252.432 145.557 252.432 137.811C252.432 113.443 271.774 93.1905 297.108 89.3252H297.058Z" fill="#F5F0E5"/>
<path fill-rule="evenodd" clip-rule="evenodd" d="M160.287 60.1197C175.752 47.2787 196.251 39.4571 218.725 39.4571C253.854 39.4571 283.114 56.9 296.984 84.4045C297.554 85.5208 297.802 86.7358 297.736 87.9356V87.9583C297.719 88.3911 297.653 88.8164 297.554 89.2417C299.662 88.8088 301.53 87.6318 302.72 85.9233C303.514 84.7842 303.943 83.5009 304.01 82.1947V82.1719C304.076 80.9721 303.819 79.7647 303.257 78.6408C289.388 51.1363 260.127 33.6934 224.99 33.6934C199.334 33.6934 176.248 43.8919 160.287 60.1197Z" fill="#EADEC7"/>
<path fill-rule="evenodd" clip-rule="evenodd" d="M243.026 166.098C244.414 168.695 247.291 170.343 250.44 170.343H361.439C364.53 170.343 367.366 168.756 368.779 166.235C368.779 166.235 375.978 153.5 375.978 137.811C375.978 102.303 344.594 73.4695 305.944 73.4695C267.285 73.4695 235.901 102.303 235.901 137.811C235.901 147.957 238.463 157.563 243.026 166.098Z" fill="#F5F0E5"/>
<path fill-rule="evenodd" clip-rule="evenodd" d="M244.737 106.525C257.549 93.6005 276.014 85.4752 296.537 85.4752C335.188 85.4752 366.572 114.309 366.572 149.817C366.572 157.828 364.696 165.065 362.861 170.229C365.382 169.827 367.589 168.361 368.779 166.235C368.779 166.235 375.978 153.5 375.978 137.811C375.978 102.303 344.594 73.4695 305.944 73.4695C279.643 73.4695 256.714 86.8117 244.737 106.525Z" fill="#EADEC7"/>
<path fill-rule="evenodd" clip-rule="evenodd" d="M256.623 457.918C257.714 461.077 260.896 463.219 264.5 463.219C268.104 463.219 271.286 461.077 272.377 457.918L373.532 165.05C374.334 162.742 373.879 160.221 372.325 158.269C370.771 156.31 368.292 155.156 365.655 155.156H163.345C160.709 155.156 158.229 156.31 156.675 158.269C155.121 160.221 154.666 162.742 155.468 165.05L256.623 457.918Z" fill="#F8AC3A"/>
<path fill-rule="evenodd" clip-rule="evenodd" d="M365.655 155.156H338.585C341.221 155.156 343.693 156.31 345.255 158.269C346.809 160.221 347.255 162.742 346.462 165.05L250.961 441.546L256.623 457.918C257.714 461.077 260.896 463.219 264.5 463.219C268.104 463.219 271.286 461.077 272.377 457.918L373.532 165.05C374.333 162.742 373.879 160.221 372.325 158.269C370.771 156.31 368.291 155.156 365.655 155.156Z" fill="#F39404"/>
<path fill-rule="evenodd" clip-rule="evenodd" d="M216.245 341.013L270.691 300.948L270.716 300.53L174.033 218.806L216.245 341.013Z" fill="#633001"/>
<path fill-rule="evenodd" clip-rule="evenodd" d="M354.967 218.806L214.634 336.35L256.623 457.918C257.714 461.077 260.896 463.219 264.5 463.219C268.104 463.219 271.286 461.077 272.377 457.918L354.967 218.806Z" fill="#633001"/>
<path fill-rule="evenodd" clip-rule="evenodd" d="M354.967 218.806L316.871 250.715L250.961 441.546L256.623 457.918C257.714 461.077 260.896 463.219 264.5 463.219H264.665C268.203 463.15 271.302 461.024 272.377 457.918L354.967 218.806Z" fill="#4A2401"/>
<path fill-rule="evenodd" clip-rule="evenodd" d="M186.934 133.253L197.343 140.486C200.968 143.008 206.042 142.239 208.667 138.776C211.293 135.314 210.479 130.458 206.86 127.935L196.452 120.702C192.825 118.187 187.75 118.956 185.125 122.419C182.5 125.881 183.307 130.738 186.934 133.253Z" fill="#633001"/>
<path fill-rule="evenodd" clip-rule="evenodd" d="M190.424 79.3486L184.12 86.8759C181.335 90.2061 181.889 95.0999 185.356 97.8014C188.823 100.503 193.897 99.9966 196.682 96.6663L202.985 89.139C205.77 85.8087 205.216 80.915 201.756 78.2152C198.288 75.5137 193.209 76.0183 190.424 79.3486Z" fill="#633001"/>
<path fill-rule="evenodd" clip-rule="evenodd" d="M240.186 90.6383L247.856 77.9188C250.072 74.251 248.625 69.6264 244.633 67.5913C240.649 65.5637 235.607 66.8926 233.4 70.5528L225.729 83.2724C223.514 86.9402 224.96 91.5648 228.953 93.5999C232.937 95.6274 237.979 94.2985 240.186 90.6383Z" fill="#633001"/>
<path fill-rule="evenodd" clip-rule="evenodd" d="M287.608 142.758L291.339 139.397C294.59 136.466 294.793 131.51 291.79 128.334C288.79 125.165 283.709 124.966 280.461 127.903L276.727 131.258C273.476 134.189 273.272 139.145 276.275 142.321C279.276 145.49 284.357 145.689 287.608 142.758Z" fill="#633001"/>
<path fill-rule="evenodd" clip-rule="evenodd" d="M301.834 109.35V115.545C301.834 119.739 305.537 123.141 310.1 123.141C314.662 123.141 318.365 119.739 318.365 115.545V109.35C318.365 105.156 314.662 101.754 310.1 101.754C305.537 101.754 301.834 105.156 301.834 109.35Z" fill="#633001"/>
<path fill-rule="evenodd" clip-rule="evenodd" d="M326.932 132.605L329.691 142.257C330.851 146.306 335.373 148.688 339.784 147.584C344.201 146.474 346.84 142.291 345.687 138.247L342.928 128.595C341.767 124.546 337.245 122.164 332.834 123.268C328.417 124.378 325.778 128.561 326.932 132.605Z" fill="#633001"/>
</svg>
