<svg version="1.1" id="Layer_1" xmlns="http://www.w3.org/2000/svg" xmlns:xlink="http://www.w3.org/1999/xlink" x="0px" y="0px"
	 width="100%" viewBox="0 0 512 512" enable-background="new 0 0 512 512" xml:space="preserve">
<path fill="#E7C9BF" opacity="1.000000" stroke="none" 
	d="
M513.000000,110.000000 
	C513.000000,207.354233 513.000000,304.708466 512.996094,402.909546 
	C512.490662,405.508972 511.821014,407.232544 511.513092,409.018463 
	C507.487457,432.368591 497.266968,452.835083 481.674255,470.417877 
	C464.310211,489.998138 442.878418,503.331940 417.279572,509.710541 
	C413.820801,510.572388 409.997864,510.592346 407.000000,513.000000 
	C307.312439,513.000000 207.624878,513.000000 107.226044,512.742798 
	C99.270126,509.605835 91.473633,508.721283 84.172920,505.827209 
	C41.502022,488.912384 14.631192,458.332367 3.449442,413.831879 
	C2.873776,411.540833 3.374614,408.700989 1.000000,407.000000 
	C1.000000,307.645782 1.000000,208.291550 1.221909,108.181526 
	C1.819715,106.520943 2.403949,105.646172 2.539342,104.706718 
	C3.921278,95.117905 6.889615,85.958870 10.843992,77.209427 
	C24.365995,47.290699 46.073582,25.388605 75.873611,11.439733 
	C86.792770,6.328662 98.499710,4.065633 110.000000,1.000000 
	C208.354233,1.000000 306.708466,1.000000 405.787476,1.193309 
	C407.086487,1.719136 407.627441,2.254152 408.239746,2.354614 
	C424.163788,4.967294 438.898285,10.737135 452.580261,19.197393 
	C477.285309,34.473801 494.772156,55.755054 505.395050,82.780098 
	C508.867218,91.613419 510.602722,100.889320 513.000000,110.000000 
M419.963287,461.406311 
	C453.463013,444.743530 469.427399,417.102844 469.544067,380.292480 
	C469.803436,298.468292 469.603302,216.642670 469.661469,134.817688 
	C469.666565,127.642014 469.002319,120.584114 467.685242,113.546448 
	C460.135864,73.207405 425.736755,44.878395 385.077728,44.585194 
	C301.590576,43.983154 218.096008,44.404106 134.604492,44.425129 
	C129.793030,44.426342 125.020973,44.656017 120.196945,45.227707 
	C76.217880,50.439629 44.668709,86.090279 44.477341,130.720642 
	C44.122925,213.377396 44.394470,296.036743 44.335716,378.694977 
	C44.330498,386.034180 44.939529,393.266663 46.326649,400.461212 
	C53.996307,440.241638 87.836884,469.151978 129.067337,469.439392 
	C214.387848,470.034180 299.715546,469.689484 385.039917,469.538788 
	C396.919312,469.517792 408.402893,466.705200 419.963287,461.406311 
z"/>
<path fill="#E7C9BF" opacity="1.000000" stroke="none" 
	d="
M354.262329,171.763275 
	C370.269928,190.935425 380.874298,212.329178 384.258728,236.820877 
	C388.711121,269.040497 383.300781,299.473846 365.451385,327.042725 
	C353.895447,344.891205 338.676239,359.050018 320.062439,369.521698 
	C305.095917,377.941498 289.097748,383.615112 272.096649,385.073547 
	C249.371063,387.023071 226.962173,384.986359 205.716019,375.482819 
	C182.833725,365.247437 163.862000,350.193268 150.100494,329.249054 
	C136.645523,308.771332 129.049286,286.369934 128.440964,261.431061 
	C127.800499,235.174576 133.730057,211.015228 147.454926,188.758347 
	C161.975128,165.211746 182.029465,147.664886 207.795670,137.854248 
	C255.188583,119.809135 299.431122,126.540138 339.648438,157.627747 
	C344.883545,161.674438 349.236267,166.862656 354.262329,171.763275 
M262.897369,341.280853 
	C263.537109,341.099823 264.166412,340.821472 264.818054,340.751801 
	C289.633362,338.097900 309.878754,326.951752 324.487976,306.824890 
	C342.945221,281.396790 346.550476,253.576538 334.570862,224.341675 
	C320.296936,189.507767 280.030518,166.385513 241.236526,174.243546 
	C196.422699,183.320923 167.065887,225.889328 173.565948,269.071472 
	C180.037125,312.061707 218.459320,343.236847 262.897369,341.280853 
z"/>
<path fill="#E7C9BF" opacity="1.000000" stroke="none" 
	d="
M371.320251,140.630493 
	C360.520905,128.491028 360.366272,111.316788 368.244171,99.681335 
	C376.940887,86.836548 394.337433,81.697273 408.546295,87.897842 
	C421.981018,93.760597 430.050842,105.605759 428.310303,122.993874 
	C426.938110,136.702026 415.495514,148.202332 401.428314,150.536606 
	C389.722595,152.479034 379.788025,149.480621 371.320251,140.630493 
z"/>
</svg>