<svg width="329" height="329" viewBox="0 0 329 329" fill="none" xmlns="http://www.w3.org/2000/svg">
<path fill-rule="evenodd" clip-rule="evenodd" d="M73.3823 285.788V286.646C73.3823 292.301 75.6288 297.73 79.6282 301.729C83.6276 305.728 89.051 307.975 94.7108 307.975C127.549 307.975 201.651 307.975 234.49 307.975C240.144 307.975 245.568 305.728 249.567 301.729C253.572 297.73 255.818 292.301 255.818 286.646V285.788C255.818 282.95 253.515 280.647 250.677 280.647H78.5229C75.6853 280.647 73.3823 282.95 73.3823 285.788Z" fill="#B58131"/>
<path fill-rule="evenodd" clip-rule="evenodd" d="M238.931 280.647C238.982 280.94 239.008 281.238 239.008 281.547V282.411C239.008 288.065 236.762 293.489 232.762 297.488C228.763 301.492 223.339 303.739 217.68 303.739H81.9517C85.6118 306.474 90.0841 307.975 94.7107 307.975C127.549 307.975 201.651 307.975 234.489 307.975C240.144 307.975 245.567 305.728 249.567 301.729C253.571 297.73 255.818 292.301 255.818 286.646V285.788C255.818 282.95 253.515 280.647 250.677 280.647H238.931Z" fill="#9A6E2A"/>
<path fill-rule="evenodd" clip-rule="evenodd" d="M290.872 240.674V240.458C290.784 237.703 288.533 235.487 285.752 235.477L43.4842 234.557C42.0911 234.551 40.7545 235.107 39.7829 236.109C38.8114 237.106 38.2819 238.453 38.323 239.846C38.323 239.846 38.4053 242.679 38.5338 246.94C39.2483 271.441 59.3122 290.929 83.8227 290.929C128.289 290.929 200.618 290.929 245.562 290.929C270.587 290.929 290.872 270.644 290.872 245.619C290.872 242.859 290.872 241.018 290.872 240.674Z" fill="#F5F0E5"/>
<path fill-rule="evenodd" clip-rule="evenodd" d="M285.752 235.477H263.442C266.223 235.487 268.479 237.702 268.562 240.458L268.567 240.674C268.567 241.018 268.567 242.858 268.567 245.619C268.567 270.644 248.277 290.928 223.257 290.928H245.563C270.587 290.928 290.872 270.644 290.872 245.619C290.872 242.858 290.872 241.018 290.872 240.674V240.458C290.785 237.702 288.533 235.487 285.752 235.477Z" fill="#EADEC7"/>
<path fill-rule="evenodd" clip-rule="evenodd" d="M46.5019 172.406C31.8049 180.035 22.1045 194.069 22.1045 209.984C22.1045 233.826 44.1012 253.572 71.6087 253.572C83.4681 253.572 94.3406 249.891 102.828 243.81C111.32 249.891 122.192 253.572 134.052 253.572C145.911 253.572 156.784 249.891 165.271 243.81C173.763 249.891 184.636 253.572 196.495 253.572C208.354 253.572 219.227 249.891 227.714 243.81C236.206 249.891 247.079 253.572 258.938 253.572C286.446 253.572 308.437 233.826 308.437 209.984C308.437 194.043 298.701 179.984 283.968 172.37C263.714 134.782 219.777 108.57 168.736 108.57H161.755C110.698 108.57 66.756 134.792 46.5019 172.406Z" fill="#F8AC3A"/>
<path fill-rule="evenodd" clip-rule="evenodd" d="M163.616 108.57C199.333 117.391 228.624 139.465 244.097 168.181C258.83 175.794 268.567 189.854 268.567 205.795C268.567 225.231 253.952 241.944 233.641 247.459C241.028 251.33 249.685 253.572 258.938 253.572C286.446 253.572 308.437 233.826 308.437 209.984C308.437 194.043 298.701 179.984 283.968 172.37C263.714 134.782 219.777 108.57 168.736 108.57H163.616Z" fill="#F39404"/>
<path fill-rule="evenodd" clip-rule="evenodd" d="M160.13 146.857V198.608C160.13 201.446 162.433 203.749 165.271 203.749C168.109 203.749 170.412 201.446 170.412 198.608V146.857C170.412 144.02 168.109 141.717 165.271 141.717C162.433 141.717 160.13 144.02 160.13 146.857Z" fill="#F39404"/>
<path fill-rule="evenodd" clip-rule="evenodd" d="M112.378 146.857V198.608C112.378 201.446 114.681 203.749 117.519 203.749C120.357 203.749 122.66 201.446 122.66 198.608V146.857C122.66 144.02 120.357 141.717 117.519 141.717C114.681 141.717 112.378 144.02 112.378 146.857Z" fill="#F39404"/>
<path fill-rule="evenodd" clip-rule="evenodd" d="M207.882 147.927V199.677C207.882 202.515 210.185 204.818 213.023 204.818C215.861 204.818 218.164 202.515 218.164 199.677V147.927C218.164 145.089 215.861 142.786 213.023 142.786C210.185 142.786 207.882 145.089 207.882 147.927Z" fill="#F39404"/>
<path fill-rule="evenodd" clip-rule="evenodd" d="M125.093 78.195L121.637 69.0812C120.596 66.3249 120.596 63.4855 121.637 60.7293L128.555 42.5017C129.879 39.0044 129.879 35.4033 128.555 31.906C127.032 27.8962 125.093 22.7922 125.093 22.7922C124.526 21.2825 121.805 20.3129 119.026 20.6246C116.246 20.9293 114.455 22.4044 115.028 23.9141L118.484 33.0279C119.525 35.7842 119.525 38.6236 118.484 41.3798L111.566 59.6074C110.242 63.1047 110.242 66.7058 111.566 70.2031C113.089 74.2129 115.028 79.3169 115.028 79.3169C115.595 80.8266 118.316 81.7962 121.095 81.4845C123.875 81.1798 125.666 79.7047 125.093 78.195Z" fill="#F5F0E5"/>
<path fill-rule="evenodd" clip-rule="evenodd" d="M169.503 78.195L166.046 69.0812C165.006 66.3249 165.006 63.4855 166.046 60.7293L172.965 42.5017C174.289 39.0044 174.289 35.4033 172.965 31.906C171.442 27.8962 169.503 22.7922 169.503 22.7922C168.936 21.2825 166.214 20.3129 163.435 20.6246C160.656 20.9293 158.865 22.4044 159.437 23.9141L162.894 33.0279C163.934 35.7842 163.934 38.6236 162.894 41.3798L155.975 59.6074C154.651 63.1047 154.651 66.7058 155.975 70.2031C157.499 74.2129 159.437 79.3169 159.437 79.3169C160.005 80.8266 162.726 81.7962 165.505 81.4845C168.284 81.1798 170.076 79.7047 169.503 78.195Z" fill="#F5F0E5"/>
<path fill-rule="evenodd" clip-rule="evenodd" d="M215.512 78.195L212.055 69.0812C211.015 66.3249 211.015 63.4855 212.055 60.7293L218.974 42.5017C220.298 39.0044 220.298 35.4033 218.974 31.906C217.45 27.8962 215.512 22.7922 215.512 22.7922C214.944 21.2825 212.223 20.3129 209.444 20.6246C206.665 20.9293 204.873 22.4044 205.446 23.9141L208.903 33.0279C209.943 35.7842 209.943 38.6236 208.903 41.3798L201.984 59.6074C200.66 63.1047 200.66 66.7058 201.984 70.2031C203.508 74.2129 205.446 79.3169 205.446 79.3169C206.013 80.8266 208.735 81.7962 211.514 81.4845C214.293 81.1798 216.084 79.7047 215.512 78.195Z" fill="#F5F0E5"/>
</svg>
