<svg width="589" height="585" viewBox="0 0 589 585" fill="none" xmlns="http://www.w3.org/2000/svg">
<path fill-rule="evenodd" clip-rule="evenodd" d="M96.0126 194.5L83.5052 165.007C80.9899 159.075 79.7063 152.717 79.7063 146.284V116.939C79.7063 111.897 75.5776 107.8 70.4949 107.8C65.4123 107.8 61.301 111.897 61.301 116.939C61.301 116.939 61.301 134.179 61.301 146.284C61.301 155.145 63.0878 163.932 66.5399 172.107L79.0647 201.6C81.0249 206.253 86.4372 208.44 91.1036 206.476C95.7873 204.511 97.9902 199.153 96.0126 194.5Z" fill="#4A2401"/>
<path fill-rule="evenodd" clip-rule="evenodd" d="M93.7664 424.998C93.7664 424.998 99.3944 420.042 106.513 413.765C123.323 398.934 148.387 398.124 166.128 411.834C167.712 413.06 169.315 414.29 170.88 415.512C187.727 428.53 211.338 428.53 228.185 415.512C230.421 413.784 232.676 412.037 234.912 410.309C251.759 397.291 275.351 397.291 292.198 410.309C294.434 412.037 296.689 413.784 298.926 415.512C315.772 428.53 339.365 428.53 356.211 415.512C358.448 413.784 360.721 412.037 362.957 410.309C379.804 397.291 403.397 397.291 420.243 410.309C422.275 411.881 424.324 413.471 426.374 415.048C443.5 428.279 467.541 428.037 484.406 414.461C491.935 408.392 497.991 403.512 497.991 403.512" fill="black"/>
<path d="M93.7664 424.998C93.7664 424.998 99.3944 420.042 106.513 413.765C123.323 398.934 148.387 398.124 166.128 411.834C167.712 413.06 169.315 414.29 170.88 415.512C187.727 428.53 211.338 428.53 228.185 415.512C230.421 413.784 232.676 412.037 234.912 410.309C251.759 397.291 275.351 397.291 292.198 410.309C294.434 412.037 296.689 413.784 298.926 415.512C315.772 428.53 339.365 428.53 356.211 415.512C358.448 413.784 360.721 412.037 362.957 410.309C379.804 397.291 403.397 397.291 420.243 410.309C422.275 411.881 424.324 413.471 426.374 415.048C443.5 428.279 467.541 428.037 484.406 414.461C491.935 408.392 497.991 403.512 497.991 403.512" stroke="black" stroke-width="17.2809" stroke-miterlimit="1.5" stroke-linecap="round" stroke-linejoin="round"/>
<path fill-rule="evenodd" clip-rule="evenodd" d="M553.568 364.647C553.568 359.601 549.445 355.506 544.365 355.506H47.396C42.3159 355.506 38.1929 359.601 38.1929 364.647V461.163C38.1929 466.218 42.3159 470.303 47.396 470.303H544.365C549.445 470.303 553.568 466.218 553.568 461.163V364.647Z" fill="#F8AC3A"/>
<path fill-rule="evenodd" clip-rule="evenodd" d="M515.375 357.225V433.43C515.375 438.485 511.252 442.571 506.172 442.571L38.1929 440.852V461.163C38.1929 466.218 42.3159 470.303 47.396 470.303H544.365C549.445 470.303 553.568 466.218 553.568 461.163V364.647C553.568 359.601 549.445 355.506 544.365 355.506L515.375 357.225Z" fill="#F39404"/>
<path fill-rule="evenodd" clip-rule="evenodd" d="M544.365 373.788C549.445 373.788 553.568 369.702 553.568 364.647V310.535C553.568 305.48 549.445 301.394 544.365 301.394H47.396C42.3159 301.394 38.1929 305.48 38.1929 310.535V364.647C38.1929 369.702 42.3159 373.788 47.396 373.788H544.365Z" fill="#633001"/>
<path fill-rule="evenodd" clip-rule="evenodd" d="M513.396 301.394V350.936C513.396 355.991 509.273 360.077 504.193 360.077H38.1929V364.647C38.1929 369.702 42.3159 373.788 47.396 373.788H544.365C549.445 373.788 553.568 369.702 553.568 364.647V310.535C553.568 305.48 549.445 301.394 544.365 301.394H513.396Z" fill="#4A2401"/>
<path fill-rule="evenodd" clip-rule="evenodd" d="M40.4567 305.242C38.0823 307.948 37.5302 311.778 39.0211 315.041C40.5213 318.295 43.8067 320.388 47.4143 320.379L544.383 319.666C548.782 319.657 552.565 316.549 553.402 312.253C554.24 307.957 551.893 303.679 547.807 302.043L180.151 155.098C176.516 153.645 172.347 154.641 169.77 157.575L40.4567 305.242Z" fill="#F8AC3A"/>
<path fill-rule="evenodd" clip-rule="evenodd" d="M536.395 297.482C535.033 300.909 531.674 303.249 527.854 303.249L41.5796 303.953L40.4567 305.242C38.0823 307.948 37.5302 311.777 39.0211 315.041C40.5213 318.295 43.8067 320.388 47.4143 320.379L544.383 319.666C548.782 319.657 552.565 316.549 553.402 312.253C554.24 307.957 551.893 303.679 547.807 302.043L536.395 297.482Z" fill="#F39404"/>
<path fill-rule="evenodd" clip-rule="evenodd" d="M235.316 229.728L227.929 218.759C225.102 214.573 219.391 213.463 215.184 216.283C210.976 219.103 209.846 224.796 212.665 228.983L220.056 239.957C222.875 244.144 228.586 245.254 232.794 242.434C237.009 239.613 238.138 233.92 235.316 229.728Z" fill="#633001"/>
<path fill-rule="evenodd" clip-rule="evenodd" d="M284.204 276.695L290.609 265.138C293.049 260.721 291.428 255.148 286.991 252.701C282.553 250.254 276.959 251.848 274.515 256.259L268.107 267.821C265.663 272.232 267.284 277.805 271.722 280.252C276.164 282.705 281.757 281.111 284.204 276.695Z" fill="#633001"/>
<path fill-rule="evenodd" clip-rule="evenodd" d="M339.395 279.589L347.06 286.659C350.779 290.096 356.596 289.864 360.031 286.154C363.472 282.441 363.243 276.64 359.524 273.203L351.86 266.133C348.138 262.703 342.323 262.928 338.888 266.639C335.447 270.351 335.673 276.159 339.395 279.589Z" fill="#633001"/>
<path fill-rule="evenodd" clip-rule="evenodd" d="M195.162 279.572L208.417 283.988C213.236 285.591 218.446 283.002 220.042 278.217C221.643 273.427 219.023 268.242 214.203 266.638L200.948 262.222C196.129 260.619 190.919 263.208 189.323 267.993C187.722 272.783 190.342 277.968 195.162 279.572Z" fill="#633001"/>
<path fill-rule="evenodd" clip-rule="evenodd" d="M124.38 169.897C94.47 169.897 70.2014 193.964 70.2014 223.589C70.2014 253.213 94.47 277.272 124.38 277.272C154.29 277.272 178.559 253.213 178.559 223.589C178.559 193.964 154.29 169.897 124.38 169.897Z" fill="#F0682D"/>
</svg>
