<svg width="100%" height="100%" viewBox="0 0 1439 127" fill="none" xmlns="http://www.w3.org/2000/svg">
<path d="M1440 7H0V126.757C10.1667 108.632 39 101.632 73 101.632C115.5 101.632 122.5 126.757 164 126.757C205.5 126.757 198.5 100.586 258 101.632C317.5 102.678 311.5 127.803 368.5 126.757C425.5 125.711 425.336 101.632 487 101.632C552 101.632 552 129.371 614.5 126.757C677 124.143 666.5 101.632 720 101.632C773.5 101.632 780.5 126.757 835 126.757C889.5 126.757 906.5 101.632 962.5 101.632C1018.5 101.632 1016 126.757 1064.5 126.757C1125.5 129.894 1118 101.632 1173 101.632C1228 101.632 1235.5 126.757 1273.5 126.757C1311.5 126.757 1333.5 101.632 1374.5 101.632C1410.81 101.632 1428.67 128.674 1440 126.757V80.7189V7Z" fill="#5F4444"/>
<path d="M1440 0H0V119.757C10.1667 101.632 39 94.6321 73 94.6321C115.5 94.6321 122.5 119.757 164 119.757C205.5 119.757 198.5 93.5864 258 94.6321C317.5 95.6777 311.5 120.803 368.5 119.757C425.5 118.711 425.336 94.6321 487 94.6321C552 94.6321 552 122.371 614.5 119.757C677 117.143 666.5 94.6321 720 94.6321C773.5 94.6321 780.5 119.757 835 119.757C889.5 119.757 906.5 94.6321 962.5 94.6321C1018.5 94.6321 1016 119.757 1064.5 119.757C1125.5 122.894 1118 94.6321 1173 94.6321C1228 94.6321 1235.5 119.757 1273.5 119.757C1311.5 119.757 1333.5 94.6321 1374.5 94.6321C1410.81 94.6321 1428.67 121.674 1440 119.757V73.7189V0Z" fill="#B04F61"/>
</svg>
