<svg width="312" height="312" viewBox="0 0 312 312" fill="none" xmlns="http://www.w3.org/2000/svg">
<path d="M278.087 162.782C278.087 185.258 259.867 203.478 237.391 203.478H235.477L202.264 262.799C198.526 269.475 192.059 273.515 185.112 273.515H156H126.888C119.941 273.515 113.474 269.475 109.736 262.799L76.5223 203.478H74.6082C52.1327 203.478 33.9124 185.258 33.9124 162.782C33.9124 140.307 52.1327 122.086 74.6082 122.086H75.4748C71.6327 112.084 69.5212 101.224 69.5212 89.8688C69.5218 40.2358 109.758 0 159.391 0C159.444 0 159.497 0.00182812 159.55 0.00182812C160.117 9.76584 162.246 19.1106 165.685 27.793C174.847 46.2973 189.751 61.0508 208.868 69.1232H221.976C240.706 69.1232 255.889 84.307 255.889 103.037C255.889 110.831 253.254 118.004 248.833 123.729C265.738 128.674 278.087 144.282 278.087 162.782Z" fill="#F7BA9C"/>
<path d="M278.087 162.782C278.087 185.258 259.867 203.478 237.391 203.478H235.477L202.264 262.799C198.526 269.475 192.059 273.515 185.112 273.515H156H126.888C119.941 273.515 113.474 269.475 109.736 262.799L76.5223 203.478H74.6082C52.1327 203.478 33.9124 185.258 33.9124 162.782C33.9124 140.307 52.1327 122.086 74.6082 122.086H75.1561C94.7359 154.599 130.373 176.069 171.091 176.347C237.165 176.799 256.072 126.004 249.133 123.823C265.882 128.866 278.087 144.391 278.087 162.782Z" fill="#B74941"/>
<path d="M79.0992 185.827C77.9908 188.385 75.4935 189.915 72.872 189.915C71.972 189.915 71.0579 189.734 70.1786 189.354C59.5663 184.756 51.4141 175.77 47.8108 164.699C46.6518 161.136 48.5988 157.309 52.1612 156.15C55.7236 154.99 59.5511 156.938 60.7101 160.5C63.1104 167.875 68.5272 173.855 75.5721 176.907C79.009 178.396 80.5879 182.39 79.0992 185.827Z" fill="#F7BA9C"/>
<path d="M256.115 103.037C256.115 110.831 255.775 139.156 197.939 139.156C152.739 139.156 116.659 109.736 116.659 76.4022C116.659 52.2271 135.725 31.4486 163.559 21.8132C164.205 23.8625 165.125 25.8101 165.91 27.793C171.991 40.0756 180.602 50.7055 191.296 58.8254C200.17 65.5645 211.057 69.1232 222.201 69.1232C240.931 69.1239 256.115 84.307 256.115 103.037Z" fill="#DB6D53"/>
<path d="M203.047 305.215C203.047 308.961 200.01 311.998 196.265 311.998H156.04C156.026 311.998 156.014 311.999 156 311.999C155.987 311.999 155.974 311.998 155.96 311.998H115.736C111.99 311.998 108.953 308.961 108.953 305.215C108.953 301.469 111.99 298.433 115.736 298.433H149.217V273.516H126.888C119.94 273.516 113.474 269.475 109.736 262.8L76.5217 203.478H235.476L202.264 262.799C198.526 269.475 192.059 273.515 185.112 273.515H162.782V298.432H196.264C200.01 298.433 203.047 301.469 203.047 305.215Z" fill="#323030"/>
<path d="M156 247.226C129.665 247.226 107.736 228.402 102.907 203.478H209.091C204.264 228.402 182.335 247.226 156 247.226Z" fill="#403E3E"/>
<path d="M181.234 30.7801C198.636 22.1727 219.719 29.3091 228.323 46.708C236.927 64.1117 229.794 85.1937 212.393 93.798C194.989 102.402 173.908 95.2691 165.304 77.8678C156.698 60.4664 163.831 39.3839 181.234 30.7801Z" fill="#612324"/>
<path d="M192.366 35.5686C201.376 31.1122 212.291 34.8069 216.745 43.8147C221.199 52.8249 217.507 63.7394 208.497 68.1939C199.487 72.6485 188.572 68.9556 184.119 59.9473C179.664 50.9383 183.357 40.0225 192.366 35.5686Z" fill="#92393C"/>
<path d="M237.391 6.01027C237.391 8.0017 235.777 9.61655 233.785 9.61655C232.944 9.61655 232.133 9.92672 231.5 10.4886C219.445 21.1965 210.487 32.6259 204.114 50.3764C203.586 51.8481 202.199 52.7646 200.72 52.7646C200.316 52.7646 199.904 52.6963 199.502 52.5519C197.627 51.8791 196.653 49.814 197.326 47.9389C204.118 29.0221 213.73 14.2228 226.71 2.69283C228.664 0.95611 231.177 0 233.785 0C235.777 0 237.391 4.01883 237.391 6.01027Z" fill="#5C4D38"/>
</svg>
