<svg width="183" height="64" viewBox="0 0 183 64" fill="none" xmlns="http://www.w3.org/2000/svg">
<g id="UADS Logo">
<mask id="mask0_380_152" style="mask-type:alpha" maskUnits="userSpaceOnUse" x="5" y="7" width="171" height="53">
<g id="g10">
<g id="Clip path group">
<mask id="mask1_380_152" style="mask-type:luminance" maskUnits="userSpaceOnUse" x="0" y="0" width="183" height="64">
<g id="clipPath16">
<path id="path14" d="M0 0H182.763V64H0V0Z" fill="white"/>
</g>
</mask>
<g mask="url(#mask1_380_152)">
<g id="g12">
<g id="g18">
<path id="path20" d="M24.0921 19.9045C24.0921 19.9045 20.2311 20.3958 19.7394 16.886C19.2481 13.3757 24.7939 10.6379 31.6038 12.6738C31.6038 12.6738 21.4947 25.1697 20.3712 38.3678C19.2481 51.5655 26.9 52.478 31.0421 52.7591C35.1841 53.0398 41.3618 49.4595 42.5553 42.5799C42.5553 42.5799 44.1697 48.8981 48.1012 50.1613C52.0326 51.425 54.8406 50.8636 56.736 47.8451C58.6315 44.8261 57.6485 40.2633 56.736 38.789C56.736 38.789 53.7875 40.7545 51.5409 36.1212C49.2947 31.4879 52.6644 14.7094 56.5955 9.37422C56.5955 9.37422 51.0496 5.79391 46.9781 11.761C42.9061 17.7284 42.3447 28.75 41.9235 35.0682C41.9235 35.0682 40.5894 36.1913 39.3962 36.6829C38.2027 37.1742 31.0421 41.1757 32.6568 28.8905C34.2712 16.6049 41.1512 8.30891 41.1512 8.30891C41.1512 8.30891 38.3432 8.85839 32.5163 8.30891C26.6894 7.75944 16.2996 6.75233 12.6493 8.51952C8.99849 10.2867 5.83939 11.4803 5.1375 18.3602C4.43561 25.2397 12.5788 26.7845 14.3341 26.7845C16.089 26.7845 23.7409 24.2572 24.0921 19.9045Z" fill="#FFBBBB"/>
</g>
<g id="g22">
<path id="path24" d="M83.8313 30.5792H80.3207C81.65 22.0727 86.5296 16.6686 86.6812 16.5015C85.336 18.7445 83.8313 30.5792 83.8313 30.5792ZM94.8727 9.68609C89.049 11.0234 86.0783 10.7047 82.9952 10.7047C79.9086 10.7047 76.0088 9.7716 74.4926 9.53803C72.9803 9.30486 67.5062 8.28627 60.8697 10.0903C54.2332 11.8982 53.3896 18.5929 53.331 19.0011C53.2728 19.4092 52.9502 24.1839 57.6971 26.7729C62.4405 29.3623 66.0794 28.4332 70.041 26.742C73.9989 25.0544 73.3303 21.33 73.3303 21.33C70.4764 21.4737 69.9246 20.3387 69.691 19.6115C69.4578 18.8847 69.2559 15.5953 74.2012 15.1559C79.1505 14.7208 80.4604 16.4081 80.4604 16.4081C78.4232 17.3099 72.3699 31.7807 70.4491 34.8947C68.5248 38.0091 65.644 40.2212 63.7738 40.3962C61.8998 40.5712 60.376 39.9607 60.403 37.4841C60.4342 35.0115 63.6844 32.6125 63.6844 32.6125C56.7367 30.5753 52.2424 32.8924 52.2424 32.8924C52.2424 32.8924 51.7527 39.4904 57.5067 37.6666C57.5067 37.6666 58.8325 39.8713 59.0348 42.4916C59.2407 45.1119 58.3658 47.7326 57.8761 48.6071C57.3899 49.478 55.1038 52.0714 50.8857 52.2733C46.6633 52.4795 44.043 48.5489 44.043 48.5489C45.5865 57.6311 56.2391 61.0677 63.7505 58.8246C71.2618 56.5812 73.7658 51.2278 76.2111 47.5576C78.6564 43.8914 79.7645 36.6714 79.7645 36.6714L83.7224 36.5237L83.6912 38.359C86.9263 32.9157 92.5129 31.6058 92.5129 31.6058C92.5129 31.6058 92.5129 29.685 92.4547 29.4518C92.3961 29.2186 91.9879 28.6937 90.1839 27.7646C88.3803 26.8315 85.8764 22.784 87.4199 17.7184C88.9635 12.6524 94.4337 10.6152 94.8727 10.3547C95.3082 10.0903 94.8727 9.68609 94.8727 9.68609Z" fill="#FFBBBB"/>
</g>
<g id="g26">
<path id="path28" d="M110.224 19.8346C110.224 19.8346 109.182 25.1749 103.191 27.7802C97.1987 30.385 87.3647 28.6919 88.4066 18.8575C89.4486 9.02357 108.661 8.11186 110.224 7.98162C111.787 7.85138 127.483 6.61386 136.861 16.9688C146.239 27.3241 142.918 38.9819 141.485 41.717C140.052 44.4525 137.252 49.9884 130.804 50.3792C124.357 50.7699 121.165 50.5094 118.43 45.2993C115.695 40.0892 120.935 35.6482 122.589 35.2432C122.589 35.2432 122.184 37.3366 123.197 38.046C124.21 38.7551 126.405 40.1394 129.68 36.9653C132.955 33.7912 132.516 27.2066 131.841 24.3028C131.166 21.3987 127.688 15.2871 121.542 13.4637C115.397 11.6403 108.576 13.8014 108.576 13.8014C108.576 13.8014 106.55 14.6454 106.178 15.5912C105.807 16.5365 105.604 17.7859 106.854 18.5286C108.103 19.2716 108.818 19.5863 109.521 19.7106L110.224 19.8346Z" fill="#FFBBBB"/>
</g>
<g id="g30">
<path id="path32" d="M131.031 27.3086C130.457 24.0331 130.086 23.1891 127.587 19.6436C125.088 16.0982 121.408 14.3421 121.408 14.3421C121.408 14.3421 119.584 20.319 122.455 23.2228C125.325 26.1269 126.27 26.9373 130.66 27.3086H131.031Z" fill="#FFBBBB"/>
</g>
<g id="g34">
<path id="path36" d="M118.619 32.828C118.933 26.4698 119.286 21.3282 119.208 19.523C119.208 19.523 119.011 15.6766 120.503 14.4993C120.503 14.4993 113.635 13.9102 111.986 21.7209C110.338 29.5311 110.73 36.0073 106.099 38.9506C101.468 41.8943 100.133 38.0088 100.172 37.4593C100.212 36.9099 100.251 35.3006 101.742 33.9269L103.234 32.5532C103.234 32.5532 98.995 31.1012 94.4816 32.2785C89.9678 33.4558 87.456 34.9083 85.2581 38.048C83.0602 41.1877 82.0792 46.8396 84.1591 50.2541C86.2395 53.6685 87.8487 57.3581 96.5224 58.2215C105.196 59.0849 110.024 53.9828 112.378 50.686C114.733 47.3891 118.305 39.1861 118.619 32.828Z" fill="#FFBBBB"/>
</g>
<g id="g38">
<path id="path40" d="M154.711 15.6653C155.345 14.8605 155.835 13.6361 158.362 13.4805C161.173 13.3985 162.265 13.3483 163.326 14.5687C164.388 15.7896 162.11 16.7267 161.142 16.9757C160.173 17.2243 154.081 16.4662 154.711 15.6653ZM170.325 30.4509C165.162 27.1616 161.449 25.4007 161.449 25.4007C161.449 25.4007 155.139 23.3362 154.602 20.2765C154.602 20.2765 159.575 21.921 163.976 21.1161C168.373 20.3153 171.433 18.554 171.588 15.9139C171.74 13.2742 169.944 8.87724 162.37 8.45721C154.793 8.03363 150.738 10.8289 149.63 12.8934C149.63 12.8934 143.988 8.96671 136.796 7.87013C129.603 6.77395 126.45 9.10645 126.45 9.10645C126.45 9.10645 133.639 11.3265 137.274 15.8015C137.274 15.8015 139.109 14.6155 142.246 15.8403C145.384 17.0648 147.565 17.9824 147.565 17.9824C147.565 17.9824 147.409 24.1798 151.542 27.1228C155.675 30.0697 160.8 34.0083 160.492 37.3752C160.189 40.7421 158.467 43.1526 153.836 42.5382C149.21 41.9278 148.864 40.1277 148.596 37.756C148.331 35.3843 151.581 32.671 152.499 32.7834C152.499 32.7834 148.98 30.0309 144.121 30.2605C144.121 30.2605 144.735 35.5399 144.467 37.5656C144.198 39.5953 142.285 47.6272 136.357 50.0769C136.357 50.0769 138.996 53.1754 143.242 54.4739C147.487 55.7763 148.864 56.7676 159.536 56.3091C170.212 55.8503 175.146 46.9392 175.605 43.5334C176.063 40.1277 175.488 33.7398 170.325 30.4509Z" fill="#FFBBBB"/>
</g>
</g>
</g>
</g>
</g>
</mask>
<g mask="url(#mask0_380_152)">
<rect id="Rectangle 43" y="1" width="182.763" height="64" fill="#E6C3BE"/>
</g>
</g>
</svg>
