<svg width="895" height="313" viewBox="0 0 895 313" fill="none" xmlns="http://www.w3.org/2000/svg">
<mask id="mask0_590_21" style="mask-type:alpha" maskUnits="userSpaceOnUse" x="24" y="36" width="836" height="255">
<mask id="mask1_590_21" style="mask-type:luminance" maskUnits="userSpaceOnUse" x="0" y="0" width="894" height="313">
<path d="M0 0H893.841V313H0V0Z" fill="white"/>
</mask>
<g mask="url(#mask1_590_21)">
<path d="M117.826 97.3449C117.826 97.3449 98.943 99.7477 96.5387 82.5821C94.1359 65.415 121.259 52.0249 154.564 61.9823C154.564 61.9823 105.123 123.095 99.6287 187.642C94.1359 252.187 131.559 256.65 151.816 258.024C172.074 259.397 202.287 241.887 208.125 208.242C208.125 208.242 216.02 239.142 235.248 245.32C254.475 251.5 268.208 248.754 277.478 233.992C286.748 219.227 281.941 196.912 277.478 189.702C277.478 189.702 263.058 199.314 252.071 176.655C241.085 153.994 257.565 71.9376 276.791 45.8452C276.791 45.8452 249.668 28.3352 229.755 57.5176C209.84 86.7024 207.095 140.605 205.035 171.504C205.035 171.504 198.51 176.997 192.674 179.402C186.837 181.805 151.816 201.374 159.714 141.292C167.61 81.2078 201.257 40.6351 201.257 40.6351C201.257 40.6351 187.525 43.3224 159.027 40.6351C130.529 37.9479 79.7157 33.0225 61.8626 41.6651C44.0078 50.3078 28.5576 56.1453 25.1249 89.7923C21.6921 123.437 61.5178 130.992 70.103 130.992C78.6857 130.992 116.109 118.632 117.826 97.3449Z" fill="#FFBBBB"/>
<path d="M409.996 149.55H392.827C399.328 107.947 423.193 81.5179 423.934 80.7006C417.355 91.6708 409.996 149.55 409.996 149.55ZM463.996 47.3692C435.514 53.9093 420.986 52.3507 405.907 52.3507C390.811 52.3507 371.739 47.7874 364.323 46.6451C356.927 45.5047 330.154 40.5232 297.698 49.3459C265.24 58.1881 261.115 90.9289 260.828 92.9252C260.543 94.9211 258.966 118.272 282.181 130.934C305.38 143.598 323.177 139.054 342.551 130.784C361.909 122.53 358.639 104.315 358.639 104.315C344.681 105.018 341.982 99.4674 340.84 95.9105C339.699 92.356 338.712 76.2692 362.898 74.1198C387.103 71.9924 393.51 80.2438 393.51 80.2438C383.547 84.6542 353.942 155.426 344.548 170.655C335.136 185.886 321.047 196.705 311.901 197.561C302.735 198.417 295.283 195.431 295.415 183.319C295.568 171.226 311.463 159.493 311.463 159.493C277.484 149.53 255.503 160.862 255.503 160.862C255.503 160.862 253.108 193.131 281.25 184.212C281.25 184.212 287.734 194.994 288.724 207.808C289.73 220.623 285.451 233.44 283.056 237.717C280.679 241.976 269.498 254.66 248.869 255.647C228.218 256.656 215.403 237.432 215.403 237.432C222.952 281.85 275.051 298.657 311.787 287.688C348.522 276.715 360.768 250.534 372.728 232.584C384.687 214.654 390.106 179.344 390.106 179.344L409.464 178.622L409.31 187.597C425.132 160.976 452.455 154.57 452.455 154.57C452.455 154.57 452.455 145.176 452.171 144.036C451.884 142.896 449.888 140.328 441.065 135.784C432.244 131.221 419.998 111.426 427.547 86.6525C435.096 61.8761 461.849 51.9129 463.996 50.6394C466.126 49.3459 463.996 47.3692 463.996 47.3692Z" fill="#FFBBBB"/>
<path d="M539.074 97.0025C539.074 97.0025 533.978 123.12 504.677 135.861C475.37 148.601 427.275 140.32 432.371 92.2239C437.467 44.1299 531.429 39.6711 539.074 39.0342C546.718 38.3972 623.482 32.3449 669.347 82.987C715.213 133.631 698.971 190.645 691.962 204.021C684.954 217.399 671.26 244.474 639.724 246.385C608.194 248.296 592.583 247.021 579.207 221.541C565.831 196.06 591.458 174.341 599.547 172.361C599.547 172.361 597.567 182.599 602.521 186.068C607.475 189.536 618.21 196.306 634.227 180.782C650.244 165.259 648.097 133.056 644.796 118.855C641.495 104.652 624.485 74.7624 594.427 65.8449C564.373 56.9273 531.014 67.4964 531.014 67.4964C531.014 67.4964 521.105 71.6241 519.286 76.2497C517.471 80.8728 516.479 86.9831 522.592 90.6154C528.7 94.2491 532.197 95.7887 535.636 96.3966L539.074 97.0025Z" fill="#FFBBBB"/>
<path d="M640.835 133.554C638.028 117.535 636.208 113.407 623.991 96.0674C611.769 78.7277 593.767 70.1393 593.767 70.1393C593.767 70.1393 584.851 99.3705 598.887 113.571C612.923 127.775 617.545 131.738 639.015 133.554H640.835Z" fill="#FFBBBB"/>
<path d="M580.131 160.549C581.667 129.454 583.393 104.308 583.012 95.4796C583.012 95.4796 582.048 76.6683 589.345 70.9106C589.345 70.9106 555.756 68.0295 547.691 106.229C539.631 144.425 541.548 176.098 518.9 190.493C496.251 204.889 489.722 185.887 489.912 183.199C490.108 180.512 490.299 172.642 497.591 165.924L504.888 159.205C504.888 159.205 484.156 152.104 462.082 157.862C440.007 163.62 427.722 170.723 416.973 186.078C406.223 201.434 401.426 229.075 411.598 245.774C421.773 262.472 429.643 280.517 472.063 284.739C514.483 288.962 538.096 264.01 549.608 247.886C561.126 231.762 578.596 191.644 580.131 160.549Z" fill="#FFBBBB"/>
<path d="M756.647 76.6115C759.747 72.6751 762.144 66.687 774.503 65.926C788.25 65.5255 793.591 65.2795 798.78 71.2485C803.974 77.2194 792.833 81.802 788.099 83.0197C783.36 84.2355 753.565 80.528 756.647 76.6115ZM833.01 148.922C807.759 132.835 789.6 124.223 789.6 124.223C789.6 124.223 758.74 114.127 756.113 99.1627C756.113 99.1627 780.435 107.205 801.959 103.269C823.463 99.3525 838.429 90.7391 839.187 77.8273C839.93 64.9176 831.147 43.4133 794.104 41.3592C757.048 39.2876 737.216 52.958 731.797 63.0547C731.797 63.0547 704.203 43.8509 669.03 38.4879C633.851 33.1269 618.43 44.5344 618.43 44.5344C618.43 44.5344 653.59 55.3921 671.367 77.2772C671.367 77.2772 680.342 71.4769 695.684 77.4669C711.031 83.4555 721.698 87.9431 721.698 87.9431C721.698 87.9431 720.935 118.253 741.148 132.645C761.361 147.058 786.426 166.32 784.92 182.786C783.438 199.252 775.016 211.041 752.367 208.036C729.743 205.051 728.051 196.247 726.74 184.648C725.444 173.05 741.339 159.78 745.828 160.329C745.828 160.329 728.618 146.868 704.854 147.991C704.854 147.991 707.857 173.81 706.546 183.717C705.23 193.644 695.875 232.925 666.882 244.905C666.882 244.905 679.789 260.059 700.555 266.409C721.316 272.779 728.051 277.627 780.244 275.385C832.457 273.141 856.588 229.56 858.833 212.904C861.073 196.247 858.261 165.007 833.01 148.922Z" fill="#FFBBBB"/>
</g>
</mask>
<g mask="url(#mask0_590_21)">
<path d="M893.841 4.89062H0V317.891H893.841V4.89062Z" fill="#E6C3BE"/>
</g>
</svg>
