<?xml version="1.0" encoding="UTF-8"?>
<svg id="Layer_1" data-name="Layer 1" xmlns="http://www.w3.org/2000/svg" viewBox="0 0 454 184">
  <defs>
    <style>
      .cls-1 {
        fill: #472A25;
      }
    </style>
  </defs>
  <path class="cls-1" d="m59.52,57.28s-9.75,1.24-10.99-7.63c-1.24-8.87,12.77-15.78,29.97-10.64,0,0-25.54,31.57-28.37,64.9-2.84,33.34,16.49,35.64,26.95,36.35s26.07-8.33,29.08-25.71c0,0,4.08,15.96,14.01,19.15s17.02,1.77,21.81-5.85c4.79-7.63,2.31-19.15,0-22.88,0,0-7.45,4.97-13.12-6.74-5.67-11.7,2.84-54.09,12.77-67.56,0,0-14.01-9.04-24.29,6.03-10.29,15.07-11.7,42.91-12.77,58.87,0,0-3.37,2.84-6.38,4.08s-21.1,11.35-17.02-19.68c4.08-31.03,21.46-51.99,21.46-51.99,0,0-7.09,1.39-21.81,0-14.72-1.39-40.96-3.93-50.19.53-9.22,4.46-17.2,7.48-18.97,24.86-1.77,17.38,18.8,21.28,23.23,21.28s23.76-6.38,24.65-17.38Z"/>
  <path class="cls-1" d="m238.32,31.47c-14.71,3.38-22.21,2.57-30,2.57s-17.65-2.36-21.48-2.95c-3.82-.59-17.65-3.16-34.41,1.39-16.76,4.57-18.9,21.48-19.04,22.51s-.96,13.09,11.03,19.63c11.98,6.54,21.17,4.19,31.18-.08,10-4.26,8.31-13.67,8.31-13.67-7.21.36-8.6-2.5-9.19-4.34-.59-1.84-1.1-10.14,11.39-11.25,12.5-1.1,15.81,3.16,15.81,3.16-5.15,2.28-20.44,38.83-25.29,46.7-4.86,7.87-12.14,13.45-16.86,13.9-4.73.44-8.58-1.1-8.51-7.36.08-6.25,8.29-12.31,8.29-12.31-17.55-5.15-28.9.71-28.9.71,0,0-1.24,16.67,13.3,12.06,0,0,3.35,5.57,3.86,12.19.52,6.62-1.69,13.24-2.93,15.45-1.23,2.2-7,8.75-17.66,9.26-10.67.52-17.28-9.41-17.28-9.41,3.9,22.94,30.81,31.62,49.78,25.96,18.97-5.67,25.3-19.19,31.48-28.46,6.18-9.26,8.98-27.5,8.98-27.5l10-.37-.08,4.64c8.17-13.75,22.28-17.06,22.28-17.06,0,0,0-4.85-.15-5.44-.15-.59-1.18-1.92-5.74-4.26-4.56-2.36-10.88-12.58-6.98-25.38,3.9-12.8,17.72-17.94,18.83-18.6,1.1-.67,0-1.69,0-1.69Zm-27.89,52.78h-8.87c3.36-21.49,15.68-35.14,16.07-35.56-3.4,5.67-7.2,35.56-7.2,35.56Z"/>
  <path class="cls-1" d="m277.1,57.1s-2.63,13.49-17.77,20.07c-15.14,6.58-39.98,2.3-37.34-22.54,2.63-24.84,51.16-27.14,55.11-27.47s43.6-3.45,67.29,22.7c23.69,26.16,15.3,55.61,11.68,62.52s-10.69,20.89-26.98,21.88c-16.29.99-24.35.33-31.26-12.83-6.91-13.16,6.33-24.38,10.51-25.4,0,0-1.02,5.29,1.54,7.08s8.1,5.29,16.38-2.73c8.27-8.02,7.16-24.65,5.46-31.99-1.71-7.34-10.49-22.77-26.02-27.38-15.52-4.61-32.75.85-32.75.85,0,0-5.12,2.13-6.06,4.52-.94,2.39-1.45,5.54,1.71,7.42s4.96,2.67,6.74,2.99l1.78.31Z"/>
  <path class="cls-1" d="m329.66,75.98c-1.45-8.27-2.39-10.41-8.7-19.36s-15.61-13.39-15.61-13.39c0,0-4.61,15.1,2.64,22.43,7.25,7.34,9.64,9.38,20.73,10.32h.94Z"/>
  <path class="cls-1" d="m298.3,89.93c.79-16.06,1.69-29.05,1.49-33.61,0,0-.5-9.72,3.27-12.69,0,0-17.35-1.49-21.51,18.24s-3.17,36.09-14.87,43.52c-11.7,7.44-15.07-2.38-14.97-3.77s.2-5.45,3.97-8.92l3.77-3.47s-10.71-3.67-22.11-.69c-11.4,2.97-17.75,6.64-23.3,14.57-5.55,7.93-8.03,22.21-2.78,30.83,5.25,8.63,9.32,17.94,31.23,20.13,21.91,2.18,34.1-10.71,40.05-19.04s14.97-29.05,15.76-45.11"/>
  <path class="cls-1" d="m428.91,83.92c-13.04-8.31-22.42-12.76-22.42-12.76,0,0-15.94-5.21-17.29-12.94,0,0,12.56,4.15,23.68,2.12,11.11-2.02,18.84-6.47,19.23-13.14.38-6.67-4.15-17.78-23.29-18.84-19.14-1.07-29.38,5.99-32.18,11.21,0,0-14.25-9.92-32.42-12.69s-26.13,3.12-26.13,3.12c0,0,18.16,5.61,27.34,16.91,0,0,4.64-3,12.56.1,7.93,3.09,13.44,5.41,13.44,5.41,0,0-.39,15.65,10.05,23.09,10.44,7.44,23.38,17.39,22.61,25.9-.77,8.5-5.12,14.59-16.81,13.04-11.69-1.54-12.56-6.09-13.24-12.08-.67-5.99,7.54-12.85,9.86-12.56,0,0-8.89-6.95-21.16-6.37,0,0,1.55,13.34.87,18.45-.68,5.13-5.51,25.42-20.49,31.6,0,0,6.67,7.83,17.39,11.11,10.72,3.29,14.2,5.79,41.16,4.64,26.97-1.16,39.43-23.67,40.59-32.27,1.16-8.6-.29-24.74-13.34-33.05Zm-39.44-37.35c1.6-2.03,2.84-5.13,9.22-5.52,7.1-.21,9.86-.33,12.54,2.75,2.68,3.08-3.07,5.45-5.52,6.08s-17.83-1.29-16.24-3.31Z"/>
</svg>