<?xml version="1.0" encoding="UTF-8" standalone="no"?>
<!-- Created with Inkscape (http://www.inkscape.org/) -->

<svg
   version="1.1"
   id="svg2"
   width="666.66669"
   height="666.66669"
   viewBox="0 0 666.66669 666.66669"
   sodipodi:docname="UADS logo.ai"
   xmlns:inkscape="http://www.inkscape.org/namespaces/inkscape"
   xmlns:sodipodi="http://sodipodi.sourceforge.net/DTD/sodipodi-0.dtd"
   xmlns="http://www.w3.org/2000/svg"
   xmlns:svg="http://www.w3.org/2000/svg">
  <defs
     id="defs6">
    <clipPath
       clipPathUnits="userSpaceOnUse"
       id="clipPath16">
      <path
         d="M 0,500 H 500 V 0 H 0 Z"
         id="path14" />
    </clipPath>
  </defs>
  <sodipodi:namedview
     id="namedview4"
     pagecolor="#ffffff"
     bordercolor="#000000"
     borderopacity="0.25"
     inkscape:showpageshadow="2"
     inkscape:pageopacity="0.0"
     inkscape:pagecheckerboard="0"
     inkscape:deskcolor="#d1d1d1" />
  <g
     id="g8"
     inkscape:groupmode="layer"
     inkscape:label="UADS logo"
     transform="matrix(1.3333333,0,0,-1.3333333,0,666.66667)">
    <g
       id="g10">
      <g
         id="g12"
         clip-path="url(#clipPath16)">
        <g
           id="g18"
           transform="translate(82.5237,299.7203)">
          <path
             d="m 0,0 c 0,0 -9.753,-1.241 -10.995,7.625 -1.241,8.867 12.768,15.783 29.97,10.64 0,0 -25.536,-31.565 -28.374,-64.904 -2.837,-33.338 16.492,-35.643 26.955,-36.353 10.463,-0.709 26.068,8.335 29.083,25.713 0,0 4.078,-15.96 14.009,-19.151 9.931,-3.192 17.024,-1.774 21.812,5.851 4.788,7.626 2.305,19.152 0,22.876 0,0 -7.448,-4.965 -13.123,6.739 -5.674,11.704 2.838,54.087 12.768,67.564 0,0 -14.009,9.044 -24.294,-6.029 C 47.525,5.497 46.107,-22.344 45.043,-38.304 c 0,0 -3.37,-2.837 -6.384,-4.079 -3.015,-1.241 -21.103,-11.349 -17.024,19.684 4.078,31.034 21.457,51.99 21.457,51.99 0,0 -7.093,-1.388 -21.812,0 -14.719,1.388 -40.964,3.932 -50.185,-0.532 -9.222,-4.464 -17.202,-7.479 -18.975,-24.858 -1.773,-17.378 18.797,-21.28 23.231,-21.28 4.433,0 23.762,6.384 24.649,17.379"
             style="fill:#844371;fill-opacity:1;fill-rule:nonzero;stroke:none"
             id="path20" />
        </g>
        <g
           id="g22"
           transform="translate(233.4288,272.7563)">
          <path
             d="M 0,0 H -8.868 C -5.51,21.488 6.816,35.139 7.199,35.561 3.801,29.895 0,0 0,0 M 27.891,52.777 C 13.18,49.399 5.676,50.204 -2.112,50.204 c -7.797,0 -17.648,2.357 -21.478,2.947 -3.82,0.589 -17.648,3.162 -34.412,-1.395 -16.764,-4.567 -18.895,-21.478 -19.043,-22.509 -0.147,-1.031 -0.962,-13.092 11.029,-19.632 11.982,-6.541 21.174,-4.194 31.181,0.078 9.998,4.263 8.309,13.671 8.309,13.671 -7.209,-0.363 -8.603,2.504 -9.193,4.341 -0.589,1.836 -1.099,10.145 11.393,11.255 12.502,1.099 15.811,-3.163 15.811,-3.163 -5.146,-2.278 -20.437,-38.832 -25.289,-46.698 -4.861,-7.867 -12.138,-13.455 -16.862,-13.897 -4.734,-0.442 -8.583,1.1 -8.515,7.356 0.079,6.246 8.289,12.306 8.289,12.306 -17.55,5.146 -28.903,-0.707 -28.903,-0.707 0,0 -1.237,-16.667 13.298,-12.06 0,0 3.349,-5.569 3.86,-12.188 0.52,-6.619 -1.69,-13.239 -2.927,-15.448 -1.228,-2.2 -7.003,-8.751 -17.658,-9.261 -10.666,-0.521 -17.285,9.408 -17.285,9.408 3.899,-22.942 30.808,-31.623 49.782,-25.957 18.974,5.667 25.299,19.19 31.476,28.461 6.177,9.261 8.976,27.499 8.976,27.499 l 9.998,0.373 -0.079,-4.636 c 8.172,13.75 22.284,17.059 22.284,17.059 0,0 0,4.852 -0.147,5.441 -0.148,0.589 -1.179,1.915 -5.736,4.262 -4.556,2.357 -10.881,12.581 -6.982,25.377 3.899,12.797 17.717,17.943 18.826,18.601 1.1,0.668 0,1.689 0,1.689"
             style="fill:#844371;fill-opacity:1;fill-rule:nonzero;stroke:none"
             id="path24" />
        </g>
        <g
           id="g26"
           transform="translate(300.0975,299.8981)">
          <path
             d="M 0,0 C 0,0 -2.632,-13.49 -17.767,-20.071 -32.903,-26.651 -57.744,-22.374 -55.112,2.468 -52.48,27.309 -3.948,29.612 0,29.941 3.948,30.27 43.596,33.396 67.286,7.239 c 23.69,-26.158 15.3,-55.606 11.68,-62.515 -3.619,-6.91 -10.693,-20.894 -26.98,-21.881 -16.287,-0.987 -24.348,-0.329 -31.257,12.832 -6.91,13.161 6.326,24.379 10.505,25.402 0,0 -1.023,-5.288 1.535,-7.08 2.559,-1.791 8.104,-5.288 16.377,2.73 8.274,8.018 7.165,24.651 5.459,31.986 C 52.899,-3.951 44.114,11.487 28.59,16.093 13.066,20.699 -4.164,15.24 -4.164,15.24 c 0,0 -5.118,-2.132 -6.056,-4.521 -0.938,-2.388 -1.45,-5.544 1.706,-7.42 3.156,-1.877 4.963,-2.672 6.738,-2.986 z"
             style="fill:#844371;fill-opacity:1;fill-rule:nonzero;stroke:none"
             id="path28" />
        </g>
        <g
           id="g30"
           transform="translate(352.6556,281.0198)">
          <path
             d="m 0,0 c -1.45,8.274 -2.388,10.406 -8.7,19.362 -6.312,8.956 -15.609,13.392 -15.609,13.392 0,0 -4.606,-15.098 2.644,-22.433 C -14.415,2.985 -12.027,0.938 -0.938,0 Z"
             style="fill:#844371;fill-opacity:1;fill-rule:nonzero;stroke:none"
             id="path32" />
        </g>
        <g
           id="g34"
           transform="translate(321.3034,267.0732)">
          <path
             d="m 0,0 c 0.793,16.061 1.685,29.049 1.487,33.609 0,0 -0.496,9.716 3.272,12.69 0,0 -17.35,1.488 -21.514,-18.242 -4.164,-19.729 -3.173,-36.088 -14.871,-43.523 -11.699,-7.436 -15.07,2.379 -14.971,3.767 0.099,1.388 0.198,5.453 3.966,8.923 l 3.767,3.47 c 0,0 -10.707,3.668 -22.108,0.694 -11.402,-2.974 -17.747,-6.643 -23.299,-14.574 -5.552,-7.931 -8.03,-22.208 -2.776,-30.833 5.255,-8.625 9.32,-17.945 31.23,-20.126 21.91,-2.181 34.105,10.707 40.053,19.035 C -9.815,-36.782 -0.793,-16.061 0,0"
             style="fill:#844371;fill-opacity:1;fill-rule:nonzero;stroke:none"
             id="path36" />
        </g>
        <g
           id="g38"
           transform="translate(412.4732,310.4292)">
          <path
             d="m 0,0 c 1.601,2.033 2.838,5.126 9.222,5.519 7.1,0.207 9.86,0.334 12.541,-2.749 2.681,-3.084 -3.074,-5.451 -5.519,-6.08 C 13.798,-3.938 -1.591,-2.023 0,0 m 39.441,-37.349 c -13.042,8.309 -22.421,12.757 -22.421,12.757 0,0 -15.94,5.215 -17.295,12.944 0,0 12.561,-4.154 23.678,-2.121 11.108,2.023 18.837,6.472 19.23,13.141 0.383,6.668 -4.155,17.775 -23.286,18.836 -19.141,1.07 -29.384,-5.991 -32.183,-11.206 0,0 -14.25,9.919 -32.418,12.689 -18.169,2.769 -26.134,-3.123 -26.134,-3.123 0,0 18.159,-5.608 27.341,-16.912 0,0 4.636,2.996 12.561,-0.098 7.926,-3.093 13.435,-5.411 13.435,-5.411 0,0 -0.393,-15.655 10.047,-23.089 10.44,-7.444 23.384,-17.393 22.608,-25.898 -0.766,-8.505 -5.117,-14.594 -16.814,-13.042 -11.686,1.542 -12.561,6.089 -13.238,12.08 -0.668,5.991 7.542,12.845 9.86,12.561 0,0 -8.888,6.953 -21.164,6.373 0,0 1.552,-13.336 0.874,-18.453 -0.678,-5.127 -5.51,-25.416 -20.486,-31.604 0,0 6.668,-7.827 17.392,-11.107 10.725,-3.29 14.201,-5.794 41.16,-4.636 26.968,1.159 39.431,23.669 40.59,32.272 1.158,8.603 -0.295,24.739 -13.337,33.047"
             style="fill:#844371;fill-opacity:1;fill-rule:nonzero;stroke:none"
             id="path40" />
        </g>
      </g>
    </g>
  </g>
</svg>
