<svg width="339" height="339" viewBox="0 0 339 339" fill="none" xmlns="http://www.w3.org/2000/svg">
<g clip-path="url(#clip0_537_2093)">
<path d="M254.25 82.0879C254.25 74.3191 247.898 67.956 240.119 67.956H98.8771C91.1076 67.956 84.7505 74.3184 84.7505 82.0879V167.355C84.7505 175.125 91.1083 181.482 98.8771 181.482H240.119C247.898 181.482 254.25 175.125 254.25 167.355V82.0879Z" fill="#E6E9ED"/>
<path d="M296.625 166.838C296.625 159.069 290.273 152.706 282.494 152.706H56.5018C48.7324 152.706 42.3752 159.068 42.3752 166.838V237.451C42.3752 245.231 48.7324 251.584 56.5018 251.584H282.494C290.274 251.584 296.626 245.231 296.626 237.451L296.625 166.838Z" fill="#E6E9ED"/>
<path d="M177.916 2.66641C174.942 2.67701 172.081 3.34907 169.5 4.64222C166.919 3.34907 164.059 2.67634 161.084 2.67634C150.692 2.67634 142.235 11.1285 142.235 21.5153C142.235 38.554 163.516 51.455 165.942 52.872L169.5 54.9418L173.059 52.8726C175.485 51.455 196.771 38.5547 196.771 21.516C196.771 11.1285 188.308 2.67701 177.916 2.66641Z" fill="#ED5564"/>
<path opacity="0.2" d="M177.916 2.66641C176.716 2.67701 175.531 2.79089 174.378 3.00807C183.094 4.66274 189.694 12.3289 189.694 21.516C189.694 38.5547 168.424 51.4557 165.998 52.8726L165.967 52.8832L169.5 54.9418L173.059 52.8726C175.485 51.455 196.771 38.5547 196.771 21.516C196.771 11.1285 188.308 2.67701 177.916 2.66641Z" fill="white"/>
<path d="M339 251.584C339 243.824 332.648 237.451 324.868 237.451H14.1266C6.35714 237.451 0 243.824 0 251.584V322.202C0 329.982 6.35714 336.334 14.1266 336.334H324.868C332.648 336.334 339 329.982 339 322.202V251.584Z" fill="#E6E9ED"/>
<path d="M324.868 251.584H14.1266C6.35714 251.584 0 257.936 0 265.716V283.324C7.47482 289.945 17.3081 293.959 28.083 293.959C42.7685 293.959 55.7052 286.49 63.3092 275.129C70.9131 286.489 83.8551 293.959 98.5406 293.959C113.335 293.959 126.354 286.365 133.938 274.882C141.516 286.366 154.535 293.959 169.329 293.959C184.129 293.959 197.143 286.365 204.727 274.882C212.31 286.366 225.324 293.959 240.118 293.959C254.922 293.959 267.947 286.365 275.521 274.882C283.094 286.366 296.128 293.959 310.923 293.959C321.693 293.959 331.531 289.945 339 283.324V265.716C339 257.936 332.648 251.584 324.868 251.584Z" fill="#D770AD"/>
<path d="M324.868 237.451H14.1266C6.35714 237.451 0 243.824 0 251.584V269.191C7.47482 275.813 17.3081 279.827 28.083 279.827C42.7685 279.827 55.7052 272.357 63.3092 261.019C70.9131 272.357 83.8551 279.827 98.5406 279.827C113.335 279.827 126.354 272.253 133.938 260.749C141.516 272.253 154.535 279.827 169.329 279.827C184.129 279.827 197.143 272.253 204.727 260.749C212.31 272.253 225.324 279.827 240.118 279.827C254.922 279.827 267.947 272.253 275.521 260.749C283.094 272.253 296.128 279.827 310.923 279.827C321.693 279.827 331.531 275.813 339 269.191V251.584C339 243.824 332.648 237.451 324.868 237.451Z" fill="#EC87C0"/>
<path d="M98.5407 124.463C113.335 124.463 126.354 116.87 133.938 105.386C141.516 116.87 154.535 124.463 169.329 124.463C184.129 124.463 197.143 116.87 204.727 105.386C212.31 116.87 225.324 124.463 240.119 124.463C245.085 124.463 249.833 123.604 254.25 122.042V82.0879H84.7498V122.156C89.0748 123.646 93.7091 124.463 98.5407 124.463Z" fill="#D770AD"/>
<path d="M84.7498 82.0879V108.035C89.0741 109.525 93.7091 110.332 98.5407 110.332C113.335 110.332 126.354 102.748 133.938 91.2545C141.516 102.748 154.535 110.332 169.329 110.332C184.129 110.332 197.143 102.748 204.727 91.2545C212.31 102.748 225.324 110.332 240.119 110.332C245.085 110.332 249.833 109.484 254.25 107.921V82.0879C254.25 74.3191 247.898 67.956 240.119 67.956H98.877C91.1075 67.9567 84.7498 74.3191 84.7498 82.0879Z" fill="#EC87C0"/>
<path d="M63.3092 190.38C70.9132 201.739 83.8552 209.209 98.5406 209.209C113.335 209.209 126.354 201.615 133.938 190.131C141.516 201.615 154.535 209.209 169.329 209.209C184.129 209.209 197.143 201.615 204.727 190.131C212.31 201.615 225.324 209.209 240.119 209.209C254.922 209.209 267.947 201.615 275.521 190.131C280.528 197.725 287.915 203.622 296.625 206.726V166.839H42.3752V206.746C50.9823 203.642 58.3022 197.87 63.3092 190.38Z" fill="#D770AD"/>
<path d="M42.3752 166.838V192.614C50.983 189.531 58.3022 183.738 63.3092 176.264C70.9132 187.607 83.8552 195.076 98.5406 195.076C113.335 195.076 126.354 187.503 133.938 176.005C141.516 187.503 154.535 195.076 169.329 195.076C184.129 195.076 197.143 187.503 204.727 176.005C212.31 187.503 225.324 195.076 240.119 195.076C254.922 195.076 267.947 187.503 275.521 176.005C280.528 183.613 287.915 189.49 296.625 192.614V166.838C296.625 159.069 290.273 152.706 282.494 152.706H56.5018C48.7324 152.707 42.3752 159.069 42.3752 166.838Z" fill="#EC87C0"/>
</g>
<defs>
<clipPath id="clip0_537_2093">
<rect width="339" height="339" fill="white"/>
</clipPath>
</defs>
</svg>
